<?xml version="1.0" encoding="UTF-8"?>
<svg width="1644px" height="1644px" viewBox="0 0 1644 1644" version="1.1" xmlns="http://www.w3.org/2000/svg" xmlns:xlink="http://www.w3.org/1999/xlink">
    <!-- Generator: Sketch 61.1 (89650) - https://sketch.com -->
    <title>Group 2</title>
    <desc>Created with Sketch.</desc>
    <defs>
        <linearGradient x1="50%" y1="0%" x2="50%" y2="100%" id="linearGradient-1">
            <stop stop-color="#164E47" offset="0%"></stop>
            <stop stop-color="#10A183" offset="100%"></stop>
        </linearGradient>
        <linearGradient x1="85.4213774%" y1="29.624592%" x2="12.3624262%" y2="72.357582%" id="linearGradient-2">
            <stop stop-color="#107F71" offset="0%"></stop>
            <stop stop-color="#10A183" offset="99.9202226%"></stop>
            <stop stop-color="#10A183" offset="100%"></stop>
        </linearGradient>
        <linearGradient x1="50%" y1="0%" x2="50%" y2="100%" id="linearGradient-3">
            <stop stop-color="#24CFB9" offset="0%"></stop>
            <stop stop-color="#10A183" offset="100%"></stop>
        </linearGradient>
    </defs>
    <g id="Page-1" stroke="none" stroke-width="1" fill="none" fill-rule="evenodd">
        <g id="Artboard" transform="translate(-232.000000, -234.000000)">
            <g id="Group" transform="translate(232.094011, 234.094011)">
                <g id="Group-2" transform="translate(-0.000000, 0.000000)">
                    <path d="M831.905989,2.67949192 L1013.348,107.435 L1222.85898,107.435031 C1230.0043,107.435031 1236.60684,111.24701 1240.17949,117.435031 L1344.935,298.877 L1526.37695,403.632487 C1532.56497,407.205142 1536.37695,413.807683 1536.37695,420.952995 L1536.376,630.463 L1641.13249,811.905989 C1644.70514,818.094011 1644.70514,825.717968 1641.13249,831.905989 L1536.376,1013.348 L1536.37695,1222.85898 C1536.37695,1230.0043 1532.56497,1236.60684 1526.37695,1240.17949 L1344.934,1344.934 L1240.17949,1526.37695 C1236.60684,1532.56497 1230.0043,1536.37695 1222.85898,1536.37695 L1013.348,1536.376 L831.905989,1641.13249 C825.717968,1644.70514 818.094011,1644.70514 811.905989,1641.13249 L630.463,1536.376 L420.952995,1536.37695 C413.807683,1536.37695 407.205142,1532.56497 403.632487,1526.37695 L298.877,1344.935 L117.435031,1240.17949 C111.24701,1236.60684 107.435031,1230.0043 107.435031,1222.85898 L107.435,1013.348 L2.67949192,831.905989 C-0.893163975,825.717968 -0.893163975,818.094011 2.67949192,811.905989 L107.435,630.463 L107.435031,420.952995 C107.435031,413.807683 111.24701,407.205142 117.435031,403.632487 L298.877,298.877 L403.632487,117.435031 C407.205142,111.24701 413.807683,107.435031 420.952995,107.435031 L630.463,107.435 L811.905989,2.67949192 C818.094011,-0.893163975 825.717968,-0.893163975 831.905989,2.67949192 Z" id="Combined-Shape" fill="url(#linearGradient-1)"></path>
                    <path d="M831.905989,254.679492 L1308.13855,529.632487 C1314.32657,533.205142 1318.13855,539.807683 1318.13855,546.952995 L1318.13855,1096.85898 C1318.13855,1104.0043 1314.32657,1110.60684 1308.13855,1114.17949 L831.905989,1389.13249 C825.717968,1392.70514 818.094011,1392.70514 811.905989,1389.13249 L335.673433,1114.17949 C329.485411,1110.60684 325.673433,1104.0043 325.673433,1096.85898 L325.673433,546.952995 C325.673433,539.807683 329.485411,533.205142 335.673433,529.632487 L811.905989,254.679492 C818.094011,251.106836 825.717968,251.106836 831.905989,254.679492 Z" id="Polygon-Copy-5" fill="url(#linearGradient-2)" opacity="0.800000012" transform="translate(821.905989, 821.905989) rotate(-300.000000) translate(-821.905989, -821.905989) "></path>
                    <path d="M831.905989,424.679492 L1160.91423,614.632487 C1167.10225,618.205142 1170.91423,624.807683 1170.91423,631.952995 L1170.91423,1011.85898 C1170.91423,1019.0043 1167.10225,1025.60684 1160.91423,1029.17949 L831.905989,1219.13249 C825.717968,1222.70514 818.094011,1222.70514 811.905989,1219.13249 L482.897752,1029.17949 C476.70973,1025.60684 472.897752,1019.0043 472.897752,1011.85898 L472.897752,631.952995 C472.897752,624.807683 476.70973,618.205142 482.897752,614.632487 L811.905989,424.679492 C818.094011,421.106836 825.717968,421.106836 831.905989,424.679492 Z" id="Polygon-Copy-8" fill="url(#linearGradient-3)" opacity="0.699999988" transform="translate(821.905989, 821.905989) rotate(-270.000000) translate(-821.905989, -821.905989) "></path>
                    <path d="M831.905989,629.679492 L983.379019,717.132487 C989.567041,720.705142 993.379019,727.307683 993.379019,734.452995 L993.379019,909.358984 C993.379019,916.504296 989.567041,923.106836 983.379019,926.679492 L831.905989,1014.13249 C825.717968,1017.70514 818.094011,1017.70514 811.905989,1014.13249 L660.432959,926.679492 C654.244938,923.106836 650.432959,916.504296 650.432959,909.358984 L650.432959,734.452995 C650.432959,727.307683 654.244938,720.705142 660.432959,717.132487 L811.905989,629.679492 C818.094011,626.106836 825.717968,626.106836 831.905989,629.679492 Z" id="Polygon-Copy-4" fill="url(#linearGradient-3)" transform="translate(821.905989, 821.905989) rotate(-300.000000) translate(-821.905989, -821.905989) "></path>
                </g>
            </g>
        </g>
    </g>
</svg>