<?xml version="1.0" encoding="UTF-8"?>
<svg width="1664px" height="1664px" viewBox="0 0 1664 1664" version="1.1" xmlns="http://www.w3.org/2000/svg" xmlns:xlink="http://www.w3.org/1999/xlink">
    <!-- Generator: Sketch 61.1 (89650) - https://sketch.com -->
    <title>Group 2</title>
    <desc>Created with Sketch.</desc>
    <g id="Page-1" stroke="none" stroke-width="1" fill="none" fill-rule="evenodd">
        <g id="Group-2" transform="translate(10.000000, 10.000000)" stroke="#FFFFFF">
            <path d="M831.905989,2.67949192 L1013.348,107.435 L1222.85898,107.435031 C1230.0043,107.435031 1236.60684,111.24701 1240.17949,117.435031 L1344.935,298.877 L1526.37695,403.632487 C1532.56497,407.205142 1536.37695,413.807683 1536.37695,420.952995 L1536.376,630.463 L1641.13249,811.905989 C1644.70514,818.094011 1644.70514,825.717968 1641.13249,831.905989 L1536.376,1013.348 L1536.37695,1222.85898 C1536.37695,1230.0043 1532.56497,1236.60684 1526.37695,1240.17949 L1344.934,1344.934 L1240.17949,1526.37695 C1236.60684,1532.56497 1230.0043,1536.37695 1222.85898,1536.37695 L1013.348,1536.376 L831.905989,1641.13249 C825.717968,1644.70514 818.094011,1644.70514 811.905989,1641.13249 L630.463,1536.376 L420.952995,1536.37695 C413.807683,1536.37695 407.205142,1532.56497 403.632487,1526.37695 L298.877,1344.935 L117.435031,1240.17949 C111.24701,1236.60684 107.435031,1230.0043 107.435031,1222.85898 L107.435,1013.348 L2.67949192,831.905989 C-0.893163975,825.717968 -0.893163975,818.094011 2.67949192,811.905989 L107.435,630.463 L107.435031,420.952995 C107.435031,413.807683 111.24701,407.205142 117.435031,403.632487 L298.877,298.877 L403.632487,117.435031 C407.205142,111.24701 413.807683,107.435031 420.952995,107.435031 L630.463,107.435 L811.905989,2.67949192 C818.094011,-0.893163975 825.717968,-0.893163975 831.905989,2.67949192 Z" id="Combined-Shape-Copy-2" stroke-width="20"></path>
            <path d="M831.905989,50.6794919 L1002.209,149.004 L1198.85898,149.00425 C1206.0043,149.00425 1212.60684,152.816229 1216.17949,159.00425 L1314.504,329.307 L1484.80773,427.632487 C1490.99575,431.205142 1494.80773,437.807683 1494.80773,444.952995 L1494.807,641.601 L1593.13249,811.905989 C1596.70514,818.094011 1596.70514,825.717968 1593.13249,831.905989 L1494.807,1002.209 L1494.80773,1198.85898 C1494.80773,1206.0043 1490.99575,1212.60684 1484.80773,1216.17949 L1314.504,1314.504 L1216.17949,1484.80773 C1212.60684,1490.99575 1206.0043,1494.80773 1198.85898,1494.80773 L1002.209,1494.807 L831.905989,1593.13249 C825.717968,1596.70514 818.094011,1596.70514 811.905989,1593.13249 L641.601,1494.807 L444.952995,1494.80773 C437.807683,1494.80773 431.205142,1490.99575 427.632487,1484.80773 L329.307,1314.504 L159.00425,1216.17949 C152.816229,1212.60684 149.00425,1206.0043 149.00425,1198.85898 L149.004,1002.209 L50.6794919,831.905989 C47.106836,825.717968 47.106836,818.094011 50.6794919,811.905989 L149.004,641.601 L149.00425,444.952995 C149.00425,437.807683 152.816229,431.205142 159.00425,427.632487 L329.307,329.307 L427.632487,159.00425 C431.205142,152.816229 437.807683,149.00425 444.952995,149.00425 L641.601,149.004 L811.905989,50.6794919 C818.094011,47.106836 825.717968,47.106836 831.905989,50.6794919 Z" id="Combined-Shape" stroke-width="20"></path>
            <path d="M831.905989,254.679492 L1308.13855,529.632487 C1314.32657,533.205142 1318.13855,539.807683 1318.13855,546.952995 L1318.13855,1096.85898 C1318.13855,1104.0043 1314.32657,1110.60684 1308.13855,1114.17949 L831.905989,1389.13249 C825.717968,1392.70514 818.094011,1392.70514 811.905989,1389.13249 L335.673433,1114.17949 C329.485411,1110.60684 325.673433,1104.0043 325.673433,1096.85898 L325.673433,546.952995 C325.673433,539.807683 329.485411,533.205142 335.673433,529.632487 L811.905989,254.679492 C818.094011,251.106836 825.717968,251.106836 831.905989,254.679492 Z" id="Polygon-Copy-5" stroke-width="15" transform="translate(821.905989, 821.905989) rotate(-300.000000) translate(-821.905989, -821.905989) "></path>
            <path d="M831.905989,307.679492 L1262.2392,556.132487 C1268.42722,559.705142 1272.2392,566.307683 1272.2392,573.452995 L1272.2392,1070.35898 C1272.2392,1077.5043 1268.42722,1084.10684 1262.2392,1087.67949 L831.905989,1336.13249 C825.717968,1339.70514 818.094011,1339.70514 811.905989,1336.13249 L381.572779,1087.67949 C375.384758,1084.10684 371.572779,1077.5043 371.572779,1070.35898 L371.572779,573.452995 C371.572779,566.307683 375.384758,559.705142 381.572779,556.132487 L811.905989,307.679492 C818.094011,304.106836 825.717968,304.106836 831.905989,307.679492 Z" id="Polygon-Copy-11" stroke-width="15" transform="translate(821.905989, 821.905989) rotate(-300.000000) translate(-821.905989, -821.905989) "></path>
            <path d="M831.905989,424.679492 L1160.91423,614.632487 C1167.10225,618.205142 1170.91423,624.807683 1170.91423,631.952995 L1170.91423,1011.85898 C1170.91423,1019.0043 1167.10225,1025.60684 1160.91423,1029.17949 L831.905989,1219.13249 C825.717968,1222.70514 818.094011,1222.70514 811.905989,1219.13249 L482.897752,1029.17949 C476.70973,1025.60684 472.897752,1019.0043 472.897752,1011.85898 L472.897752,631.952995 C472.897752,624.807683 476.70973,618.205142 482.897752,614.632487 L811.905989,424.679492 C818.094011,421.106836 825.717968,421.106836 831.905989,424.679492 Z" id="Polygon-Copy-8" stroke-width="10" transform="translate(821.905989, 821.905989) rotate(-270.000000) translate(-821.905989, -821.905989) "></path>
            <path d="M831.905989,473.679492 L1118.47898,639.132487 C1124.667,642.705142 1128.47898,649.307683 1128.47898,656.452995 L1128.47898,987.358984 C1128.47898,994.504296 1124.667,1001.10684 1118.47898,1004.67949 L831.905989,1170.13249 C825.717968,1173.70514 818.094011,1173.70514 811.905989,1170.13249 L525.332996,1004.67949 C519.144975,1001.10684 515.332996,994.504296 515.332996,987.358984 L515.332996,656.452995 C515.332996,649.307683 519.144975,642.705142 525.332996,639.132487 L811.905989,473.679492 C818.094011,470.106836 825.717968,470.106836 831.905989,473.679492 Z" id="Polygon-Copy-12" stroke-width="10" transform="translate(821.905989, 821.905989) rotate(-270.000000) translate(-821.905989, -821.905989) "></path>
            <path d="M831.905989,629.679492 L983.379019,717.132487 C989.567041,720.705142 993.379019,727.307683 993.379019,734.452995 L993.379019,909.358984 C993.379019,916.504296 989.567041,923.106836 983.379019,926.679492 L831.905989,1014.13249 C825.717968,1017.70514 818.094011,1017.70514 811.905989,1014.13249 L660.432959,926.679492 C654.244938,923.106836 650.432959,916.504296 650.432959,909.358984 L650.432959,734.452995 C650.432959,727.307683 654.244938,720.705142 660.432959,717.132487 L811.905989,629.679492 C818.094011,626.106836 825.717968,626.106836 831.905989,629.679492 Z" id="Polygon-Copy-4" stroke-width="5" transform="translate(821.905989, 821.905989) rotate(-300.000000) translate(-821.905989, -821.905989) "></path>
            <path d="M831.905989,677.679492 L941.8098,741.132487 C947.997821,744.705142 951.8098,751.307683 951.8098,758.452995 L951.8098,885.358984 C951.8098,892.504296 947.997821,899.106836 941.8098,902.679492 L831.905989,966.132487 C825.717968,969.705142 818.094011,969.705142 811.905989,966.132487 L702.002179,902.679492 C695.814157,899.106836 692.002179,892.504296 692.002179,885.358984 L692.002179,758.452995 C692.002179,751.307683 695.814157,744.705142 702.002179,741.132487 L811.905989,677.679492 C818.094011,674.106836 825.717968,674.106836 831.905989,677.679492 Z" id="Polygon-Copy-13" stroke-width="5" transform="translate(821.905989, 821.905989) rotate(-300.000000) translate(-821.905989, -821.905989) "></path>
        </g>
    </g>
</svg>