<?xml version="1.0" encoding="UTF-8"?>
<svg width="1416px" height="720px" viewBox="0 0 1416 720" version="1.1" xmlns="http://www.w3.org/2000/svg" xmlns:xlink="http://www.w3.org/1999/xlink">
    <!-- Generator: Sketch 61.2 (89653) - https://sketch.com -->
    <title>undraw_connected_world_wuay 2</title>
    <desc>Created with Sketch.</desc>
    <defs>
        <linearGradient x1="84.5327118%" y1="-32.3346754%" x2="95.6536566%" y2="149.629918%" id="linearGradient-1">
            <stop stop-color="#00D2FF" offset="0%"></stop>
            <stop stop-color="#3A47D5" offset="100%"></stop>
        </linearGradient>
        <linearGradient x1="128.726576%" y1="30.9128119%" x2="154.079752%" y2="73.0966477%" id="linearGradient-2">
            <stop stop-color="#00D2FF" offset="0%"></stop>
            <stop stop-color="#3A47D5" offset="100%"></stop>
        </linearGradient>
        <linearGradient x1="128.726576%" y1="13.4068109%" x2="154.079752%" y2="94.2799636%" id="linearGradient-3">
            <stop stop-color="#00D2FF" offset="0%"></stop>
            <stop stop-color="#3A47D5" offset="100%"></stop>
        </linearGradient>
        <linearGradient x1="128.726576%" y1="40.0651012%" x2="154.079752%" y2="62.0218261%" id="linearGradient-4">
            <stop stop-color="#00D2FF" offset="0%"></stop>
            <stop stop-color="#3A47D5" offset="100%"></stop>
        </linearGradient>
        <linearGradient x1="128.726576%" y1="20.6953836%" x2="154.079752%" y2="85.4603515%" id="linearGradient-5">
            <stop stop-color="#00D2FF" offset="0%"></stop>
            <stop stop-color="#3A47D5" offset="100%"></stop>
        </linearGradient>
        <linearGradient x1="128.726576%" y1="24.2882199%" x2="154.079752%" y2="81.1128032%" id="linearGradient-6">
            <stop stop-color="#00D2FF" offset="0%"></stop>
            <stop stop-color="#3A47D5" offset="100%"></stop>
        </linearGradient>
        <linearGradient x1="128.726576%" y1="24.3511233%" x2="154.079752%" y2="81.0366862%" id="linearGradient-7">
            <stop stop-color="#00D2FF" offset="0%"></stop>
            <stop stop-color="#3A47D5" offset="100%"></stop>
        </linearGradient>
        <linearGradient x1="128.726576%" y1="43.278802%" x2="154.079752%" y2="58.1330545%" id="linearGradient-8">
            <stop stop-color="#00D2FF" offset="0%"></stop>
            <stop stop-color="#3A47D5" offset="100%"></stop>
        </linearGradient>
        <linearGradient x1="128.726576%" y1="-12.0931174%" x2="154.079752%" y2="125.136413%" id="linearGradient-9">
            <stop stop-color="#00D2FF" offset="0%"></stop>
            <stop stop-color="#3A47D5" offset="100%"></stop>
        </linearGradient>
        <linearGradient x1="72.7288133%" y1="-32.3346754%" x2="80.0484202%" y2="149.629918%" id="linearGradient-10">
            <stop stop-color="#00D2FF" offset="0%"></stop>
            <stop stop-color="#3A47D5" offset="100%"></stop>
        </linearGradient>
        <linearGradient x1="128.726576%" y1="-13.7599726%" x2="154.079752%" y2="127.153409%" id="linearGradient-11">
            <stop stop-color="#00D2FF" offset="0%"></stop>
            <stop stop-color="#3A47D5" offset="100%"></stop>
        </linearGradient>
        <linearGradient x1="128.726576%" y1="20.3595169%" x2="154.079752%" y2="85.8667705%" id="linearGradient-12">
            <stop stop-color="#00D2FF" offset="0%"></stop>
            <stop stop-color="#3A47D5" offset="100%"></stop>
        </linearGradient>
        <linearGradient x1="106.677351%" y1="-32.3346754%" x2="124.929775%" y2="149.629918%" id="linearGradient-13">
            <stop stop-color="#00D2FF" offset="0%"></stop>
            <stop stop-color="#3A47D5" offset="100%"></stop>
        </linearGradient>
        <linearGradient x1="128.726576%" y1="28.0367953%" x2="154.079752%" y2="76.576801%" id="linearGradient-14">
            <stop stop-color="#00D2FF" offset="0%"></stop>
            <stop stop-color="#3A47D5" offset="100%"></stop>
        </linearGradient>
        <linearGradient x1="128.726576%" y1="-0.314338479%" x2="154.079752%" y2="110.883381%" id="linearGradient-15">
            <stop stop-color="#00D2FF" offset="0%"></stop>
            <stop stop-color="#3A47D5" offset="100%"></stop>
        </linearGradient>
        <linearGradient x1="128.726576%" y1="48.4252422%" x2="154.079752%" y2="51.9055519%" id="linearGradient-16">
            <stop stop-color="#00D2FF" offset="0%"></stop>
            <stop stop-color="#3A47D5" offset="100%"></stop>
        </linearGradient>
        <linearGradient x1="111.910647%" y1="-32.3346754%" x2="131.848406%" y2="149.629918%" id="linearGradient-17">
            <stop stop-color="#00D2FF" offset="0%"></stop>
            <stop stop-color="#3A47D5" offset="100%"></stop>
        </linearGradient>
        <linearGradient x1="73.5449355%" y1="-32.3346754%" x2="81.1273672%" y2="149.629918%" id="linearGradient-18">
            <stop stop-color="#00D2FF" offset="0%"></stop>
            <stop stop-color="#3A47D5" offset="100%"></stop>
        </linearGradient>
        <linearGradient x1="120.793072%" y1="-32.3346754%" x2="143.591335%" y2="149.629918%" id="linearGradient-19">
            <stop stop-color="#00D2FF" offset="0%"></stop>
            <stop stop-color="#3A47D5" offset="100%"></stop>
        </linearGradient>
        <linearGradient x1="75.5441943%" y1="-32.3346754%" x2="83.7704691%" y2="149.629918%" id="linearGradient-20">
            <stop stop-color="#00D2FF" offset="0%"></stop>
            <stop stop-color="#3A47D5" offset="100%"></stop>
        </linearGradient>
        <linearGradient x1="102.157953%" y1="-32.3346754%" x2="118.954946%" y2="149.629918%" id="linearGradient-21">
            <stop stop-color="#00D2FF" offset="0%"></stop>
            <stop stop-color="#3A47D5" offset="100%"></stop>
        </linearGradient>
        <linearGradient x1="128.726576%" y1="25.3661137%" x2="154.079752%" y2="79.8084867%" id="linearGradient-22">
            <stop stop-color="#00D2FF" offset="0%"></stop>
            <stop stop-color="#3A47D5" offset="100%"></stop>
        </linearGradient>
        <linearGradient x1="104.671233%" y1="-32.3346754%" x2="122.277605%" y2="149.629918%" id="linearGradient-23">
            <stop stop-color="#00D2FF" offset="0%"></stop>
            <stop stop-color="#3A47D5" offset="100%"></stop>
        </linearGradient>
        <linearGradient x1="78.8409687%" y1="-32.3346754%" x2="88.1289396%" y2="149.629918%" id="linearGradient-24">
            <stop stop-color="#00D2FF" offset="0%"></stop>
            <stop stop-color="#3A47D5" offset="100%"></stop>
        </linearGradient>
    </defs>
    <g id="Page-1" stroke="none" stroke-width="1" fill="none" fill-rule="evenodd">
        <g id="Group-21">
            <g id="undraw_connected_world_wuay-2">
                <g id="undraw_connected_world_wuay">
                    <path d="M328.910006,65.9740428 C328.401515,61.9518702 327.37313,58.0127935 325.850648,54.2556237 C325.458091,52.8190329 324.479994,51.6137376 323.15539,50.9342961 C322.279689,50.7064907 321.361619,50.6962053 320.481039,50.9043346 L306.750509,53.0064062 C305.601284,53.0589202 304.500902,53.4867028 303.617729,54.2243003 C301.829393,56.106005 303.59037,59.1360251 303.535623,61.7320392 C303.474057,64.6512289 300.88169,67.0207477 298.070515,67.8046904 C295.200967,68.3847954 292.240959,68.3480758 289.386668,67.6969652 L270.187327,64.711792 C275.841779,62.9056203 280.874774,59.5452297 284.711816,55.0141944 C287.238398,52.0195425 288.582569,46.4286041 284.931101,45.0104719 C283.846174,44.712586 282.714896,44.6217047 281.596364,44.7425752 C272.897721,44.8102474 266.052615,37.543644 257.909236,34.4831858 C247.217713,30.7248058 235.323057,34.2725342 228.433531,43.2746797 L238.661247,43.7680502 C239.623462,43.714919 240.577614,43.9695237 241.385593,44.4950115 C243.627036,46.3375756 240.840348,49.8767369 241.156113,52.7619884 C241.56637,56.5105534 246.540994,57.3109203 250.290943,57.6899742 C254.040892,58.069028 258.798136,61.1173926 256.994337,64.4284652 C238.146669,70.9238459 218.967119,51.7314082 199.173081,54.0939405 C194.163326,54.6918903 189.432747,56.6610009 184.541591,57.8991735 C154.662842,65.4628451 123.773518,45.2821001 93.2507173,49.5560263 C86.4651376,50.7134151 79.7960783,52.4732159 73.3225905,54.8145691 C69.1683866,56.1792881 64.8352838,57.6541021 61.8168697,60.8191259 C58.7984556,63.9841498 57.6496667,69.3969262 60.5091503,72.7064053 C52.6276747,73.3557658 44.6935552,72.6011858 37.0755137,70.4777328 C41.271714,72.8115061 43.8600647,77.250846 43.8251337,82.0541616 C31.5191526,84.0619172 19.5390164,87.7167372 8.20697314,92.9203122 C10.3219622,96.4392267 12.7922705,99.7317118 15.5790846,102.746036 L0,112.759986 C5.26335546,114.086804 7.98463919,121.267595 4.92381092,125.752382 C10.3813105,123.323226 13.7636069,117.039183 19.5994988,115.765138 C23.422788,114.930465 27.3130741,116.495327 30.9400413,117.965347 C34.5670085,119.435368 38.553407,120.8608 42.3080931,119.757522 C46.0627791,118.654244 48.8321939,113.783158 46.4463576,110.679678 C62.4948455,105.994811 79.0806176,103.402185 95.7925576,102.966062 C97.0818688,102.804176 98.3894006,103.052444 99.5297934,103.675673 C101.705288,105.185774 101.132901,108.447464 101.015718,111.094032 C100.898534,113.740599 102.960166,117.21887 105.324306,116.025953 C102.542885,118.439093 104.920636,122.981992 107.58912,125.519581 C110.257604,128.05717 113.473892,131.558648 111.840185,134.859547 C111.413798,135.721063 110.690607,136.410368 110.280349,137.279688 C109.069382,139.845699 110.992093,142.837219 113.259956,144.541266 C115.52782,146.245312 118.305715,147.436255 119.881082,149.795927 C121.456448,152.155599 120.741043,156.285969 117.924028,156.615477 L109.91712,146.443971 C107.181508,149.282113 105.306072,152.838008 104.50831,156.699274 C112.998965,163.643846 114.276085,177.778864 107.167769,186.134282 C103.535235,190.404109 98.3695026,192.998639 93.8609446,196.329104 C89.3523866,199.65957 85.1805284,204.402135 85.1918669,210.009253 C85.2114542,219.696486 84.4203406,228.696322 88.0484784,237.67773 C94.7387978,254.23848 102.463009,270.362061 111.175416,285.953087 C113.463329,290.047136 116.420232,294.534415 121.055079,295.239341 C115.197545,280.972029 109.924602,266.482748 105.236251,251.771497 C108.289893,251.783455 111.818719,252.026034 113.608825,254.501262 C115.091142,256.550901 114.772723,259.337607 115.233316,261.825283 C115.819145,264.235424 116.796026,266.533137 118.125073,268.626965 L146.096492,318.478569 C148.415277,322.611186 151.075063,327.047136 155.506715,328.720731 C158.340105,329.790738 161.618203,329.589165 164.226115,331.129663 C166.27027,332.337152 167.647055,334.480557 169.730956,335.617977 C175.623269,338.834044 183.817134,332.666116 189.323676,336.505927 C190.898159,337.603853 191.899805,339.348061 193.35057,340.605082 C198.436319,345.011629 206.779083,342.063758 212.650039,345.350929 C216.433772,347.469466 218.394719,351.706403 220.412889,355.54601 C225.468189,365.163788 233.647939,374.586312 244.481921,375.352155 C247.885084,375.592719 251.361288,374.94713 254.687858,375.704461 C258.014428,376.461793 261.289082,379.366492 260.755094,382.737869 C259.839638,388.517714 262.693826,394.846564 261.927282,400.648036 C260.531005,411.215593 245.549502,415.859476 244.262649,426.440924 C243.980887,428.757738 244.421906,431.149128 243.87055,433.416901 C243.194782,436.196306 241.108513,438.459258 240.367177,441.221871 C238.962297,446.457248 242.711212,451.66754 246.829603,455.189732 C250.947995,458.711924 255.860494,461.749121 258.112064,466.67964 C260.491925,471.891102 259.32295,477.967635 260.096927,483.644658 C261.786605,496.038355 272.485735,505.226158 283.496602,511.150309 C286.851389,512.955271 290.453474,514.702707 292.62483,517.833929 C295.458914,521.920828 295.17658,527.308573 296.122935,532.191916 C298.440618,544.151389 308.503169,554.005494 308.788879,566.184353 C308.991952,574.84068 304.18267,582.693657 301.309806,590.861353 C295.859597,606.696621 297.574413,624.121823 306.006737,638.589476 C308.155838,642.220265 310.726222,645.643448 312.246503,649.579559 C314.959456,656.603542 314.079172,664.588173 316.580585,671.690328 C319.887677,681.07999 328.974907,688.835578 328.105172,698.75308 C332.23075,707.324874 341.340794,711.53663 350.501404,714.08792 L366.919298,718.660453 C370.062913,719.535983 373.347858,720.418458 376.548887,719.784513 C379.749916,719.150569 382.804837,716.491159 382.7222,713.227357 C374.671095,711.410696 366.361775,709.478874 359.724969,704.570214 C353.088163,699.661553 348.541833,690.920422 351.059948,683.056495 C352.227576,679.410031 354.711675,675.199201 352.349986,672.186205 C350.997756,670.461076 348.52509,670.01036 346.999883,668.436332 C344.620893,665.981328 345.438223,661.857059 347.148496,658.896591 C348.858768,655.936122 351.330794,653.290508 352.020636,649.941453 C352.73385,646.104444 350.988363,642.228106 347.643323,640.220417 C350.687556,639.070527 353.456164,637.293146 355.769524,635.003589 C357.906565,632.561849 358.893701,628.797473 357.212626,626.021744 C362.204767,626.655198 368.098496,626.965436 371.37556,623.144623 C373.992428,620.093548 373.812685,615.532087 372.778684,611.646979 C371.744683,607.761872 369.996978,603.988316 369.942531,599.968205 C381.458505,600.514314 392.999794,600.122762 404.452343,598.797418 C402.796258,593.216984 399.032891,588.501339 393.960233,585.650394 C399.147104,584.772318 403.872442,578.559365 405.511145,573.557906 C407.149847,568.556446 406.731926,563.108588 405.719064,557.943702 C405.330063,556.61395 405.276747,555.208431 405.56389,553.853004 C406.147983,551.990611 407.976541,550.85413 409.668289,549.882097 L435.41404,535.088321 C436.950377,534.318154 438.342987,533.289529 439.531057,532.047365 C442.228452,528.877302 441.82888,524.09192 440.447725,520.164675 C439.06657,516.237431 436.854229,512.544472 436.322228,508.415369 C434.731017,496.066369 447.943404,487.206018 452.402361,475.581501 C454.15223,471.019618 454.508857,466.060935 454.84749,461.186362 C455.211195,455.95089 455.238228,449.869659 451.220427,446.495803 C447.369016,443.261705 441.351231,443.983123 437.321152,440.97488 C433.626276,438.216828 432.351511,432.860311 428.315062,430.632592 C424.649356,428.60951 420.053274,429.896179 415.976317,428.944684 C408.797982,427.269387 404.280631,418.991814 396.949518,418.225372 C392.813173,417.792932 388.131746,419.81615 384.741582,417.405939 C381.754338,415.282186 381.634623,411.013557 381.065993,407.391457 C379.025017,395.862 370.021772,386.82503 358.504978,384.745929 C354.240165,384.061636 349.597967,384.321511 345.969815,381.976574 C342.29601,379.602098 340.611532,375.156574 337.725737,371.868286 C333.074732,366.568601 325.749567,364.685698 318.887596,363.071685 L290.976055,356.506631 C286.021223,355.341196 279.634478,354.723227 276.975577,359.065724 C276.188486,360.719153 275.631269,362.472581 275.319438,364.2772 C273.275509,370.974561 267.148094,375.589001 260.150039,375.700989 C257.810917,371.708855 254.021084,368.774914 249.571631,367.511598 C246.741358,366.722426 243.711892,366.634652 241.012577,365.473603 C238.041476,364.022647 235.798674,361.41159 234.811688,358.254565 C233.824701,355.097539 234.180641,351.673181 235.795787,348.786914 C239.10397,342.893838 238.056111,335.513934 233.23843,330.775845 C228.491762,326.512214 221.625571,325.482043 215.260932,325.908654 C213.593985,322.269503 216.381177,318.163606 219.384686,315.518986 C222.388195,312.874366 226.035376,310.274362 226.689406,306.325109 C227.718289,300.112919 219.796032,295.39461 213.780888,297.246898 C207.765743,299.099186 203.926528,304.944838 201.388676,310.707088 C199.932548,314.013244 198.694616,317.494729 196.397746,320.28251 C194.100875,323.070292 190.402038,325.066354 186.90347,324.17169 C181.95049,322.905136 180.037579,317.017524 178.941386,312.021621 C177.470639,305.31873 175.99133,298.522849 176.299499,291.667263 C176.607669,284.811677 178.917593,277.772563 183.970184,273.131581 C192.203618,265.568877 204.83424,266.310247 215.945928,267.516633 C213.320702,264.557254 213.969505,259.569781 216.778367,256.784274 C219.788698,254.10826 223.925241,253.091496 227.832233,254.067229 C231.180544,254.764575 234.196893,256.568999 236.395656,259.189992 C239.553291,263.041788 240.451216,268.24245 242.837937,272.614541 C245.224658,276.986632 250.591395,280.715708 254.984062,278.370104 C258.778168,276.344121 259.380364,271.080267 258.436078,266.882362 C257.491792,262.684456 255.486226,258.602433 255.828275,254.313158 C256.480958,246.128725 264.960546,241.202279 272.44328,237.83161 C279.926014,234.460941 288.494216,229.927835 289.679688,221.803529 C289.72022,220.212833 290.020151,218.639439 290.567635,217.145483 C291.397357,215.825964 292.550707,214.740786 293.917972,213.993179 C315.756545,199.553275 337.95832,184.937102 362.918784,177.046864 C364.217343,176.636351 364.369794,177.092583 365.693222,176.770973 C367.545424,175.699918 366.31815,172.736998 364.542323,171.543413 C362.766496,170.349829 360.392883,169.434491 359.942349,167.342062 C359.611162,165.803934 360.516941,164.293629 360.752246,162.737919 C361.330418,158.915104 356.759614,155.385558 353.209988,156.91388 C351.204981,154.257153 355.172309,151.170166 358.380253,150.286492 C368.013183,147.634001 377.90157,146.017821 387.877383,145.465414 C389.028548,145.282283 390.20796,145.482999 391.233872,146.03663 C392.90938,147.197856 392.695309,149.861284 391.507862,151.518768 C390.320416,153.176251 388.473332,154.216923 386.993588,155.619407 C383.697976,158.831575 382.465477,163.613181 383.797391,168.019382 C389.005237,170.669845 394.667063,173.398316 400.435005,172.464579 C406.202947,171.530843 411.32244,165.046725 408.611284,159.868166 C406.08658,155.045726 398.502861,153.958042 397.198721,148.672752 C395.671799,142.484613 404.427107,136.980958 402.454903,130.920182 C401.591022,128.265362 398.946631,126.702938 396.917503,124.786246 C392.012465,119.976123 390.566295,112.64446 393.277115,106.330535 C386.570431,107.511007 379.708195,105.362451 374.870466,100.56744 C370.46778,96.1219027 366.955383,89.1091686 360.703489,89.3080857 C354.96635,89.4905785 350.024776,96.1873822 344.660245,94.1442939 C343.340479,93.6416625 341.948979,92.6186408 340.670226,93.2180478 C339.821132,93.7696729 339.272399,94.6810076 339.181892,95.6898715 C337.818623,102.211114 340.163815,109.641267 336.611467,115.276398 C332.745832,121.408523 323.804465,122.258681 319.118124,127.788334 C316.574215,130.790027 315.588604,134.834802 313.250313,137.999431 C310.912022,141.16406 305.949078,143.176111 303.142939,140.418264 C305.983047,134.576555 304.413233,127.546402 299.35832,123.469479 C296.753018,121.768832 293.944659,120.40211 290.9991,119.401361 C287.707694,118.007423 284.576599,116.261454 281.660421,114.193903 C280.199593,113.312257 279.012603,112.041514 278.232117,110.523701 C277.614745,108.623163 277.697913,106.564269 278.466565,104.719777 C281.366596,96.4010136 288.634013,90.3743085 297.342138,89.0666914 C301.078393,88.5581222 305.426891,88.7373192 307.899489,85.8890429 C309.207793,84.3819658 309.89426,82.103421 311.793286,81.4913348 C313.007987,81.2471573 314.26904,81.4025337 315.388239,81.9342747 L329.333903,86.845482 C330.889888,87.5483035 332.602544,87.8317119 334.301843,87.6675711 C336.049623,87.4319761 337.319853,85.8873713 337.214276,84.1260401 C336.768696,81.8089131 333.205146,80.6969874 333.529405,78.3598134 C333.711025,77.6024251 334.117997,76.917973 334.696569,76.3968585 C344.886715,65.5451375 359.389173,59.8151736 374.240406,60.7729716 C376.00058,63.6653458 373.216805,67.0904218 370.900511,69.5595626 C368.584217,72.0287034 366.722826,76.4404525 369.524025,78.3410738 C370.671977,78.9272527 371.948905,79.214979 373.237181,79.1777487 C376.670597,79.6427254 380.007324,80.6553356 383.120384,82.1770446 C387.939398,84.275312 392.66593,86.5711118 397.299979,89.0644443 C396.890647,86.0074044 396.499977,82.7868428 397.65809,79.9284204 C398.816203,77.0699981 402.107668,74.8279518 404.982628,75.9411441 C407.753323,77.0139701 409.174292,80.6845942 412.126158,81.0208848 C416.063772,81.4694765 417.617251,75.6492782 415.972478,72.0417639 C414.327705,68.4342496 411.071658,65.4135584 410.799872,61.4577689 C410.616509,58.7890437 411.631549,55.4792377 409.500919,53.863237 C408.742722,53.3780769 407.882071,53.0761348 406.987078,52.9813066 L353.78718,43.1864158 C350.628062,42.6047678 346.063682,43.0505676 345.92359,46.2613645 C345.845377,48.0536069 347.445476,49.826674 346.736782,51.474502 C345.980392,53.233242 343.495557,53.0724441 341.685715,53.6944993 C338.877534,54.6596817 337.468393,57.9959355 337.738096,60.9544702 C338.2319,63.8942223 339.369824,66.6882065 341.070247,69.136016 C337.609901,67.6880993 332.370352,67.4219458 328.910006,65.9740428 Z" id="Path" fill="url(#linearGradient-1)"></path>
                    <path d="M286.867717,20.8375356 C280.075646,18.6563991 272.602906,20.8280314 268.164394,26.2728564 C267.298625,27.3790143 266.571532,28.9038863 267.296311,30.1016616 C268.335465,31.8188413 270.983222,31.1405881 272.935312,30.5263286 C275.804529,29.5316108 278.927471,29.4593189 281.842304,30.3201438 C283.67532,30.9308394 285.315214,32.0101569 287.156235,32.5977718 C288.98246,33.3389795 291.081177,33.0413754 292.61246,31.8240632 C293.87596,30.5736125 293.95524,28.6295955 293.957473,26.8783171 C294.13496,25.6915463 293.751186,24.4904164 292.912965,23.6092291 C292.176035,23.1950469 291.347941,22.957371 290.497397,22.9159239 C288.592543,22.5737809 286.870425,21.597369 285.628015,20.1550657" id="Path" fill="url(#linearGradient-2)"></path>
                    <path d="M306.4654,15.0076458 C304.989952,14.9098934 303.579301,15.7547819 302.743202,17.2370019 C301.907102,18.7192219 301.766455,20.6244423 302.372085,22.2641911 C304.600223,23.0034517 306.928067,23.1881086 309.216245,22.8071061 C311.549977,22.3663161 313.436944,20.2615423 314,17.4711757 C311.306012,18.06761 308.526007,17.4216713 306.202302,15.6593679" id="Path" fill="url(#linearGradient-3)"></path>
                    <path d="M372.008854,6.81865501 C365.785967,8.15539804 359.741137,10.2301361 354,12.9997475 C359.556546,15.1577409 363.064468,20.7314798 362.641955,26.7309566 C362.399063,27.8528424 362.42719,29.0173343 362.723955,30.1259138 C363.38535,31.7459975 365.30194,32.3538919 366.986892,32.7697243 C370.014147,33.7005866 373.175248,34.1082489 376.336864,33.9755167 C379.549855,33.8056528 382.460806,32.0083608 384.076217,29.197052 C384.534412,27.883683 385.071903,26.5999449 385.685663,25.3530679 C389.724481,19.1382217 401.722749,26.6528934 406.05906,20.6461748 C407.586586,18.5302181 407.44687,15.3451341 409.43817,13.6684396 C410.468287,12.9379396 411.661995,12.4776626 412.911886,12.3290234 C421.63223,10.5785102 430.440767,9.31097445 439.298071,8.53208991 C443.494868,8.16309002 448.965081,6.64051713 449,2.38435564 C433.192374,-0.752393395 416.801911,1.47544335 402.37672,8.72151995 C397.179474,11.3516517 390.305578,16.8842088 385.299327,13.3972915 C383.424878,12.0917244 383.517689,8.57616751 380.937815,7.10809156 C378.300197,5.60716197 374.808744,6.21762037 372.008854,6.81865501 Z" id="Path" fill="url(#linearGradient-4)"></path>
                    <path d="M423.644261,16.4303295 L431.131341,17.8749214 C428.343284,17.7509345 425.637076,18.8385236 423.704085,20.8598376 C421.771094,22.8811516 420.798542,25.6404129 421.034892,28.4327011 C428.046238,30.7846485 435.690199,28.4959375 443.07587,28.8085778 C450.461541,29.121218 459.054819,34.4187888 457.794043,41.7328968 C457.412827,43.9444358 456.140529,46.1544978 456.802139,48.2983284 C457.265861,49.8009463 458.585581,50.8671452 459.330487,52.2510443 C460.882742,55.1348261 459.642123,58.7823823 457.682093,61.4038369 C455.722063,64.0252914 453.087526,66.1169218 451.367073,68.9027993 C447.088077,75.8316901 449.519198,84.7893714 452.068179,92.5301887 C452.805204,95.4550185 454.166173,98.1841729 456.056947,100.528875 C459.833364,104.560773 465.987541,104.911432 471.499093,104.992201 C475.510593,105.051006 480.105936,104.851984 482.642755,101.731038 C485.954687,97.656485 483.6388,91.2993207 485.819312,86.5172828 C487.799648,82.1742214 492.845122,80.3110026 497.4164,78.9895467 C505.791034,76.568619 514.325613,74.5104394 522.242953,70.8536657 C532.07429,66.3128946 541.262334,59.2365935 552.068116,58.6520939 C555.099655,58.4881222 558.206317,58.847383 561.126451,58.0133428 C564.046584,57.1793027 566.820501,54.6441692 566.599433,51.6037459 C566.410534,49.005923 564.221714,47.0982991 562.511407,45.1399384 C560.8011,43.1815777 559.457968,40.1701879 561.029849,38.0982094 L589.353216,32.7859919 C587.345532,27.2918465 585.781496,20.0559499 590.39494,16.4797399 C592.0595,15.1894236 594.28821,14.6736991 595.705471,13.11378 C598.121025,10.4550866 596.90635,5.87523033 594.117969,3.61415794 C591.329589,1.35308555 587.559369,0.828198385 583.987622,0.530286866 C571.568462,-0.50540149 559.077991,0.178971726 546.634793,0.863864619 C522.310981,2.2026795 497.987165,3.54148981 473.663344,4.88029557 C468.766756,5.14980266 463.113332,4.73806826 458.622381,6.41551634 C454.820468,7.83564239 452.117249,10.4424366 447.768959,11.3583121 C439.74182,13.0491213 430.908067,11.904971 423.644261,16.4303295 Z" id="Path" fill="url(#linearGradient-5)"></path>
                    <path d="M558.077963,75.45936 C557.309436,75.3388101 556.52356,75.5154944 555.882686,75.952912 C555.458926,76.415444 555.206858,77.0073462 555.168063,77.6309835 C554.681166,80.3833308 555.261144,83.2164188 556.791846,85.5628766 C558.379816,87.907078 561.126062,89.2122893 563.964149,88.9716646 C567.360101,88.5423855 569.862765,85.6703562 572.984816,84.2689056 C577.796667,82.1108683 598.231736,78.7466606 584.095851,71.1759658 C579.224323,68.5669304 576.07648,70.8700916 572.236924,72.5883235 C567.868399,74.8037517 562.97316,75.7963675 558.077963,75.45936 Z" id="Path" fill="url(#linearGradient-6)"></path>
                    <path d="M680.364116,12.7853649 C678.698634,13.4519326 677.305351,14.6400307 676.401829,16.1641384 C675.537236,17.7714725 676.111278,19.7606286 677.70694,20.6865815 C678.32901,20.9075398 678.988449,21.0100147 679.649782,20.9884936 L686.421662,21.186681 C689.298502,21.2708784 692.892001,21.8710955 693.665055,24.5870022 C694.239083,26.6036457 692.954306,29.195053 694.504482,30.6361868 C695.169766,31.1408851 695.969725,31.446541 696.808138,31.5163885 C699.038874,32.0777557 701.368373,32.151404 703.631415,31.7321097 C708.558638,30.4374027 705.969636,27.4913734 707.521487,24.8681531 C709.895905,20.8544475 709.484856,23.2841318 713.668662,20.9837881 C716.758425,19.2849632 720.751054,16.2032606 718.172157,11.873418 C713.687502,4.34392322 686.981834,9.55071296 680.364116,12.7853649 Z" id="Path" fill="url(#linearGradient-7)"></path>
                    <path d="M811.393346,8.68975148 L807.443453,9.17368641 C798.536342,10.2649783 789.578757,11.3663171 781,13.8220941 C784.713482,15.1701028 788.609507,16.0478349 792.580822,16.4311275 C794.766944,16.5295131 796.938511,16.8129252 799.067897,17.2777583 C802.857012,18.3133903 806.675049,20.9877219 810.335784,19.6177729 C812.605541,18.7683463 813.34622,16.5985285 815.226414,15.4485766 C816.524705,14.6545291 821.4489,13.3693211 821.999379,12.5678693 C826.44964,6.08864588 814.814159,8.27064248 811.393346,8.68975148 Z" id="Path" fill="url(#linearGradient-8)"></path>
                    <path d="M828.61711,25.6861092 C823.501505,28.6545363 818.755251,32.2615955 814.484222,36.4268262 C812.684835,38.1821771 810.846919,40.3653553 811.010126,42.9225816 C811.226989,46.3213881 814.715793,48.2928632 817.73838,49.6208905 L829.981219,55 C831.466433,52.8276224 830.107082,49.8288722 828.572108,47.6940589 C827.037134,45.5592456 825.213064,43.0893195 825.891236,40.5203693 C826.665154,37.5887451 830.10959,36.5897447 832.997942,36.0847042 C837.704016,35.2618293 850.398997,35.3278221 848.873621,27.4572413 C847.076284,18.1833088 833.341154,22.9459021 828.61711,25.6861092 Z" id="Path" fill="url(#linearGradient-9)"></path>
                    <path d="M826.827144,537.410834 C825.672467,540.865529 825.56292,544.935199 827.560276,547.951471 C829.801527,551.336061 834.286956,552.597704 838.16758,551.739397 C842.032,550.676833 845.476485,548.388126 848.015828,545.195674 C850.338178,542.521038 852.248692,539.493204 853.680377,536.218343 C855.678535,531.114975 857.087788,525.786034 857.878983,520.341768 L861.644877,499.907906 C862.486406,495.341067 862.453831,481.33991 854.331848,485.901642 C852.113048,487.147826 846.975773,496.987095 844.650525,499.777234 C840.459665,504.80596 839.905185,509.68531 837.698967,515.777442 C834.935557,523.408214 829.381691,529.767874 826.827144,537.410834 Z" id="Path" fill="url(#linearGradient-10)"></path>
                    <path d="M1262.13126,639.790723 C1259.359,638.720636 1256.66857,637.453761 1254.08097,636 C1251.48622,643.05594 1250.10674,650.492509 1250,658 L1268.96902,647.382629 C1271.82257,645.785499 1275.05679,643.566219 1274.99543,640.323674 C1275.04786,639.507991 1274.64561,638.72914 1273.94671,638.293114 C1273.52517,638.125768 1273.06618,638.072496 1272.61693,638.138776 C1269.80415,638.370642 1267.23952,639.739654 1264.5861,640.691648 C1261.93269,641.643642 1258.83002,642.146841 1256.39548,640.73405" id="Path" fill="url(#linearGradient-11)"></path>
                    <path d="M1360.48496,646.71795 C1358.41944,647.292054 1356.40145,648.031512 1354.44975,648.929453 C1350.13098,651.173148 1347.19302,655.434786 1343.30662,658.389973 C1339.58758,661.217902 1335.11065,662.770555 1330.71567,664.280192 C1329.42282,665.447067 1330.01689,667.797145 1331.42028,668.822213 C1332.92915,669.698668 1334.6597,670.095842 1336.39077,669.962979 C1340.9567,670.06589 1345.76707,670.110784 1349.76639,667.859002 C1352.01984,666.366456 1354.12853,664.657546 1356.06372,662.755553 C1360.73972,658.771827 1366.35513,656.143385 1371.91375,653.603289 C1373.93692,652.823297 1375.80768,651.681224 1377.43821,650.230683 C1380.93115,646.716934 1381.17676,641.296197 1376.14018,640.100291 C1372.07065,639.133905 1364.35987,645.437974 1360.48496,646.71795 Z" id="Path" fill="url(#linearGradient-12)"></path>
                    <path d="M1404.46983,617.075027 C1404.92338,612.198296 1403.17058,607.377859 1399.71552,604 C1399.66458,608.815553 1399.52218,613.945708 1396.88486,617.927781 C1395.00573,620.765033 1392.05945,622.681673 1390.00071,625.384277 C1387.94196,628.086882 1387.02811,632.370759 1389.44297,634.742239 C1390.98651,635.948451 1392.8666,636.613444 1394.80605,636.639182 C1399.61306,637.220282 1405.17702,637.544157 1408.54851,633.977727 C1410.38871,632.031121 1411.28382,629.148027 1413.5282,627.716869 C1414.36428,627.356332 1415.11089,626.807651 1415.71297,626.111292 C1416.63968,624.598424 1415.16721,622.604627 1413.50973,622.05952 C1411.85224,621.514414 1410.02572,621.77067 1408.35994,621.252959 C1406.69415,620.735249 1405.16589,618.811655 1406.02058,617.254729" id="Path" fill="url(#linearGradient-13)"></path>
                    <path d="M1327.51396,446.733346 C1324.9875,447.329955 1322.371,447.479743 1319.78983,447.175532 C1315.50267,446.410257 1312.16593,443.273148 1308.70473,440.700434 C1300.47684,434.617758 1290.47453,431.224599 1280.13549,431.008679 C1270.7303,430.836236 1261.23725,433.310758 1252,431.584292 C1252.60351,434.843491 1255.47591,437.287967 1258.54067,438.740912 C1261.60543,440.193857 1264.9879,440.925026 1268.06736,442.34839 C1272.9992,444.650527 1276.91095,448.60179 1279.08522,453.477535 C1280.07705,455.725363 1280.70106,458.171542 1282.20347,460.134271 C1285.27424,464.146037 1291.09481,465.026962 1296.23169,464.698882 C1302.92901,464.271135 1309.92395,462.400928 1316.15468,464.82362 C1320.92118,466.676968 1324.33264,470.727616 1328.31251,473.877261 C1332.29239,477.026905 1337.89802,479.364527 1342.468,477.091948 C1332.72509,474.029325 1326.16499,465.171503 1326.27624,455.228938 C1330.75844,455.629128 1343.66835,455.47425 1342.97296,448.07965 C1342.38375,441.812831 1331.36266,446.056947 1327.51396,446.733346 Z" id="Path" fill="url(#linearGradient-14)"></path>
                    <path d="M1270.68861,498.838624 C1271.47747,494.522854 1275.79222,490.711706 1274.44819,486.53467 C1273.5187,483.646012 1270.16095,482.219848 1267.12033,482.148625 C1264.07971,482.077401 1261.09264,482.980853 1258.05239,483.065925 C1256.07348,482.961137 1254.08975,482.989242 1252.11463,483.150049 C1246.07952,484.139603 1242.35962,490.449374 1236.67211,492.692914 C1233.21381,494.057096 1229.3287,493.796309 1225.73199,494.739384 C1217.56749,496.88014 1212.40154,504.575775 1206.69425,510.780404 C1197.4727,520.760808 1185.45919,527.749249 1172.20988,530.840497 C1167.56773,531.912684 1162.57746,532.598644 1158.8876,535.605994 C1154.00131,539.588453 1152.79852,546.415732 1151.7114,552.615727 C1148.70787,569.738531 1144.11773,586.546342 1138,602.822941 L1157.38646,605.291914 C1161.07228,605.76133 1164.89147,606.220679 1168.4432,605.131688 C1171.0237,604.160672 1173.46798,602.861957 1175.71562,601.267637 C1184.34975,595.920569 1194.01313,592.441206 1204.08048,591.054681 C1209.15721,590.359452 1214.47984,590.23206 1219.24401,592.114361 C1224.00818,593.996661 1228.09538,598.265274 1228.49466,603.361142 C1232.69266,602.058402 1237.26873,603.168531 1240.39806,606.248837 C1243.43382,609.334191 1245.42166,613.292526 1246.08107,617.56527 C1246.59173,620.210866 1247.10267,623.380813 1249.5638,624.490672 C1251.57168,625.396142 1253.87497,624.420912 1256.07147,624.24559 C1263.5249,623.650706 1269.7098,632.319687 1277.03576,630.82688 C1284.89272,629.225869 1286.82166,617.488586 1294.48668,615.137465 C1298.88899,613.787132 1305.06401,615.429135 1307.17205,611.344461 C1309.03014,607.744192 1305.32303,603.589529 1305.70533,599.558192 C1306.17605,594.594283 1312.04606,592.487335 1316.5713,590.369331 C1332.17238,583.067364 1339.57562,562.122492 1332.01571,546.675055 C1327.53649,537.522483 1318.72309,530.317771 1317.09542,520.263103 C1315.84312,512.527222 1318.90032,503.506365 1313.95568,497.41723 C1311.44032,494.319658 1307.18145,492.609861 1305.68468,488.913773 C1304.74252,486.58722 1305.1212,483.947533 1304.61418,481.489848 C1304.10716,479.032163 1301.95756,476.461382 1299.52449,477.09841 C1292.46177,478.947565 1290.20808,500.710585 1286.42673,505.998402 C1280.67871,514.036236 1268.87848,508.741672 1270.68861,498.838624 Z" id="Path" fill="url(#linearGradient-15)"></path>
                    <path d="M1139.03276,454.804343 C1136.62077,454.172368 1133.98701,453.549806 1131.67595,454.452936 C1129.36488,455.356066 1128.01523,458.526752 1129.87008,460.10003 C1144.38098,459.571815 1158.98072,459.047279 1173.36828,460.888718 C1189.94507,463.010344 1206.35047,468.265739 1223,466.719622 C1213.48933,464.09774 1203.82169,462.001456 1194.04728,460.441656 L1177.7478,457.532129 C1173.37527,456.676342 1168.95713,456.038412 1164.51209,455.621042 C1155.21333,454.903423 1148.17535,457.199839 1139.03276,454.804343 Z" id="Path" fill="url(#linearGradient-16)"></path>
                    <path d="M1152.93166,404.438809 C1151.72415,404.338519 1150.22862,404.252117 1149.60392,405.284823 C1149.00709,406.271519 1149.69024,407.575152 1149.3693,408.681603 C1148.93084,410.193153 1146.94068,410.579301 1145.37267,410.37351 C1143.80465,410.167718 1142.10882,409.674864 1140.71961,410.426896 C1139.27242,411.410212 1138.65123,413.225523 1139.19479,414.882859 C1139.76277,416.484867 1140.68136,417.941405 1141.8842,419.147271 C1143.93869,421.722438 1146.27962,424.058018 1148.86228,426.109412 C1153.86139,429.779935 1160.6341,431.548768 1163.78272,436.877046 C1164.2269,437.909752 1164.90961,438.823734 1165.77545,439.544806 C1167.28698,440.497174 1169.25827,439.772648 1170.88567,439.032988 L1176.59033,436.440246 C1177.61792,436.072056 1178.53527,435.451475 1179.25714,434.636165 C1180.56045,432.877159 1179.75993,430.376179 1178.66601,428.481243 C1177.5721,426.586307 1176.17183,424.625219 1176.40659,422.452628 C1176.82515,418.578953 1181.83235,417.097237 1183.89123,413.782933 C1185.96652,410.442192 1184.6155,406.137768 1184.85471,402.217582 C1185.13462,397.633214 1188.03062,391.67002 1183.37121,388.244786 C1179.41131,385.333767 1175.62642,388.023537 1172.78336,391.237362 C1166.78791,398.014638 1163.953,405.354291 1152.93166,404.438809 Z" id="Path" fill="url(#linearGradient-17)"></path>
                    <path d="M1188.06038,334.463784 C1190.0216,338.205355 1194.11015,340.438186 1196.24878,344.08198 C1198.56687,348.031517 1198.30276,353.134486 1200.81756,356.962678 C1203.39767,360.890314 1208.58995,362.975544 1210.03693,367.442818 C1211.61665,372.319975 1208.03239,378.24783 1210.8895,382.509282 C1211.96679,383.917612 1213.5873,384.81144 1215.35703,384.973451 C1217.12675,385.135461 1218.88359,384.550814 1220.2004,383.361654 C1222.70537,380.644047 1222.58032,376.432419 1219.9185,373.86711 C1218.22688,372.330325 1215.79783,371.666229 1214.38543,369.87119 C1213.64985,368.835275 1213.15985,367.646521 1212.95234,366.394509 C1212.18242,362.783116 1212.30575,359.039313 1213.31169,355.485999 C1213.68964,354.584192 1213.7856,353.589721 1213.58704,352.632683 C1212.95119,350.791111 1210.44856,350.660454 1208.69211,349.806129 C1204.70276,347.865797 1204.79957,342.256041 1205.49657,337.887582 C1205.03252,340.795911 1194.63525,335.849377 1193.5465,334.20198 C1191.38364,330.929346 1192.56078,324.616431 1192.13261,321 C1187.46322,323.241925 1185.6625,329.889052 1188.06038,334.463784 Z" id="Path" fill="url(#linearGradient-18)"></path>
                    <path d="M1082.43412,393.450022 C1080.51872,391.321206 1077.63371,389.09417 1075.06579,390.37804 C1073.10663,391.35753 1072.5677,394.048762 1073.33558,396.088756 C1074.27102,398.070282 1075.71131,399.775021 1077.51397,401.034345 C1082.8654,405.416134 1088.62796,409.370881 1093.29655,414.464458 C1101.65128,423.579836 1106.0771,435.879538 1115.16325,444.276922 C1116.98963,446.223786 1119.40799,447.5232 1122.04855,447.976473 C1124.69573,448.220969 1127.66837,446.538681 1127.97266,443.916527 C1128.2233,441.756546 1126.70662,439.823231 1125.22443,438.222595 C1121.6949,434.411002 1117.83089,430.902567 1114.49856,426.91986 C1112.95956,425.390036 1111.99241,423.384652 1111.75694,421.235162 C1111.74004,419.090716 1113.70972,416.846217 1115.80245,417.377277 C1113.25728,416.731403 1111.36971,412.521637 1107.63419,411.730288 C1104.51236,411.068975 1103.75713,412.987734 1100.04185,411.405743 C1092.95586,408.388431 1087.39643,398.965278 1082.43412,393.450022 Z" id="Path" fill="url(#linearGradient-19)"></path>
                    <path d="M1248.95534,185.502122 C1246.95393,184.896204 1244.98623,184.180214 1243.06091,183.357305 C1237.88052,181.773334 1231.0263,185.651995 1231.71682,191.116383 C1232.17561,194.74703 1235.49277,197.194829 1237.32466,200.344087 C1240.04137,205.014336 1239.31711,210.937861 1237.8895,216.168023 C1237.53901,217.787438 1236.87244,219.31854 1235.92943,220.670304 C1234.61102,222.097438 1233.03492,223.252336 1231.28737,224.0718 C1224.2915,228.067881 1218.12199,233.406844 1213.11993,239.793534 C1212.5761,240.383375 1212.19727,241.110802 1212.02279,241.900228 C1211.77573,243.74519 1213.59634,245.089159 1214.62566,246.627942 C1216.91212,250.046148 1215.2595,254.645747 1215.48554,258.77559 C1215.4149,259.962861 1215.95237,261.102838 1216.90623,261.788927 C1218.28434,262.502005 1219.91736,261.29076 1220.66432,259.912262 C1223.14317,255.337644 1221.27584,247.994616 1225.92605,245.788944 C1226.80569,245.371715 1227.87209,245.195819 1228.45892,244.408704 C1229.38994,243.160049 1228.4917,241.311205 1228.96352,239.818721 C1229.67191,237.577862 1232.68071,237.477266 1234.98977,237.576655 C1238.96736,237.746086 1242.94345,237.206883 1246.73898,235.983328 C1248.22788,235.622702 1249.5802,234.825027 1250.62838,233.689133 C1252.01848,231.92194 1251.89528,229.409211 1251.61752,227.162454 C1250.22624,215.961355 1246.74306,205.135041 1241.35599,195.267859 C1245.44085,195.799389 1249.88501,196.259693 1253.40994,194.091212 C1255.38376,192.876936 1257.7507,189.245699 1256.77175,186.774125 C1255.22363,182.865627 1252.42697,186.155498 1248.95534,185.502122 Z" id="Path" fill="url(#linearGradient-20)"></path>
                    <path d="M719.89604,246.044822 C720.390838,248.694769 720.877212,251.48504 720.007553,254.036929 C719.137895,256.588817 716.40214,258.721055 713.818818,257.939143 C711.813946,257.332318 710.655846,255.319264 709.232219,253.784512 C701.315262,245.24957 683.453373,250.191013 678.562616,239.631868 C676.566591,235.322391 677.923073,230.159458 676.561615,225.610264 C674.795131,220.202422 669.590337,216.671554 663.905054,217.024209 C661.383934,217.387816 658.929984,218.119318 656.621806,219.195282 C641.158716,225.379482 624.924958,229.43408 608.367155,231.247526 C605.220437,231.438979 602.107817,232.004535 599.095243,232.93221 C592.296475,235.393567 587.651086,241.687826 584.345155,248.110744 C581.039224,254.533662 578.598616,261.487152 574.166359,267.193507 C569.508225,273.190704 562.980805,277.390266 556.89197,281.932694 C554.546401,283.442257 552.593294,285.486414 551.193357,287.896965 C549.873337,290.603169 549.947802,293.750898 550.050265,296.759338 L551.294688,333.298273 C551.454755,337.998081 551.655741,342.865884 553.762162,347.071749 C556.392524,352.323744 561.58872,355.763567 565.193506,360.403088 C568.87225,365.171001 570.788554,371.061641 570.618154,377.078233 C570.541426,379.497121 570.300733,382.358132 572.187235,383.877298 C573.334839,384.620319 574.677691,385.005978 576.045241,384.985294 L625.540908,389.030594 C634.247551,389.742189 643.896532,390.912199 649.580942,397.536258 C652.263714,400.662507 654.418825,405.158234 658.528019,405.493682 C660.290603,405.637544 662.005643,404.915019 663.768582,404.775594 C668.216379,404.423826 672.123715,407.794924 674.589634,411.50807 C678.321829,417.167551 680.015954,423.926145 679.393822,430.674041 C678.989492,434.909729 677.674392,439.027567 677.390872,443.273069 C676.312049,459.42717 690.025461,473.461964 690.291275,489.649781 C690.447634,499.171616 685.921133,508.068236 681.50804,516.51032 C688.630567,527.285252 682.798277,541.633374 685.633918,554.229815 C688.32416,566.180393 698.302379,575.536029 700.788786,587.530545 C701.92704,593.021617 701.99289,599.778948 706.841705,602.607127 C708.969332,603.642702 711.327959,604.114303 713.690838,603.976591 C727.943364,604.14518 742.033392,600.941909 754.808228,594.628837 C760.803897,591.65772 767.017617,587.222307 768.064721,580.620654 C768.909149,575.296843 766.205563,569.341897 768.956993,564.704581 C772.199759,559.239045 780.50702,559.67232 785.278235,555.470185 C793.018632,548.653099 786.982793,535.651926 790.118967,525.833029 C792.938006,517.00704 802.642055,512.318121 807.452281,504.396687 C809.345273,500.989961 810.703706,497.313399 811.480181,493.495289 C813.683798,484.369865 815.055458,475.063933 815.578361,465.69147 C815.706547,459.99695 816.126996,454.312736 816.838051,448.661208 C822.024228,416.486115 853.877339,394.941111 864.219064,364.03157 C865.20671,361.079687 865.670525,357.147813 863.040777,355.477503 C861.480958,354.734366 859.712653,354.54955 858.03255,354.954063 L835.216166,357.82659 C832.382188,358.183381 829.37822,358.516855 826.775624,357.341399 C824.173028,356.165944 822.307762,352.878109 823.688248,350.380995 C827.563484,343.371343 819.592004,334.513421 816.050573,327.329852 C806.512978,307.986902 795.155319,289.593315 782.130912,272.397384 C781.297169,271.51278 780.775066,270.380783 780.643792,269.173089 L787.119346,269.3884 C784.933444,261.555673 781.326081,252.98436 773.705772,250.119116 C769.411758,248.504559 764.656464,249.062845 760.074976,249.312838 C746.952392,250.02872 732.883952,248.050226 719.89604,246.044822 Z" id="Path" fill="url(#linearGradient-21)"></path>
                    <path d="M760.844678,70.1032919 C764.274384,73.7482271 768.117664,77.6127492 773.08005,78.2480484 C781.844915,79.3702618 788.146795,70.2997034 792.159083,62.4209527 C792.467918,66.5974615 796.042655,69.7690901 800.222949,69.5754904 C802.386467,69.2112007 804.451387,68.403293 806.288104,67.2024752 C823.654018,57.7050796 843.105204,52.6729908 862.894752,52.5581403 C862.501082,49.4508877 864.516053,46.5479486 867.563083,45.8325442 C871.586671,45.0342546 875.211074,48.5155725 877.152033,52.1319098 C879.092992,55.7482471 880.303259,59.9398811 883.387013,62.6467523 C886.470767,65.3536236 892.44114,65.2357031 893.659194,61.3158653 C894.828578,57.5526418 890.911087,54.3434061 887.656419,52.1247433 C884.401752,49.9060806 880.971216,45.7996682 883.162977,42.5254843 C899.790502,38.8420733 916.521168,35.1447108 933.535475,34.412582 C936.432201,34.5134975 939.318628,34.015888 942.014644,32.9508039 C944.609373,31.6765405 946.67173,28.7840075 945.973985,25.9770639 C938.379542,27.7636566 930.459871,24.7741761 925.93625,18.4133127 C949.544749,16.4636395 974.654901,14.8018122 995.577455,25.9189824 C998.08817,31.3129421 985.291877,35.8006784 988.715592,40.6657467 C989.807525,42.2173923 991.995555,42.3993618 993.8916,42.4345813 C1008.43093,42.7047289 1023.05417,42.969631 1037.42938,40.7728902 C1042.68269,39.970118 1047.98885,38.8368415 1053.2631,39.4878361 C1062.04802,40.5720915 1069.56173,46.4380738 1078.20444,48.3506065 C1081.7221,49.1290452 1085.66633,49.1554087 1088.6316,47.1078703 C1091.59687,45.060332 1092.87148,40.3980651 1090.44152,37.7363048 C1098.57896,29.7548794 1112.0846,31.7330279 1122.81987,35.5541422 C1133.55514,39.3752565 1143.72524,45.5374365 1155.08749,46.3891753 C1163.23525,46.9999503 1171.49622,44.8066701 1179.54719,46.2007477 C1184.60645,47.0768064 1189.31501,49.3292307 1194.25971,50.7130627 C1203.61178,53.330339 1213.5047,52.7778498 1223.21475,52.9038088 C1247.98982,53.2378355 1272.4942,58.1106941 1295.51474,67.2811433 C1298.50939,68.2568716 1301.25322,69.8792057 1303.55215,72.0333867 C1305.69414,74.3289191 1306.78655,77.8960309 1305.34691,80.6869111 L1281.55908,77.2085633 C1283.80036,81.6240214 1289.59867,82.3764645 1294.30748,83.8997029 C1299.01629,85.4229413 1303.89859,90.6269475 1301.06873,94.6898022 C1295.9667,93.0640663 1291.34323,98.1689266 1288.76595,102.865813 C1286.18868,107.5627 1283.04796,113.187773 1277.70121,113.473889 C1272.91333,113.730112 1267.12283,109.650213 1264.002,113.292996 C1268.31355,118.736248 1272.0056,124.64334 1275.00981,130.904935 C1278.09305,137.333161 1280.28909,145.432943 1276.12177,151.216538 C1275.46615,152.249007 1274.4717,153.020753 1273.30927,153.399191 C1269.90584,154.261434 1267.6945,150.094706 1265.25371,147.569245 C1262.17808,144.386782 1257.5268,143.485382 1253.36172,141.992853 C1249.19664,140.500324 1244.80908,137.564261 1244.4832,133.148898 C1244.28044,130.401766 1245.72976,127.848062 1246.7973,125.309073 C1248.59159,121.029465 1249.37631,116.393629 1249.09055,111.761392 C1248.85686,108.034736 1247.81269,104.158197 1245.13833,101.554382 C1242.46397,98.9505671 1237.84668,98.1245514 1234.97566,100.509379 C1233.63602,101.622137 1232.56241,103.402076 1230.82273,103.468632 C1227.74886,103.586321 1225.38876,98.2231796 1222.91571,100.053924 C1223.20587,102.004607 1222.80171,103.995297 1221.77388,105.677989 C1214.39409,112.10112 1203.05699,109.383771 1193.54303,111.652763 C1189.01899,112.948468 1184.68758,114.841479 1180.66306,117.281855 C1179.15755,117.926097 1177.87647,119.002215 1176.98152,120.374397 C1175.79393,122.683976 1177.10328,125.641934 1179.19656,127.177585 C1181.41644,128.540097 1183.91101,129.392197 1186.50005,129.672335 C1198.09873,131.870684 1209.86659,135.27381 1219.02375,142.729355 C1228.18091,150.1849 1234.18595,162.509342 1231.28821,173.961676 L1208.41509,152.08934 C1209.28384,161.273059 1209.77685,170.482075 1209.89411,179.716387 C1210.04202,181.519419 1209.79457,183.333021 1209.16907,185.03037 C1207.53845,188.634677 1203.11898,189.847562 1199.24623,190.643222 C1197.06752,191.057464 1195.16937,192.383335 1194.02954,194.287118 C1192.88972,196.190902 1192.61677,198.491279 1193.2794,200.609254 C1194.65537,205.097604 1198.08618,208.596933 1201.22759,212.083756 C1204.369,215.570578 1207.4604,219.533496 1207.87165,224.210246 C1208.28289,228.886996 1204.75717,234.15843 1200.07717,233.833266 C1196.52937,233.586744 1193.89724,230.408354 1192.38399,227.187606 C1190.87074,223.966857 1189.97032,220.379022 1187.6966,217.642395 C1180.81467,209.359268 1165.35695,212.908109 1159.19181,204.077642 C1155.9966,207.704847 1154.90568,212.729007 1156.3086,217.35613 C1159.17673,215.559269 1163.10315,217.228781 1165.25806,219.839654 C1167.41296,222.450526 1168.42955,225.797847 1170.12185,228.730273 C1172.40542,232.687251 1176.03966,236.195164 1176.35841,240.753557 C1176.2739,242.477239 1176.30293,244.20462 1176.44532,245.924483 C1177.01152,248.686452 1179.34426,250.669642 1180.96163,252.978254 C1184.72504,258.350033 1184.53908,265.729566 1182.1134,271.824495 C1179.68772,277.919425 1175.32981,283.012323 1171.01336,287.95001 C1163.47414,296.57435 1155.78103,305.14813 1146.84302,312.310189 C1144.29262,314.353872 1141.57076,316.363384 1139.98233,319.220561 C1138.3939,322.077738 1138.31244,326.088207 1140.75336,328.261622 C1139.00682,328.34916 1135.87462,329.208828 1134.12808,329.296366 C1133.51404,322.284743 1133.38059,315.239265 1133.72865,308.20939 C1126.83627,304.897425 1119.41515,313.767021 1120.30455,321.366619 C1121.19396,328.966216 1126.68646,335.064742 1130.59694,341.639732 C1133.4566,346.447836 1135.58184,352.054216 1134.62713,357.567405 C1133.67241,363.080593 1128.75482,368.166556 1123.18483,367.680309 C1114.32511,366.906898 1110.61921,354.178298 1101.84583,352.721561 C1101.07204,352.539755 1100.25981,352.620454 1099.53685,352.950971 C1098.23449,353.66626 1098.00812,355.410202 1097.93499,356.895101 C1097.57605,364.183078 1097.26528,371.760753 1100.1081,378.480109 C1104.26696,388.310127 1115.01088,396.566183 1112.75712,407 C1100.61613,401.352133 1094.30369,387.72652 1091.43763,374.638422 C1088.57156,361.550324 1088.09389,347.810319 1082.95628,335.437401 C1079.05511,340.441399 1070.85528,336.30474 1067.29087,331.055173 C1063.91164,326.078302 1061.83108,320.321139 1058.55253,315.277262 C1055.27398,310.233385 1050.25153,305.716915 1044.2453,305.439573 C1037.94807,305.148744 1032.48666,309.473408 1027.68377,313.559615 C1023.73437,316.919701 1019.67952,320.412014 1017.37097,325.056787 C1014.01155,331.815764 1014.89033,339.783864 1014.72844,347.331061 C1014.55339,355.490274 1012.82552,364.098919 1007.26873,370.072085 C1001.71195,376.045252 991.455341,378.125762 985.326212,372.742429 C982.126383,369.931943 980.577079,365.732911 979.197069,361.702319 C972.544991,342.273283 967.004952,322.480582 962.603907,302.420523 C961.574028,306.999039 957.556663,312.900295 953.718842,310.203288 C952.857683,309.478268 952.160007,308.578676 951.671883,307.563913 C944.513079,295.421482 931.255739,288.138301 917.860853,283.77136 C904.465967,279.404419 890.372847,277.367426 877.126506,272.568055 C869.703353,269.877456 862.613312,266.343099 855.995573,262.03437 C852.558762,267.087586 852.168774,273.620247 854.979948,279.04702 C857.918288,284.253724 864.567468,287.266262 870.259239,285.446321 C873.200533,284.505832 875.684442,282.462422 878.602905,281.453184 C881.521368,280.443945 885.438533,280.939538 886.714707,283.753444 C887.936247,286.446813 886.089894,289.705043 887.005794,292.517245 C888.400766,296.800382 894.855779,297.130368 897.112957,301.027998 C898.792385,303.927943 897.410537,307.77884 895.012629,310.118884 C892.614722,312.458928 889.415396,313.742361 886.488275,315.371299 C876.990677,320.656643 870.236748,329.679134 861.936416,336.698816 C853.636084,343.718498 841.92527,348.843564 832.033185,344.340827 C834.391176,332.391891 820.168352,323.619316 817.55184,311.724401 C816.690615,307.809291 817.137068,303.650384 815.907536,299.835046 C814.127389,294.31104 809.230201,290.512951 805.212754,286.326753 C795.368449,275.957585 790.128399,262.047651 790.682425,247.755377 C790.899518,242.839381 791.802008,237.843312 790.682901,233.051653 C789.563795,228.259994 785.599607,223.622197 780.687307,223.839359 C769.467695,224.335292 755.333392,225.170477 749.446951,215.599012 C747.346065,212.182915 746.431813,207.179653 749.469305,204.562431 C751.612068,202.716155 754.77503,202.890072 757.58899,203.1671 L782.868394,205.655761 C788.78088,206.237829 795.172138,206.718189 800.245766,203.624885 C805.319395,200.531581 807.51784,192.320595 802.819856,188.681328 C799.38721,186.022211 793.237156,186.166399 792.239325,181.938538 C791.408297,178.417395 795.302766,174.422227 793.19939,171.479569 C791.691215,169.369617 788.300514,169.954982 786.245862,171.536711 C784.191211,173.118439 782.700462,175.431588 780.400972,176.629186 C776.367188,178.730092 771.547397,176.730635 767.207523,175.371749 C762.867649,174.012864 757.049579,173.897464 754.944568,177.931298 C752.590389,182.442646 757.032711,188.35408 754.696339,192.874638 C751.607399,198.851387 741.146632,195.448983 736.808474,200.589935 C731.830485,206.489133 740.195853,215.285675 738.517064,222.821973 C734.157168,224.982871 728.983334,224.691972 724.892737,222.055946 C720.863045,219.31302 718.665909,214.575578 719.173874,209.724992 C719.589422,206.334795 721.355574,202.874131 720.172195,199.6704 C719.215411,197.080128 716.616638,195.538074 714.201372,194.20235 L689.635478,180.617201 C687.354707,184.851357 690.238113,190.10057 693.844246,193.280826 C697.450379,196.461083 701.967212,198.856333 704.336148,203.041727 C707.446835,209.061144 705.335603,216.463722 699.518686,219.933118 C698.808031,220.424018 697.918388,220.579322 697.083625,220.358204 C696.291779,219.892548 695.722075,219.125874 695.50437,218.232938 C691.169942,207.132498 684.662282,196.187924 674.258096,190.389233 C663.853911,184.590543 648.904167,185.782773 642.081555,195.550963 C640.461035,197.871101 639.373418,200.515749 637.961728,202.968727 C630.461629,216.001059 614.382677,222.172354 599.360247,221.769244 C597.890662,221.850583 596.428748,221.506796 595.149164,220.778958 C592.721318,219.10089 592.830654,215.540086 593.202323,212.610753 L594.779209,200.179331 C595.095864,197.683014 595.554705,194.92377 597.528992,193.365476 C600.311979,191.168871 604.326595,192.555087 607.870701,192.504009 C613.370973,192.246322 618.123778,188.575537 619.766847,183.316129 C621.225958,178.032163 619.643152,172.374016 615.654712,168.616247 C614.030326,167.089398 611.850042,165.171457 612.708013,163.113141 C613.401034,161.960599 614.568184,161.174058 615.89593,160.964809 C622.26207,159.114704 628.988769,158.629779 635.248772,156.446798 C641.508775,154.263818 647.579621,149.797514 649.06212,143.331397 C649.516441,141.349829 649.723283,138.949415 651.501864,137.966975 C652.394295,137.589896 653.352671,137.39394 654.321379,137.39048 C661.356101,136.388913 666.462665,130.177973 666.089891,123.07684 C669.089985,120.978945 673.293199,122.522157 676.19557,124.753504 C679.097941,126.984852 681.660336,129.93285 685.191877,130.894716 C691.773203,132.687298 698.133326,126.8558 704.953991,126.828769 C707.822285,126.817406 710.791543,127.83234 713.489986,126.859165 C716.225541,125.872598 717.859158,123.147429 719.958682,121.134129 C722.058206,119.120829 725.742104,117.892848 727.680775,120.061686 L726.029896,107.824114 C732.756254,109.524647 739.888766,108.234162 745.594345,104.28432 L724.258067,97.0696978 C723.515154,96.88408 722.829707,96.5173077 722.262883,96.0021053 C720.711687,94.3305091 722.252427,91.7256313 723.513803,89.825456 C726.531337,85.2797336 727.037883,77.7918303 722.075632,75.5287243 C718.688553,73.984 714.80074,75.8382196 711.549735,77.6522877 L695.976935,86.3419581 C695.482056,89.3043033 699.101912,90.9831886 701.34504,92.9785858 C704.122912,95.4496818 705.097343,99.3753995 703.797804,102.860109 C702.498264,106.344818 699.192054,108.67176 695.475657,108.717313 C697.552918,111.419976 698.289868,114.9211 697.478547,118.232699 L687.000777,118.986832 C685.824845,119.223597 684.603073,118.984953 683.602411,118.323043 C682.48178,117.327021 682.633756,115.581634 682.374023,114.104406 C681.747141,110.53897 678.258567,108.040036 674.698218,107.399287 C671.13787,106.758538 667.49555,107.57984 663.970013,108.3908 C662.472997,108.929914 660.829038,108.891947 659.358467,108.284297 C658.515213,107.736085 657.874449,106.92671 657.534046,105.9798 C655.988405,102.229302 657.433137,97.8209147 659.915562,94.6135728 C662.397988,91.4062309 665.796272,89.0615683 668.848291,86.3914425 C676.14689,79.9826969 681.509279,71.6591253 684.329699,62.360991 C690.097736,59.9424561 696.06928,56.6563916 701.83725,54.2378022 C710.72995,49.7320451 720.702387,47.7984101 730.633138,48.6543386 L750.166996,49.027733 C755.950336,49.1382826 761.890118,49.2799371 767.237842,51.4864195 C772.585567,53.6929019 777.284476,58.4652142 777.653681,64.2421872 C777.880061,65.5716813 777.406837,66.9241906 776.401169,67.8219562 C775.645949,68.2344168 774.790547,68.4273722 773.931541,68.3790369 C768.537882,68.5687315 766.238215,69.9136654 760.844678,70.1032919 Z" id="Path" fill="url(#linearGradient-22)"></path>
                    <path d="M604.724408,131.629593 C606.320646,130.11957 606.937936,127.844315 606.323558,125.735323 C602.437225,124.236583 598.036782,125.066971 594.964934,127.878757 C593.777643,129.078899 592.754424,130.430718 591.921901,131.89904 C589.288394,136.192776 586.959082,141.321543 588.485292,146.121161 C588.736573,147.178546 589.403529,148.090175 590.335545,148.65018 C591.019552,148.924542 591.757005,149.03998 592.492199,148.987774 C595.393346,148.984006 598.291636,148.805736 601.171348,148.453932 C602.939818,148.23785 604.993864,147.738766 605.677316,146.094513 C606.575722,143.933128 604.401231,141.487067 605.035139,139.233986 C605.452186,138.226443 606.084183,137.321965 606.88704,136.583651 C607.694583,135.829901 608.099314,134.739819 607.979195,133.642093 C607.723372,132.584921 606.103563,131.98518 605.52047,132.903671" id="Path" fill="url(#linearGradient-23)"></path>
                    <path d="M618.529144,111.591005 C616.042146,111.023123 613.478575,110.863028 610.939678,111.117042 C610.378166,111.100411 609.821638,111.226187 609.322505,111.482524 C608.838879,111.837212 608.488153,112.342303 608.325937,112.917712 C607.21398,116.467126 609.030948,120.27051 612.500186,121.655496 C613.411988,121.863967 614.285383,122.213009 615.088694,122.689961 C617.23522,124.346186 615.866825,127.731515 616.27317,130.402944 C616.729455,133.402724 619.649286,135.920714 619.113962,138.907546 C618.692224,141.260662 616.165003,143.12393 616.571861,145.479686 C616.99802,147.94698 620.146289,148.688373 622.655772,148.885953 C624.11014,149.139219 625.607132,148.968598 626.96617,148.394671 C628.328365,147.468367 629.297197,146.073049 629.685639,144.478075 C630.71302,141.436923 631.14473,138.228122 630.957404,135.025345 C630.946345,133.568662 630.578451,132.136608 629.88557,130.853155 C629.129881,129.83638 628.292206,128.882478 627.380845,128.000902 C622.572904,122.439166 627.635365,114.143149 618.529144,111.591005 Z" id="Path" fill="url(#linearGradient-24)"></path>
                </g>
            </g>
        </g>
    </g>
</svg>