<?xml version="1.0" encoding="UTF-8"?>
<svg width="85px" height="85px" viewBox="0 0 85 85" version="1.1" xmlns="http://www.w3.org/2000/svg" xmlns:xlink="http://www.w3.org/1999/xlink">
    <!-- Generator: Sketch 61.2 (89653) - https://sketch.com -->
    <title>Shape</title>
    <desc>Created with Sketch.</desc>
    <g id="Page-1" stroke="none" stroke-width="1" fill="none" fill-rule="evenodd">
        <g id="LANDING-PAGE----Copy-3" transform="translate(-855.000000, -4252.000000)" fill="#182848" fill-rule="nonzero">
            <g id="PAST-WORK" transform="translate(0.000000, 2849.000000)">
                <g id="Group-7" transform="translate(220.000000, 1374.000000)">
                    <g id="Group-10" transform="translate(606.000000, 0.000000)">
                        <g id="dribbble" transform="translate(29.000000, 29.000000)">
                            <path d="M42.5,85 C19.071875,85 0,65.928125 0,42.5 C0,19.071875 19.071875,0 42.5,0 C65.928125,0 85,19.071875 85,42.5 C85,65.928125 65.928125,85 42.5,85 Z M78.3416667,48.3154167 C77.1020833,47.9258333 67.1145833,44.9402083 55.7316667,46.7641667 C60.4775,59.8116667 62.4147917,70.4366667 62.7866667,72.6466667 C70.9325,67.139375 76.7266667,58.4091667 78.3522917,48.3154167 L78.3416667,48.3154167 Z M56.684375,75.96875 C56.1425,72.78125 54.028125,61.68875 48.928125,48.45 L48.694375,48.5208333 C28.188125,55.6572917 20.856875,69.859375 20.219375,71.1875 C26.3464583,75.9970833 34.1027083,78.85875 42.4964583,78.85875 C47.525625,78.85875 52.306875,77.8316667 56.663125,75.9758333 L56.684375,75.96875 Z M15.5302083,66.83125 C16.351875,65.4145833 26.3145833,48.928125 45.039375,42.871875 C45.5175,42.7125 45.995625,42.574375 46.47375,42.446875 C45.5529167,40.375 44.56125,38.31375 43.5270833,36.284375 C25.39375,41.703125 7.81291667,41.4729167 6.21916667,41.4375 L6.205,42.5425 C6.205,51.8677083 9.73958333,60.381875 15.53375,66.820625 L15.5302083,66.83125 Z M6.959375,35.115625 C8.58854167,35.1439583 23.545,35.2077083 40.52375,30.695625 C34.51,20.006875 28.0216667,11.0110417 27.0654167,9.700625 C16.9079167,14.481875 9.32166667,23.831875 6.96291667,35.094375 L6.959375,35.115625 Z M34,7.2675 C34.99875,8.61333333 41.596875,17.5879167 47.53625,28.5175 C60.445625,23.683125 65.9175,16.3341667 66.565625,15.40625 C60.1552083,9.70416667 51.7260417,6.2475 42.5,6.2475 C39.578125,6.2475 36.7270833,6.60166667 34,7.256875 L34,7.2675 Z M70.603125,19.603125 C69.8310417,20.6302083 63.75,28.4325 50.330625,33.9114583 C51.180625,35.646875 51.9952083,37.4 52.7389583,39.174375 C53.0222917,39.811875 53.2702083,40.449375 53.518125,41.0514583 C65.5952083,39.5285417 77.6014583,41.9722917 78.805625,42.2202083 C78.7347917,33.649375 75.6889583,25.786875 70.624375,19.624375 L70.603125,19.603125 Z" id="Shape"></path>
                        </g>
                    </g>
                </g>
            </g>
        </g>
    </g>
</svg>