<?xml version="1.0" encoding="UTF-8"?>
<svg width="86px" height="84px" viewBox="0 0 86 84" version="1.1" xmlns="http://www.w3.org/2000/svg" xmlns:xlink="http://www.w3.org/1999/xlink">
    <!-- Generator: Sketch 61.2 (89653) - https://sketch.com -->
    <title>Path</title>
    <desc>Created with Sketch.</desc>
    <g id="Page-1" stroke="none" stroke-width="1" fill="none" fill-rule="evenodd">
        <g id="LANDING-PAGE----Copy-3" transform="translate(-248.000000, -4252.000000)" fill="#182848" fill-rule="nonzero">
            <g id="PAST-WORK" transform="translate(0.000000, 2849.000000)">
                <g id="Group-7" transform="translate(220.000000, 1374.000000)">
                    <g id="github" transform="translate(28.000000, 29.000000)">
                        <path d="M43,0 C19.2425,0 0,19.2829666 0,43.0663688 C0,62.098115 12.3195,78.2372367 29.40125,83.9255862 C31.55125,84.3311279 32.3395833,82.9996593 32.3395833,81.8548117 C32.3395833,80.8319854 32.30375,78.122393 32.2858333,74.533529 C20.3246667,77.1318666 17.802,68.7554578 17.802,68.7554578 C15.8455,63.7848811 13.01825,62.4570014 13.01825,62.4570014 C9.12316667,59.7868865 13.31925,59.8407195 13.31925,59.8407195 C17.6371667,60.1421841 19.9054167,64.2765555 19.9054167,64.2765555 C23.7395833,70.862121 29.971,68.9600231 32.4291667,67.8582418 C32.8161667,65.0732833 33.9234167,63.1747742 35.1525,62.098115 C25.6029167,61.0214558 15.566,57.317748 15.566,40.816151 C15.566,36.1147391 17.23225,32.2746546 19.9914167,29.2600087 C19.5076667,28.1725829 18.0564167,23.7941688 20.3676667,17.8617765 C20.3676667,17.8617765 23.9689167,16.7061622 32.1926667,22.2760793 C35.6326667,21.3178526 39.2876667,20.8441225 42.9426667,20.8225893 C46.5976667,20.8441225 50.2526667,21.3178526 53.6926667,22.2760793 C61.8626667,16.7061622 65.4639167,17.8617765 65.4639167,17.8617765 C67.7751667,23.7941688 66.3239167,28.1725829 65.8939167,29.2600087 C68.6351667,32.2746546 70.3014167,36.1147391 70.3014167,40.816151 C70.3014167,57.3608144 60.2501667,61.0035114 50.6826667,62.0622263 C52.1876667,63.3542174 53.5851667,65.9956214 53.5851667,70.0295046 C53.5851667,75.7932203 53.5314167,80.4228549 53.5314167,81.8225119 C53.5314167,82.9530041 54.2839167,84.2988281 56.4876667,83.8681644 C73.69125,78.2192924 86,62.0694041 86,43.0663688 C86,19.2829666 66.74675,0 43,0" id="Path"></path>
                    </g>
                </g>
            </g>
        </g>
    </g>
</svg>