<svg width="150" height="131" viewBox="0 0 150 131" fill="none" xmlns="http://www.w3.org/2000/svg">
<g id="smiley-face--total">
<g id="base-smiley">
<circle cx="75" cy="67" r="64" fill="url(#paint0_radial)"/>
<circle cx="75" cy="67" r="60.5" stroke="url(#paint1_radial)" stroke-opacity="0.1" stroke-width="7"/>
</g>
<g id="faces">
<g id="mouth">
<g id="mouth-wow" filter="url(#filter0_d)">
<circle cx="75" cy="97" r="10" fill="url(#paint2_radial)"/>
</g>
<g id="lips-kiss" filter="url(#filter1_d)">
<path fill-rule="evenodd" clip-rule="evenodd" d="M80.2875 81C78.5732 81.4592 76.5914 81.8342 74.4185 82.1027C76.9287 82.5723 79.0581 83.3292 80.5617 84.2719C83.2694 85.362 84.9512 86.8861 84.9512 88.5727C84.9512 89.8727 83.9521 91.0762 82.2541 92.0587C81.9823 92.2832 81.6803 92.502 81.3504 92.7141C79.842 94.027 77.6521 95.2887 75.0228 96.3262C76.5152 97.0023 77.8386 97.748 78.942 98.5256C79.4731 98.7441 79.9698 98.9758 80.4281 99.2188C83.2139 100.312 84.9512 101.858 84.9512 103.573C84.9512 105.259 83.2694 106.783 80.5617 107.874C78.9752 108.868 76.6921 109.656 74 110.118C76.1064 110.401 78.0206 110.786 79.6695 111.25C85.6202 110.316 89.9512 107.456 89.9512 104.073C89.9512 100.888 86.1129 98.1664 80.6984 97.0788C80.861 96.771 80.9512 96.4306 80.9512 96.0727C80.9512 95.7148 80.861 95.3744 80.6984 95.0666C86.1129 93.979 89.9512 91.2577 89.9512 88.0727C89.9512 84.8077 85.9177 82.03 80.2875 81Z" fill="url(#paint3_radial)"/>
</g>
<g id="bottom-row-teeth">
<mask id="path-5-inside-1" fill="white">
<path fill-rule="evenodd" clip-rule="evenodd" d="M32 74C34.9744 95.822 53.0929 112.609 75 112.609C96.9071 112.609 115.026 95.822 118 74C104.933 76.7403 90.3632 78.2704 75 78.2704C59.6367 78.2704 45.0668 76.7403 32 74Z"/>
</mask>
<path fill-rule="evenodd" clip-rule="evenodd" d="M32 74C34.9744 95.822 53.0929 112.609 75 112.609C96.9071 112.609 115.026 95.822 118 74C104.933 76.7403 90.3632 78.2704 75 78.2704C59.6367 78.2704 45.0668 76.7403 32 74Z" fill="url(#paint4_radial)"/>
<path d="M32 74L32.6158 71.0639L28.4531 70.1909L29.0275 74.4052L32 74ZM118 74L120.973 74.4052L121.547 70.1909L117.384 71.0639L118 74ZM75 109.609C54.6912 109.609 37.7578 94.0295 34.9725 73.5948L29.0275 74.4052C32.191 97.6145 51.4946 115.609 75 115.609V109.609ZM115.027 73.5948C112.242 94.0295 95.3088 109.609 75 109.609V115.609C98.5054 115.609 117.809 97.6145 120.973 74.4052L115.027 73.5948ZM117.384 71.0639C104.531 73.7593 90.1683 75.2704 75 75.2704V81.2704C90.5581 81.2704 105.335 79.7213 118.616 76.9361L117.384 71.0639ZM75 75.2704C59.8316 75.2704 45.4686 73.7593 32.6158 71.0639L31.3842 76.9361C44.665 79.7213 59.4419 81.2704 75 81.2704V75.2704Z" fill="#683510" mask="url(#path-5-inside-1)"/>
</g>
<g id="top-row-teeth">
<mask id="path-7-inside-2" fill="white">
<path fill-rule="evenodd" clip-rule="evenodd" d="M112.634 90.1085C101.713 94.1391 88.9986 96.4495 75.4279 96.4495C61.4075 96.4495 48.3012 93.9834 37.1417 89.7021C34.5476 84.9392 32.7684 79.6376 32 74C45.0668 76.7403 59.6367 78.2704 75 78.2704C90.3632 78.2704 104.933 76.7403 118 74C117.21 79.7985 115.35 85.2415 112.634 90.1085Z"/>
</mask>
<path fill-rule="evenodd" clip-rule="evenodd" d="M112.634 90.1085C101.713 94.1391 88.9986 96.4495 75.4279 96.4495C61.4075 96.4495 48.3012 93.9834 37.1417 89.7021C34.5476 84.9392 32.7684 79.6376 32 74C45.0668 76.7403 59.6367 78.2704 75 78.2704C90.3632 78.2704 104.933 76.7403 118 74C117.21 79.7985 115.35 85.2415 112.634 90.1085Z" fill="url(#paint5_radial)"/>
<path d="M112.634 90.1085L113.673 92.9229L114.713 92.5389L115.254 91.5703L112.634 90.1085ZM37.1417 89.7021L34.5072 91.137L35.0356 92.1073L36.0672 92.503L37.1417 89.7021ZM32 74L32.6158 71.0639L28.4531 70.1909L29.0275 74.4052L32 74ZM118 74L120.973 74.4052L121.547 70.1909L117.384 71.0639L118 74ZM111.595 87.294C101.026 91.1947 88.6654 93.4495 75.4279 93.4495V99.4495C89.3317 99.4495 102.4 97.0835 113.673 92.9229L111.595 87.294ZM75.4279 93.4495C61.751 93.4495 49.0112 91.0426 38.2163 86.9011L36.0672 92.503C47.5912 96.9242 61.064 99.4495 75.4279 99.4495V93.4495ZM29.0275 74.4052C29.8458 80.4086 31.7412 86.0586 34.5072 91.137L39.7763 88.2671C37.3541 83.8198 35.6911 78.8667 34.9725 73.5948L29.0275 74.4052ZM75 75.2704C59.8316 75.2704 45.4686 73.7593 32.6158 71.0639L31.3842 76.9361C44.665 79.7213 59.4419 81.2704 75 81.2704V75.2704ZM117.384 71.0639C104.531 73.7593 90.1683 75.2704 75 75.2704V81.2704C90.5581 81.2704 105.335 79.7213 118.616 76.9361L117.384 71.0639ZM115.254 91.5703C118.15 86.3807 120.131 80.5799 120.973 74.4052L115.027 73.5948C114.288 79.0171 112.55 84.1022 110.014 88.6466L115.254 91.5703Z" fill="#683510" mask="url(#path-7-inside-2)"/>
</g>
<g id="teeth-top-row--no-bottom">
<g id="bottom-row-teeth_2">
<mask id="path-9-inside-3" fill="white">
<path fill-rule="evenodd" clip-rule="evenodd" d="M32 74C34.9744 95.822 53.0929 112.609 75 112.609C96.9071 112.609 115.026 95.822 118 74C104.933 76.7403 90.3632 78.2704 75 78.2704C59.6367 78.2704 45.0668 76.7403 32 74Z"/>
</mask>
<path fill-rule="evenodd" clip-rule="evenodd" d="M32 74C34.9744 95.822 53.0929 112.609 75 112.609C96.9071 112.609 115.026 95.822 118 74C104.933 76.7403 90.3632 78.2704 75 78.2704C59.6367 78.2704 45.0668 76.7403 32 74Z" fill="#9F6923"/>
<path d="M32 74L32.2053 73.0213L30.8177 72.7303L31.0092 74.1351L32 74ZM118 74L118.991 74.1351L119.182 72.7303L117.795 73.0213L118 74ZM75 111.609C53.6257 111.609 35.9022 95.2245 32.9908 73.865L31.0092 74.1351C34.0466 96.4195 52.5601 113.609 75 113.609V111.609ZM117.009 73.8649C114.098 95.2245 96.3743 111.609 75 111.609V113.609C97.4399 113.609 115.953 96.4195 118.991 74.1351L117.009 73.8649ZM117.795 73.0213C104.799 75.7467 90.2983 77.2704 75 77.2704V79.2704C90.4282 79.2704 105.067 77.734 118.205 74.9787L117.795 73.0213ZM75 77.2704C59.7017 77.2704 45.2007 75.7467 32.2053 73.0213L31.7947 74.9787C44.9328 77.734 59.5718 79.2704 75 79.2704V77.2704Z" fill="#683510" mask="url(#path-9-inside-3)"/>
</g>
<g id="top-row-teeth_2">
<mask id="path-11-inside-4" fill="white">
<path fill-rule="evenodd" clip-rule="evenodd" d="M112.634 90.1085C101.713 94.1391 88.9986 96.4495 75.4279 96.4495C61.4075 96.4495 48.3012 93.9834 37.1417 89.7021C34.5476 84.9392 32.7684 79.6376 32 74C45.0668 76.7403 59.6367 78.2704 75 78.2704C90.3632 78.2704 104.933 76.7403 118 74C117.21 79.7985 115.35 85.2415 112.634 90.1085Z"/>
</mask>
<path fill-rule="evenodd" clip-rule="evenodd" d="M112.634 90.1085C101.713 94.1391 88.9986 96.4495 75.4279 96.4495C61.4075 96.4495 48.3012 93.9834 37.1417 89.7021C34.5476 84.9392 32.7684 79.6376 32 74C45.0668 76.7403 59.6367 78.2704 75 78.2704C90.3632 78.2704 104.933 76.7403 118 74C117.21 79.7985 115.35 85.2415 112.634 90.1085Z" fill="url(#paint6_radial)"/>
<path d="M112.634 90.1085L113.673 92.9229L114.713 92.5389L115.254 91.5703L112.634 90.1085ZM37.1417 89.7021L34.5072 91.137L35.0356 92.1073L36.0672 92.503L37.1417 89.7021ZM32 74L32.6158 71.0639L28.4531 70.1909L29.0275 74.4052L32 74ZM118 74L120.973 74.4052L121.547 70.1909L117.384 71.0639L118 74ZM111.596 87.294C101.026 91.1947 88.6654 93.4495 75.4279 93.4495V99.4495C89.3317 99.4495 102.4 97.0835 113.673 92.9229L111.596 87.294ZM75.4279 93.4495C61.751 93.4495 49.0112 91.0426 38.2163 86.9011L36.0672 92.503C47.5912 96.9242 61.064 99.4495 75.4279 99.4495V93.4495ZM29.0275 74.4052C29.8458 80.4086 31.7412 86.0586 34.5072 91.137L39.7763 88.2671C37.3541 83.8198 35.6911 78.8667 34.9725 73.5948L29.0275 74.4052ZM75 75.2704C59.8316 75.2704 45.4686 73.7593 32.6158 71.0639L31.3842 76.9361C44.665 79.7213 59.4419 81.2704 75 81.2704V75.2704ZM117.384 71.0639C104.531 73.7593 90.1683 75.2704 75 75.2704V81.2704C90.5581 81.2704 105.335 79.7213 118.616 76.9361L117.384 71.0639ZM115.254 91.5703C118.15 86.3807 120.131 80.5799 120.973 74.4052L115.027 73.5948C114.288 79.0171 112.55 84.1022 110.014 88.6466L115.254 91.5703Z" fill="#683510" mask="url(#path-11-inside-4)"/>
</g>
</g>
</g>
<g id="eyes">
<g id="eyes--left-wink">
<g id="eye-left" filter="url(#filter2_d)">
<path fill-rule="evenodd" clip-rule="evenodd" d="M66.4942 61.2159C67.4564 60.2529 68 59.1594 68 58C68 54.134 61.9558 51 54.5 51C47.0442 51 41 54.134 41 58C41 59.1594 41.5436 60.2529 42.5058 61.2159C44.7522 59.5558 49.2801 59 54.5 59C59.7199 59 64.2478 59.5558 66.4942 61.2159Z" fill="url(#paint7_radial)"/>
</g>
<g id="eye-right" filter="url(#filter3_d)">
<ellipse cx="93.5" cy="58.5" rx="7.5" ry="11.5" fill="url(#paint8_radial)"/>
</g>
</g>
<g id="left-eye" filter="url(#filter4_d)">
<path fill-rule="evenodd" clip-rule="evenodd" d="M64.5808 65.301C66.0916 63.3958 67 60.7775 67 57.5C67 50.0442 62.299 42 56.5 42C50.701 42 46 50.0442 46 57.5C46 60.7775 46.9084 63.3958 48.4192 65.301C49.5309 59.901 52.7286 56 56.5 56C60.2714 56 63.4691 59.901 64.5808 65.301Z" fill="url(#paint9_radial)"/>
</g>
<g id="right-eye" filter="url(#filter5_d)">
<path fill-rule="evenodd" clip-rule="evenodd" d="M101.581 65.301C103.092 63.3958 104 60.7775 104 57.5C104 50.0442 99.299 42 93.5 42C87.701 42 83 50.0442 83 57.5C83 60.7775 83.9084 63.3958 85.4192 65.301C86.5309 59.901 89.7286 56 93.5 56C97.2714 56 100.469 59.901 101.581 65.301Z" fill="url(#paint10_radial)"/>
</g>
<g id="right-eye-dizzy" filter="url(#filter6_d)">
<path d="M82 46.492C82 44.7309 86.4831 41.3331 90.9009 39.7463C92.8974 39.0293 93.6915 38.9311 96.6675 39.0347C101.294 39.1961 103.812 40.3089 107.222 43.7004C110.541 47.0014 111.779 49.6588 111.96 53.869C112.075 56.5563 111.976 57.2647 111.197 59.3139C109.625 63.4476 107.071 66.2134 103.13 68.0504C100.403 69.3218 96.527 69.316 93.7305 68.036C85.1913 64.1272 83.5582 53.7242 90.7208 48.8628C92.2089 47.853 92.7677 47.6831 94.9695 47.5726C98.1028 47.4154 99.8391 48.1448 102.131 50.5821C104.637 53.246 104.98 55.83 103.194 58.5804C101.138 61.7451 97.3857 62.3066 94.7369 59.8456C92.3987 57.6732 94.8291 54.8061 97.4571 56.6369C98.9425 57.6718 100.233 56.4962 99.7425 54.5545C99.4157 53.2587 97.0509 51.6379 95.4879 51.6379C93.0168 51.6379 90.2701 54.6427 90.2904 57.3241C90.307 59.5102 92.5016 62.6361 94.8946 63.8814C96.5615 64.7491 99.309 64.8545 101.338 64.1289C104.756 62.9063 107.884 58.3319 107.884 54.5545C107.884 49.7851 103.929 44.9045 98.948 43.5271C97.0716 43.0085 96.4556 42.9827 94.3797 43.3366C91.7585 43.7839 89.2157 44.9176 87.4484 46.4272C84.8131 48.6785 83.7774 49.0125 82.6312 47.9807C82.284 47.6683 82 46.9983 82 46.492Z" fill="url(#paint11_radial)"/>
</g>
<g id="left-eye--dizzy" filter="url(#filter7_d)">
<path d="M68.8159 61.8656C68.7737 63.6263 64.2105 66.9156 59.7559 68.3961C57.7428 69.0651 56.9465 69.1442 53.9739 68.9693C49.3525 68.6972 46.8622 67.5244 43.5343 64.0521C40.2954 60.6725 39.1211 57.9863 39.0412 53.7729C38.9904 51.0837 39.1063 50.3778 39.9345 48.3479C41.6047 44.2531 44.2242 41.5492 48.2083 39.8071C50.9654 38.6014 54.8398 38.7001 57.6048 40.0467C66.048 44.159 67.4314 54.5982 60.1544 59.2865C58.6425 60.2604 58.0798 60.4169 55.8759 60.4746C52.7398 60.5567 51.0214 59.7859 48.7882 57.2943C46.3472 54.5712 46.0662 51.9798 47.9179 49.2729C50.0483 46.1584 53.8135 45.6869 56.4025 48.2107C58.688 50.4385 56.1897 53.2466 53.6062 51.3533C52.1461 50.2831 50.8282 51.4275 51.2716 53.3804C51.5673 54.6836 53.8925 56.3606 55.4551 56.398C57.9255 56.4572 60.7435 53.5191 60.7873 50.838C60.8232 48.6521 58.7041 45.4745 56.3416 44.1723C54.6959 43.2648 51.9517 43.0937 49.9057 43.7705C46.4593 44.9108 43.2231 49.409 43.1326 53.1853C43.0184 57.9533 46.855 62.9272 51.8017 64.4236C53.6651 64.9871 54.2803 65.0275 56.3641 64.7235C58.9952 64.3392 61.5645 63.2667 63.3675 61.7999C66.056 59.6124 67.0994 59.3033 68.2205 60.3622C68.5601 60.6828 68.828 61.3594 68.8159 61.8656Z" fill="url(#paint12_radial)"/>
</g>
<g id="eyes--sleepy">
<g id="Subtract" filter="url(#filter8_d)">
<path d="M67.5409 56.3418C63.5118 60.3973 57.2732 62.9999 50.2705 62.9999C43.2677 62.9999 37.0291 60.3973 33 56.3418C34.3575 64.6554 41.573 71.0002 50.2705 71.0002C58.9679 71.0002 66.1834 64.6554 67.5409 56.3418Z" fill="url(#paint13_radial)"/>
</g>
<g id="Subtract_2" filter="url(#filter9_d)">
<path d="M116.811 56.3418C112.782 60.3973 106.544 62.9999 99.5409 62.9999C92.5382 62.9999 86.2996 60.3973 82.2705 56.3418C83.628 64.6554 90.8435 71.0002 99.5409 71.0002C108.238 71.0002 115.454 64.6554 116.811 56.3418Z" fill="url(#paint14_radial)"/>
</g>
</g>
<g id="eyes--stars">
<g id="eye-left_2">
<g id="Star 5" filter="url(#filter10_d)">
<path d="M38.0922 13.2088C37.1281 11.6709 34.7787 12.1093 34.4341 13.8914L30.5902 33.7683C30.4436 34.5265 29.8735 35.1326 29.1257 35.3253L10.0303 40.2468C8.26006 40.703 7.97929 43.0992 9.59611 43.9523L27.0805 53.1782C27.7736 53.5439 28.1893 54.2808 28.1438 55.0631L26.9632 75.3722C26.8573 77.1939 29.0461 78.1943 30.3542 76.922L44.8144 62.8583C45.3835 62.3047 46.2261 62.1402 46.9616 62.4391L65.7685 70.0802C67.4434 70.7607 69.09 69.0461 68.3422 67.4L59.905 48.8284C59.5894 48.1338 59.6965 47.3201 60.181 46.7309L72.5797 31.6525C73.7343 30.2484 72.5684 28.1567 70.7669 28.4003L50.7026 31.1133C49.9246 31.2185 49.157 30.8588 48.74 30.1936L38.0922 13.2088Z" fill="url(#paint15_linear)"/>
</g>
<path id="Intersect" fill-rule="evenodd" clip-rule="evenodd" d="M10.4381 41.6639C10.6803 41.2003 11.1087 40.8239 11.7076 40.6695L29.6716 36.0397C30.4194 35.8469 30.9894 35.2409 31.1361 34.4827L34.7545 15.7716C35.0991 13.9894 37.4485 13.5511 38.4127 15.089L48.4339 31.0743C48.8509 31.7395 49.6184 32.0992 50.3964 31.994L69.282 29.4404C70.0025 29.343 70.6214 29.6191 71.0307 30.0755C64.2158 42.5591 51.0828 51.0127 36 51.0127C26.2799 51.0127 17.3695 47.5017 10.4381 41.6639Z" fill="url(#paint16_radial)"/>
</g>
<g id="eye-right_2">
<g id="Star 5_2" filter="url(#filter11_d)">
<path d="M111.846 13.2088C112.811 11.6709 115.16 12.1093 115.505 13.8914L119.348 33.7683C119.495 34.5265 120.065 35.1326 120.813 35.3253L139.908 40.2468C141.679 40.703 141.959 43.0992 140.343 43.9523L122.858 53.1782C122.165 53.5439 121.749 54.2808 121.795 55.0631L122.975 75.3722C123.081 77.1939 120.892 78.1943 119.584 76.922L105.124 62.8583C104.555 62.3047 103.713 62.1402 102.977 62.4391L84.1702 70.0802C82.4952 70.7607 80.8487 69.0461 81.5964 67.4L90.0337 48.8284C90.3492 48.1338 90.2421 47.3201 89.7576 46.7309L77.3589 31.6525C76.2043 30.2484 77.3702 28.1567 79.1717 28.4003L99.2361 31.1133C100.014 31.2185 100.782 30.8588 101.199 30.1936L111.846 13.2088Z" fill="url(#paint17_linear)"/>
</g>
<path id="Intersect_2" fill-rule="evenodd" clip-rule="evenodd" d="M139.5 41.6639C139.258 41.2003 138.83 40.8239 138.231 40.6695L120.267 36.0397C119.519 35.8469 118.949 35.2409 118.803 34.4827L115.184 15.7716C114.839 13.9894 112.49 13.5511 111.526 15.089L101.505 31.0743C101.088 31.7395 100.32 32.0992 99.5422 31.994L80.6567 29.4404C79.9361 29.343 79.3173 29.6191 78.9079 30.0755C85.7228 42.5591 98.8559 51.0127 113.939 51.0127C123.659 51.0127 132.569 47.5017 139.5 41.6639Z" fill="url(#paint18_radial)"/>
</g>
</g>
</g>
<g id="eyebrows">
<g id="eyebrow-right" filter="url(#filter12_d)">
<path d="M114.323 58.243C113.406 58.1103 112.471 58.0306 111.522 58.0072C108.926 48.9587 101.041 42.1465 91.4275 41.131C91.4058 39.7204 91.2598 38.3399 91 37C103.186 37.0353 113.19 46.3458 114.323 58.243Z" fill="url(#paint19_radial)"/>
</g>
<g id="eyebrow-left" filter="url(#filter13_d)">
<path d="M69.5056 43.2273C68.9983 43.8803 68.4199 44.29 68 44.5C67.5474 44.7263 66.7641 45.2113 65.8243 45.8283C62.4591 43.4682 57.7333 42 52.5 42C44.4341 42 37.5738 45.4878 35.0424 50.353C35.0143 50.0712 35 49.7867 35 49.5C35 42.5964 43.2827 37 53.5 37C60.3337 37 66.3021 39.5036 69.5056 43.2273Z" fill="url(#paint20_radial)"/>
</g>
</g>
</g>
<g id="sleep-group">
<path id="z-small" d="M81.2704 17V16.75C81.2704 16.1977 81.7182 15.75 82.2704 15.75H92.7704C93.3227 15.75 93.7704 16.1977 93.7704 16.75V17.5858C93.7704 17.851 93.6651 18.1054 93.4776 18.2929L85.4776 26.2929C84.8476 26.9229 85.2938 28 86.1847 28H92.7704C93.3227 28 93.7704 28.4477 93.7704 29V29.5C93.7704 30.0523 93.3227 30.5 92.7704 30.5H82.2704C81.7182 30.5 81.2704 30.0523 81.2704 29.5V28.4142C81.2704 28.149 81.3758 27.8946 81.5633 27.7071L89.5633 19.7071C90.1933 19.0771 89.7471 18 88.8562 18H82.2704C81.7182 18 81.2704 17.5523 81.2704 17Z" fill="url(#paint21_linear)" stroke="#3667D7"/>
<path id="z-medium" d="M96.7704 3.50847V2C96.7704 1.44772 97.2182 1 97.7704 1H114.77C115.323 1 115.77 1.44771 115.77 2V4.10172C115.77 4.36252 115.669 4.61299 115.487 4.79974L102.226 18.4037C101.608 19.0372 102.057 20.1017 102.942 20.1017H114.77C115.323 20.1017 115.77 20.5494 115.77 21.1017V23C115.77 23.5523 115.323 24 114.77 24H97.7704C97.2182 24 96.7704 23.5523 96.7704 23V20.5084C96.7704 20.2477 96.8723 19.9972 97.0544 19.8104L110.315 6.20649C110.933 5.57294 110.484 4.50847 109.599 4.50847H97.7704C97.2182 4.50847 96.7704 4.06076 96.7704 3.50847Z" fill="url(#paint22_linear)" stroke="#3667D7"/>
<path id="z-big" d="M115.77 13.7288V11C115.77 10.4477 116.218 10 116.77 10H139.77C140.323 10 140.77 10.4477 140.77 11V14.329C140.77 14.5857 140.672 14.8325 140.495 15.0184L122.378 34.0564C121.772 34.6932 122.223 35.7458 123.102 35.7458H139.77C140.323 35.7458 140.77 36.1935 140.77 36.7458V40C140.77 40.5523 140.323 41 139.77 41H116.77C116.218 41 115.77 40.5523 115.77 40V36.1455C115.77 35.8889 115.869 35.6421 116.046 35.4562L134.163 16.4182C134.769 15.7814 134.317 14.7288 133.438 14.7288H116.77C116.218 14.7288 115.77 14.2811 115.77 13.7288Z" fill="url(#paint23_linear)" stroke="#3667D7"/>
</g>
</g>
<defs>
<filter id="filter0_d" x="63" y="86" width="24" height="24" filterUnits="userSpaceOnUse" color-interpolation-filters="sRGB">
<feFlood flood-opacity="0" result="BackgroundImageFix"/>
<feColorMatrix in="SourceAlpha" type="matrix" values="0 0 0 0 0 0 0 0 0 0 0 0 0 0 0 0 0 0 127 0" result="hardAlpha"/>
<feOffset dy="1"/>
<feGaussianBlur stdDeviation="1"/>
<feColorMatrix type="matrix" values="0 0 0 0 0.992157 0 0 0 0 0.964706 0 0 0 0 0.333333 0 0 0 1 0"/>
<feBlend mode="normal" in2="BackgroundImageFix" result="effect1_dropShadow"/>
<feBlend mode="normal" in="SourceGraphic" in2="effect1_dropShadow" result="shape"/>
</filter>
<filter id="filter1_d" x="73" y="78" width="21.9512" height="36.2504" filterUnits="userSpaceOnUse" color-interpolation-filters="sRGB">
<feFlood flood-opacity="0" result="BackgroundImageFix"/>
<feColorMatrix in="SourceAlpha" type="matrix" values="0 0 0 0 0 0 0 0 0 0 0 0 0 0 0 0 0 0 127 0" result="hardAlpha"/>
<feOffset dx="2"/>
<feGaussianBlur stdDeviation="1.5"/>
<feColorMatrix type="matrix" values="0 0 0 0 0 0 0 0 0 0 0 0 0 0 0 0 0 0 0.25 0"/>
<feBlend mode="normal" in2="BackgroundImageFix" result="effect1_dropShadow"/>
<feBlend mode="normal" in="SourceGraphic" in2="effect1_dropShadow" result="shape"/>
</filter>
<filter id="filter2_d" x="39" y="50" width="31" height="14.2159" filterUnits="userSpaceOnUse" color-interpolation-filters="sRGB">
<feFlood flood-opacity="0" result="BackgroundImageFix"/>
<feColorMatrix in="SourceAlpha" type="matrix" values="0 0 0 0 0 0 0 0 0 0 0 0 0 0 0 0 0 0 127 0" result="hardAlpha"/>
<feOffset dy="1"/>
<feGaussianBlur stdDeviation="1"/>
<feColorMatrix type="matrix" values="0 0 0 0 0.992157 0 0 0 0 0.964706 0 0 0 0 0.333333 0 0 0 1 0"/>
<feBlend mode="normal" in2="BackgroundImageFix" result="effect1_dropShadow"/>
<feBlend mode="normal" in="SourceGraphic" in2="effect1_dropShadow" result="shape"/>
</filter>
<filter id="filter3_d" x="84" y="46" width="19" height="27" filterUnits="userSpaceOnUse" color-interpolation-filters="sRGB">
<feFlood flood-opacity="0" result="BackgroundImageFix"/>
<feColorMatrix in="SourceAlpha" type="matrix" values="0 0 0 0 0 0 0 0 0 0 0 0 0 0 0 0 0 0 127 0" result="hardAlpha"/>
<feOffset dy="1"/>
<feGaussianBlur stdDeviation="1"/>
<feColorMatrix type="matrix" values="0 0 0 0 0.992157 0 0 0 0 0.964706 0 0 0 0 0.333333 0 0 0 1 0"/>
<feBlend mode="normal" in2="BackgroundImageFix" result="effect1_dropShadow"/>
<feBlend mode="normal" in="SourceGraphic" in2="effect1_dropShadow" result="shape"/>
</filter>
<filter id="filter4_d" x="44" y="41" width="25" height="27.301" filterUnits="userSpaceOnUse" color-interpolation-filters="sRGB">
<feFlood flood-opacity="0" result="BackgroundImageFix"/>
<feColorMatrix in="SourceAlpha" type="matrix" values="0 0 0 0 0 0 0 0 0 0 0 0 0 0 0 0 0 0 127 0" result="hardAlpha"/>
<feOffset dy="1"/>
<feGaussianBlur stdDeviation="1"/>
<feColorMatrix type="matrix" values="0 0 0 0 0.992157 0 0 0 0 0.964706 0 0 0 0 0.333333 0 0 0 1 0"/>
<feBlend mode="normal" in2="BackgroundImageFix" result="effect1_dropShadow"/>
<feBlend mode="normal" in="SourceGraphic" in2="effect1_dropShadow" result="shape"/>
</filter>
<filter id="filter5_d" x="81" y="41" width="25" height="27.301" filterUnits="userSpaceOnUse" color-interpolation-filters="sRGB">
<feFlood flood-opacity="0" result="BackgroundImageFix"/>
<feColorMatrix in="SourceAlpha" type="matrix" values="0 0 0 0 0 0 0 0 0 0 0 0 0 0 0 0 0 0 127 0" result="hardAlpha"/>
<feOffset dy="1"/>
<feGaussianBlur stdDeviation="1"/>
<feColorMatrix type="matrix" values="0 0 0 0 0.992157 0 0 0 0 0.964706 0 0 0 0 0.333333 0 0 0 1 0"/>
<feBlend mode="normal" in2="BackgroundImageFix" result="effect1_dropShadow"/>
<feBlend mode="normal" in="SourceGraphic" in2="effect1_dropShadow" result="shape"/>
</filter>
<filter id="filter6_d" x="80" y="38" width="34" height="34" filterUnits="userSpaceOnUse" color-interpolation-filters="sRGB">
<feFlood flood-opacity="0" result="BackgroundImageFix"/>
<feColorMatrix in="SourceAlpha" type="matrix" values="0 0 0 0 0 0 0 0 0 0 0 0 0 0 0 0 0 0 127 0" result="hardAlpha"/>
<feOffset dy="1"/>
<feGaussianBlur stdDeviation="1"/>
<feColorMatrix type="matrix" values="0 0 0 0 0.992157 0 0 0 0 0.964706 0 0 0 0 0.333333 0 0 0 1 0"/>
<feBlend mode="normal" in2="BackgroundImageFix" result="effect1_dropShadow"/>
<feBlend mode="normal" in="SourceGraphic" in2="effect1_dropShadow" result="shape"/>
</filter>
<filter id="filter7_d" x="36.645" y="37.6453" width="34.7102" height="34.7102" filterUnits="userSpaceOnUse" color-interpolation-filters="sRGB">
<feFlood flood-opacity="0" result="BackgroundImageFix"/>
<feColorMatrix in="SourceAlpha" type="matrix" values="0 0 0 0 0 0 0 0 0 0 0 0 0 0 0 0 0 0 127 0" result="hardAlpha"/>
<feOffset dy="1"/>
<feGaussianBlur stdDeviation="1"/>
<feColorMatrix type="matrix" values="0 0 0 0 0.992157 0 0 0 0 0.964706 0 0 0 0 0.333333 0 0 0 1 0"/>
<feBlend mode="normal" in2="BackgroundImageFix" result="effect1_dropShadow"/>
<feBlend mode="normal" in="SourceGraphic" in2="effect1_dropShadow" result="shape"/>
</filter>
<filter id="filter8_d" x="31" y="55.3418" width="38.5409" height="18.6584" filterUnits="userSpaceOnUse" color-interpolation-filters="sRGB">
<feFlood flood-opacity="0" result="BackgroundImageFix"/>
<feColorMatrix in="SourceAlpha" type="matrix" values="0 0 0 0 0 0 0 0 0 0 0 0 0 0 0 0 0 0 127 0" result="hardAlpha"/>
<feOffset dy="1"/>
<feGaussianBlur stdDeviation="1"/>
<feColorMatrix type="matrix" values="0 0 0 0 0.992157 0 0 0 0 0.964706 0 0 0 0 0.333333 0 0 0 1 0"/>
<feBlend mode="normal" in2="BackgroundImageFix" result="effect1_dropShadow"/>
<feBlend mode="normal" in="SourceGraphic" in2="effect1_dropShadow" result="shape"/>
</filter>
<filter id="filter9_d" x="80.2705" y="55.3418" width="38.5409" height="18.6584" filterUnits="userSpaceOnUse" color-interpolation-filters="sRGB">
<feFlood flood-opacity="0" result="BackgroundImageFix"/>
<feColorMatrix in="SourceAlpha" type="matrix" values="0 0 0 0 0 0 0 0 0 0 0 0 0 0 0 0 0 0 127 0" result="hardAlpha"/>
<feOffset dy="1"/>
<feGaussianBlur stdDeviation="1"/>
<feColorMatrix type="matrix" values="0 0 0 0 0.992157 0 0 0 0 0.964706 0 0 0 0 0.333333 0 0 0 1 0"/>
<feBlend mode="normal" in2="BackgroundImageFix" result="effect1_dropShadow"/>
<feBlend mode="normal" in="SourceGraphic" in2="effect1_dropShadow" result="shape"/>
</filter>
<filter id="filter10_d" x="2.88107" y="6.00244" width="80.4553" height="78.1513" filterUnits="userSpaceOnUse" color-interpolation-filters="sRGB">
<feFlood flood-opacity="0" result="BackgroundImageFix"/>
<feColorMatrix in="SourceAlpha" type="matrix" values="0 0 0 0 0 0 0 0 0 0 0 0 0 0 0 0 0 0 127 0" result="hardAlpha"/>
<feOffset dx="1" dy="2"/>
<feGaussianBlur stdDeviation="1"/>
<feComposite in2="hardAlpha" operator="out"/>
<feColorMatrix type="matrix" values="0 0 0 0 0.341176 0 0 0 0 0.129412 0 0 0 0 0.0588235 0 0 0 1 0"/>
<feBlend mode="normal" in2="BackgroundImageFix" result="effect1_dropShadow"/>
<feBlend mode="normal" in="SourceGraphic" in2="effect1_dropShadow" result="shape"/>
</filter>
<filter id="filter11_d" x="66.6022" y="6.00244" width="80.4553" height="78.1513" filterUnits="userSpaceOnUse" color-interpolation-filters="sRGB">
<feFlood flood-opacity="0" result="BackgroundImageFix"/>
<feColorMatrix in="SourceAlpha" type="matrix" values="0 0 0 0 0 0 0 0 0 0 0 0 0 0 0 0 0 0 127 0" result="hardAlpha"/>
<feOffset dx="-1" dy="2"/>
<feGaussianBlur stdDeviation="1"/>
<feComposite in2="hardAlpha" operator="out"/>
<feColorMatrix type="matrix" values="0 0 0 0 0.341176 0 0 0 0 0.129412 0 0 0 0 0.0588235 0 0 0 1 0"/>
<feBlend mode="normal" in2="BackgroundImageFix" result="effect1_dropShadow"/>
<feBlend mode="normal" in="SourceGraphic" in2="effect1_dropShadow" result="shape"/>
</filter>
<filter id="filter12_d" x="89" y="36" width="27.3234" height="25.243" filterUnits="userSpaceOnUse" color-interpolation-filters="sRGB">
<feFlood flood-opacity="0" result="BackgroundImageFix"/>
<feColorMatrix in="SourceAlpha" type="matrix" values="0 0 0 0 0 0 0 0 0 0 0 0 0 0 0 0 0 0 127 0" result="hardAlpha"/>
<feOffset dy="1"/>
<feGaussianBlur stdDeviation="1"/>
<feColorMatrix type="matrix" values="0 0 0 0 0.992157 0 0 0 0 0.964706 0 0 0 0 0.333333 0 0 0 1 0"/>
<feBlend mode="normal" in2="BackgroundImageFix" result="effect1_dropShadow"/>
<feBlend mode="normal" in="SourceGraphic" in2="effect1_dropShadow" result="shape"/>
</filter>
<filter id="filter13_d" x="33" y="36" width="38.5056" height="17.353" filterUnits="userSpaceOnUse" color-interpolation-filters="sRGB">
<feFlood flood-opacity="0" result="BackgroundImageFix"/>
<feColorMatrix in="SourceAlpha" type="matrix" values="0 0 0 0 0 0 0 0 0 0 0 0 0 0 0 0 0 0 127 0" result="hardAlpha"/>
<feOffset dy="1"/>
<feGaussianBlur stdDeviation="1"/>
<feColorMatrix type="matrix" values="0 0 0 0 0.992157 0 0 0 0 0.964706 0 0 0 0 0.333333 0 0 0 1 0"/>
<feBlend mode="normal" in2="BackgroundImageFix" result="effect1_dropShadow"/>
<feBlend mode="normal" in="SourceGraphic" in2="effect1_dropShadow" result="shape"/>
</filter>
<radialGradient id="paint0_radial" cx="0" cy="0" r="1" gradientUnits="userSpaceOnUse" gradientTransform="translate(75 18) rotate(90) scale(113)">
<stop offset="0.182837" stop-color="#FFFBBC"/>
<stop offset="0.598325" stop-color="#FFAE36"/>
<stop offset="0.865425" stop-color="#E58425"/>
</radialGradient>
<radialGradient id="paint1_radial" cx="0" cy="0" r="1" gradientUnits="userSpaceOnUse" gradientTransform="translate(75 16) rotate(90) scale(115)">
<stop offset="0.055727" stop-color="#FF992A"/>
<stop offset="1" stop-color="#D66B1F"/>
</radialGradient>
<radialGradient id="paint2_radial" cx="0" cy="0" r="1" gradientUnits="userSpaceOnUse" gradientTransform="translate(75 97) rotate(90) scale(10)">
<stop stop-color="#A05B1A"/>
<stop offset="1" stop-color="#59270C"/>
</radialGradient>
<radialGradient id="paint3_radial" cx="0" cy="0" r="1" gradientUnits="userSpaceOnUse" gradientTransform="translate(81.9756 96.1252) rotate(180) scale(7.97561 15.1252)">
<stop stop-color="#A05B1A"/>
<stop offset="1" stop-color="#59270C"/>
</radialGradient>
<radialGradient id="paint4_radial" cx="0" cy="0" r="1" gradientUnits="userSpaceOnUse" gradientTransform="translate(75 93.3044) rotate(90) scale(19.3044 43)">
<stop stop-color="#C4C8CA"/>
<stop offset="1" stop-color="#F8F8FA"/>
</radialGradient>
<radialGradient id="paint5_radial" cx="0" cy="0" r="1" gradientUnits="userSpaceOnUse" gradientTransform="translate(75 85.2247) rotate(90) scale(11.2247 43)">
<stop stop-color="#C4C8CA"/>
<stop offset="1" stop-color="#F8F8FA"/>
</radialGradient>
<radialGradient id="paint6_radial" cx="0" cy="0" r="1" gradientUnits="userSpaceOnUse" gradientTransform="translate(75 85.2247) rotate(90) scale(11.2247 43)">
<stop stop-color="#C4C8CA"/>
<stop offset="1" stop-color="#F8F8FA"/>
</radialGradient>
<radialGradient id="paint7_radial" cx="0" cy="0" r="1" gradientUnits="userSpaceOnUse" gradientTransform="translate(54.5 56.1079) rotate(90) scale(5.10793 13.5)">
<stop stop-color="#A05B1A"/>
<stop offset="1" stop-color="#59270C"/>
</radialGradient>
<radialGradient id="paint8_radial" cx="0" cy="0" r="1" gradientUnits="userSpaceOnUse" gradientTransform="translate(93.5 58.5) rotate(90) scale(11.5 7.5)">
<stop stop-color="#A05B1A"/>
<stop offset="1" stop-color="#59270C"/>
</radialGradient>
<radialGradient id="paint9_radial" cx="0" cy="0" r="1" gradientUnits="userSpaceOnUse" gradientTransform="translate(56.5 53.6505) rotate(90) scale(11.6505 10.5)">
<stop stop-color="#A05B1A"/>
<stop offset="1" stop-color="#59270C"/>
</radialGradient>
<radialGradient id="paint10_radial" cx="0" cy="0" r="1" gradientUnits="userSpaceOnUse" gradientTransform="translate(93.5 53.6505) rotate(90) scale(11.6505 10.5)">
<stop stop-color="#A05B1A"/>
<stop offset="1" stop-color="#59270C"/>
</radialGradient>
<radialGradient id="paint11_radial" cx="0" cy="0" r="1" gradientUnits="userSpaceOnUse" gradientTransform="translate(97 54) rotate(90) scale(15)">
<stop stop-color="#A05B1A"/>
<stop offset="1" stop-color="#59270C"/>
</radialGradient>
<radialGradient id="paint12_radial" cx="0" cy="0" r="1" gradientUnits="userSpaceOnUse" gradientTransform="translate(54 54.0004) rotate(-88.6271) scale(15)">
<stop stop-color="#A05B1A"/>
<stop offset="1" stop-color="#59270C"/>
</radialGradient>
<radialGradient id="paint13_radial" cx="0" cy="0" r="1" gradientUnits="userSpaceOnUse" gradientTransform="translate(50.2705 63.671) rotate(90) scale(7.3292 17.2705)">
<stop stop-color="#A05B1A"/>
<stop offset="1" stop-color="#59270C"/>
</radialGradient>
<radialGradient id="paint14_radial" cx="0" cy="0" r="1" gradientUnits="userSpaceOnUse" gradientTransform="translate(99.5409 63.671) rotate(90) scale(7.3292 17.2705)">
<stop stop-color="#A05B1A"/>
<stop offset="1" stop-color="#59270C"/>
</radialGradient>
<linearGradient id="paint15_linear" x1="35.3974" y1="8.91013" x2="48.5412" y2="76.24" gradientUnits="userSpaceOnUse">
<stop stop-color="#E0A243"/>
<stop offset="1" stop-color="#F5D254"/>
</linearGradient>
<radialGradient id="paint16_radial" cx="0" cy="0" r="1" gradientUnits="userSpaceOnUse" gradientTransform="translate(34.4395 18.1748) rotate(72.9491) scale(30.8513 50.626)">
<stop stop-color="white" stop-opacity="0.9"/>
<stop offset="1" stop-color="white" stop-opacity="0.5"/>
</radialGradient>
<linearGradient id="paint17_linear" x1="114.541" y1="8.91013" x2="101.397" y2="76.24" gradientUnits="userSpaceOnUse">
<stop stop-color="#E0A243"/>
<stop offset="1" stop-color="#F5D254"/>
</linearGradient>
<radialGradient id="paint18_radial" cx="0" cy="0" r="1" gradientUnits="userSpaceOnUse" gradientTransform="translate(115.499 18.1748) rotate(107.051) scale(30.8513 50.626)">
<stop stop-color="white" stop-opacity="0.9"/>
<stop offset="1" stop-color="white" stop-opacity="0.5"/>
</radialGradient>
<radialGradient id="paint19_radial" cx="0" cy="0" r="1" gradientUnits="userSpaceOnUse" gradientTransform="translate(102.662 47.6215) rotate(90) scale(10.6215 11.6617)">
<stop stop-color="#A05B1A"/>
<stop offset="1" stop-color="#59270C"/>
</radialGradient>
<radialGradient id="paint20_radial" cx="0" cy="0" r="1" gradientUnits="userSpaceOnUse" gradientTransform="translate(51.4362 43.6765) rotate(90) scale(6.67651 16.4362)">
<stop stop-color="#A05B1A"/>
<stop offset="1" stop-color="#59270C"/>
</radialGradient>
<linearGradient id="paint21_linear" x1="87.5204" y1="15.75" x2="87.5204" y2="30.5" gradientUnits="userSpaceOnUse">
<stop stop-color="#386AD9"/>
<stop offset="1" stop-color="#0023B5"/>
</linearGradient>
<linearGradient id="paint22_linear" x1="106.27" y1="1" x2="106.27" y2="24" gradientUnits="userSpaceOnUse">
<stop stop-color="#386AD9"/>
<stop offset="1" stop-color="#0023B5"/>
</linearGradient>
<linearGradient id="paint23_linear" x1="128.27" y1="10" x2="128.27" y2="41" gradientUnits="userSpaceOnUse">
<stop stop-color="#386AD9"/>
<stop offset="1" stop-color="#0023B5"/>
</linearGradient>
</defs>
</svg>
