<svg width="128" height="128" viewBox="0 0 128 128" fill="none" xmlns="http://www.w3.org/2000/svg">
<g id="smiley-face">
<g id="Ellipse 3">
<circle cx="64" cy="64" r="64" fill="url(#paint0_radial)"/>
<circle cx="64" cy="64" r="60.5" stroke="url(#paint1_radial)" stroke-opacity="0.1" stroke-width="7"/>
</g>
<g id="face">
<g id="mouth">
<g id="bottom-row-teeth">
<mask id="path-3-inside-1" fill="white">
<path fill-rule="evenodd" clip-rule="evenodd" d="M21 71C23.9744 92.822 42.0929 109.609 64 109.609C85.9071 109.609 104.026 92.822 107 71C93.9332 73.7403 79.3632 75.2704 64 75.2704C48.6368 75.2704 34.0668 73.7403 21 71Z"/>
</mask>
<path fill-rule="evenodd" clip-rule="evenodd" d="M21 71C23.9744 92.822 42.0929 109.609 64 109.609C85.9071 109.609 104.026 92.822 107 71C93.9332 73.7403 79.3632 75.2704 64 75.2704C48.6368 75.2704 34.0668 73.7403 21 71Z" fill="url(#paint2_radial)"/>
<path d="M21 71L21.6158 68.0639L17.4531 67.1909L18.0275 71.4052L21 71ZM107 71L109.973 71.4052L110.547 67.1909L106.384 68.0639L107 71ZM64 106.609C43.6912 106.609 26.7578 91.0295 23.9725 70.5948L18.0275 71.4052C21.191 94.6145 40.4946 112.609 64 112.609V106.609ZM104.027 70.5948C101.242 91.0295 84.3088 106.609 64 106.609V112.609C87.5054 112.609 106.809 94.6145 109.973 71.4052L104.027 70.5948ZM106.384 68.0639C93.5314 70.7593 79.1683 72.2704 64 72.2704V78.2704C79.5581 78.2704 94.335 76.7213 107.616 73.9361L106.384 68.0639ZM64 72.2704C48.8316 72.2704 34.4686 70.7593 21.6158 68.0639L20.3842 73.9361C33.665 76.7213 48.4419 78.2704 64 78.2704V72.2704Z" fill="#683510" mask="url(#path-3-inside-1)"/>
</g>
<g id="top-row-teeth">
<mask id="path-5-inside-2" fill="white">
<path fill-rule="evenodd" clip-rule="evenodd" d="M101.634 87.1085C90.7129 91.1391 77.9986 93.4495 64.4279 93.4495C50.4075 93.4495 37.3012 90.9834 26.1417 86.7021C23.5476 81.9392 21.7684 76.6376 21 71C34.0668 73.7403 48.6367 75.2704 64 75.2704C79.3632 75.2704 93.9332 73.7403 107 71C106.21 76.7985 104.35 82.2415 101.634 87.1085Z"/>
</mask>
<path fill-rule="evenodd" clip-rule="evenodd" d="M101.634 87.1085C90.7129 91.1391 77.9986 93.4495 64.4279 93.4495C50.4075 93.4495 37.3012 90.9834 26.1417 86.7021C23.5476 81.9392 21.7684 76.6376 21 71C34.0668 73.7403 48.6367 75.2704 64 75.2704C79.3632 75.2704 93.9332 73.7403 107 71C106.21 76.7985 104.35 82.2415 101.634 87.1085Z" fill="url(#paint3_radial)"/>
<path d="M101.634 87.1085L102.673 89.9229L103.713 89.5389L104.254 88.5703L101.634 87.1085ZM26.1417 86.7021L23.5072 88.137L24.0356 89.1073L25.0672 89.503L26.1417 86.7021ZM21 71L21.6158 68.0639L17.4531 67.1909L18.0275 71.4052L21 71ZM107 71L109.973 71.4052L110.547 67.1909L106.384 68.0639L107 71ZM100.596 84.294C90.0262 88.1947 77.6654 90.4495 64.4279 90.4495V96.4495C78.3317 96.4495 91.3996 94.0835 102.673 89.9229L100.596 84.294ZM64.4279 90.4495C50.751 90.4495 38.0112 88.0426 27.2163 83.9011L25.0672 89.503C36.5912 93.9242 50.064 96.4495 64.4279 96.4495V90.4495ZM18.0275 71.4052C18.8458 77.4086 20.7412 83.0586 23.5072 88.137L28.7763 85.2671C26.3541 80.8198 24.6911 75.8667 23.9725 70.5948L18.0275 71.4052ZM64 72.2704C48.8316 72.2704 34.4686 70.7593 21.6158 68.0639L20.3842 73.9361C33.665 76.7213 48.4419 78.2704 64 78.2704V72.2704ZM106.384 68.0639C93.5314 70.7593 79.1683 72.2704 64 72.2704V78.2704C79.5581 78.2704 94.335 76.7213 107.616 73.9361L106.384 68.0639ZM104.254 88.5703C107.15 83.3807 109.131 77.5799 109.973 71.4052L104.027 70.5948C103.288 76.0171 101.55 81.1022 99.0145 85.6466L104.254 88.5703Z" fill="#683510" mask="url(#path-5-inside-2)"/>
</g>
</g>
<g id="eyes">
<g id="left-eye" filter="url(#filter0_d)">
<path fill-rule="evenodd" clip-rule="evenodd" d="M53.5808 62.301C55.0916 60.3958 56 57.7775 56 54.5C56 47.0442 51.299 39 45.5 39C39.701 39 35 47.0442 35 54.5C35 57.7775 35.9084 60.3958 37.4192 62.301C38.5309 56.901 41.7286 53 45.5 53C49.2714 53 52.4691 56.901 53.5808 62.301Z" fill="url(#paint4_radial)"/>
</g>
<g id="right-eye" filter="url(#filter1_d)">
<path fill-rule="evenodd" clip-rule="evenodd" d="M90.5808 62.301C92.0916 60.3958 93 57.7775 93 54.5C93 47.0442 88.299 39 82.5 39C76.701 39 72 47.0442 72 54.5C72 57.7775 72.9084 60.3958 74.4192 62.301C75.5309 56.901 78.7286 53 82.5 53C86.2714 53 89.4691 56.901 90.5808 62.301Z" fill="url(#paint5_radial)"/>
</g>
</g>
</g>
</g>
<defs>
<filter id="filter0_d" x="33" y="38" width="25" height="27.301" filterUnits="userSpaceOnUse" color-interpolation-filters="sRGB">
<feFlood flood-opacity="0" result="BackgroundImageFix"/>
<feColorMatrix in="SourceAlpha" type="matrix" values="0 0 0 0 0 0 0 0 0 0 0 0 0 0 0 0 0 0 127 0"/>
<feOffset dy="1"/>
<feGaussianBlur stdDeviation="1"/>
<feColorMatrix type="matrix" values="0 0 0 0 0.992157 0 0 0 0 0.964706 0 0 0 0 0.333333 0 0 0 1 0"/>
<feBlend mode="normal" in2="BackgroundImageFix" result="effect1_dropShadow"/>
<feBlend mode="normal" in="SourceGraphic" in2="effect1_dropShadow" result="shape"/>
</filter>
<filter id="filter1_d" x="70" y="38" width="25" height="27.301" filterUnits="userSpaceOnUse" color-interpolation-filters="sRGB">
<feFlood flood-opacity="0" result="BackgroundImageFix"/>
<feColorMatrix in="SourceAlpha" type="matrix" values="0 0 0 0 0 0 0 0 0 0 0 0 0 0 0 0 0 0 127 0"/>
<feOffset dy="1"/>
<feGaussianBlur stdDeviation="1"/>
<feColorMatrix type="matrix" values="0 0 0 0 0.992157 0 0 0 0 0.964706 0 0 0 0 0.333333 0 0 0 1 0"/>
<feBlend mode="normal" in2="BackgroundImageFix" result="effect1_dropShadow"/>
<feBlend mode="normal" in="SourceGraphic" in2="effect1_dropShadow" result="shape"/>
</filter>
<radialGradient id="paint0_radial" cx="0" cy="0" r="1" gradientUnits="userSpaceOnUse" gradientTransform="translate(64 15) rotate(90) scale(113)">
<stop offset="0.182837" stop-color="#FFFBBC"/>
<stop offset="0.598325" stop-color="#FFAE36"/>
<stop offset="0.865425" stop-color="#E58425"/>
</radialGradient>
<radialGradient id="paint1_radial" cx="0" cy="0" r="1" gradientUnits="userSpaceOnUse" gradientTransform="translate(64 13) rotate(90) scale(115)">
<stop offset="0.055727" stop-color="#FF992A"/>
<stop offset="1" stop-color="#D66B1F"/>
</radialGradient>
<radialGradient id="paint2_radial" cx="0" cy="0" r="1" gradientUnits="userSpaceOnUse" gradientTransform="translate(64 90.3044) rotate(90) scale(19.3044 43)">
<stop stop-color="#C4C8CA"/>
<stop offset="1" stop-color="#F8F8FA"/>
</radialGradient>
<radialGradient id="paint3_radial" cx="0" cy="0" r="1" gradientUnits="userSpaceOnUse" gradientTransform="translate(64 82.2247) rotate(90) scale(11.2247 43)">
<stop stop-color="#C4C8CA"/>
<stop offset="1" stop-color="#F8F8FA"/>
</radialGradient>
<radialGradient id="paint4_radial" cx="0" cy="0" r="1" gradientUnits="userSpaceOnUse" gradientTransform="translate(45.5 50.6505) rotate(90) scale(11.6505 10.5)">
<stop stop-color="#A05B1A"/>
<stop offset="1" stop-color="#59270C"/>
</radialGradient>
<radialGradient id="paint5_radial" cx="0" cy="0" r="1" gradientUnits="userSpaceOnUse" gradientTransform="translate(82.5 50.6505) rotate(90) scale(11.6505 10.5)">
<stop stop-color="#A05B1A"/>
<stop offset="1" stop-color="#59270C"/>
</radialGradient>
</defs>
</svg>
