<svg width="131" height="131" viewBox="0 0 131 131" fill="none" xmlns="http://www.w3.org/2000/svg">
<g id="smiley-face--total">
<g id="base-smiley">
<circle cx="64" cy="67" r="64" fill="url(#paint0_radial)"/>
<circle cx="64" cy="67" r="60.5" stroke="url(#paint1_radial)" stroke-opacity="0.1" stroke-width="7"/>
</g>
<g id="faces">
<g id="mouth-wow" filter="url(#filter0_d)">
<circle cx="64" cy="97" r="10" fill="url(#paint2_radial)"/>
</g>
<g id="lips-kiss" filter="url(#filter1_d)">
<path fill-rule="evenodd" clip-rule="evenodd" d="M69.2875 81C67.5732 81.4592 65.5914 81.8342 63.4185 82.1027C65.9287 82.5723 68.0581 83.3292 69.5617 84.2719C72.2694 85.362 73.9512 86.8861 73.9512 88.5727C73.9512 89.8727 72.9521 91.0762 71.2541 92.0587C70.9823 92.2832 70.6803 92.502 70.3504 92.7141C68.842 94.027 66.6521 95.2887 64.0228 96.3262C65.5152 97.0023 66.8386 97.748 67.942 98.5256C68.4731 98.7441 68.9698 98.9758 69.4281 99.2188C72.2139 100.312 73.9512 101.858 73.9512 103.573C73.9512 105.259 72.2694 106.783 69.5617 107.874C67.9752 108.868 65.6921 109.656 63 110.118C65.1064 110.401 67.0206 110.786 68.6695 111.25C74.6202 110.316 78.9512 107.456 78.9512 104.073C78.9512 100.888 75.1129 98.1664 69.6984 97.0788C69.861 96.771 69.9512 96.4306 69.9512 96.0727C69.9512 95.7148 69.861 95.3744 69.6984 95.0666C75.1129 93.979 78.9512 91.2577 78.9512 88.0727C78.9512 84.8077 74.9177 82.03 69.2875 81Z" fill="url(#paint3_radial)"/>
</g>
<g id="mouth">
<g id="bottom-row-teeth">
<mask id="path-5-inside-1" fill="white">
<path fill-rule="evenodd" clip-rule="evenodd" d="M21 74C23.9744 95.822 42.0929 112.609 64 112.609C85.9071 112.609 104.026 95.822 107 74C93.9332 76.7403 79.3632 78.2704 64 78.2704C48.6367 78.2704 34.0668 76.7403 21 74Z"/>
</mask>
<path fill-rule="evenodd" clip-rule="evenodd" d="M21 74C23.9744 95.822 42.0929 112.609 64 112.609C85.9071 112.609 104.026 95.822 107 74C93.9332 76.7403 79.3632 78.2704 64 78.2704C48.6367 78.2704 34.0668 76.7403 21 74Z" fill="url(#paint4_radial)"/>
<path d="M21 74L21.6158 71.0639L17.4531 70.1909L18.0275 74.4052L21 74ZM107 74L109.973 74.4052L110.547 70.1909L106.384 71.0639L107 74ZM64 109.609C43.6912 109.609 26.7578 94.0295 23.9725 73.5948L18.0275 74.4052C21.191 97.6145 40.4946 115.609 64 115.609V109.609ZM104.027 73.5948C101.242 94.0295 84.3088 109.609 64 109.609V115.609C87.5054 115.609 106.809 97.6145 109.973 74.4052L104.027 73.5948ZM106.384 71.0639C93.5314 73.7593 79.1683 75.2704 64 75.2704V81.2704C79.5581 81.2704 94.335 79.7213 107.616 76.9361L106.384 71.0639ZM64 75.2704C48.8316 75.2704 34.4686 73.7593 21.6158 71.0639L20.3842 76.9361C33.665 79.7213 48.4419 81.2704 64 81.2704V75.2704Z" fill="#683510" mask="url(#path-5-inside-1)"/>
</g>
<g id="top-row-teeth">
<mask id="path-7-inside-2" fill="white">
<path fill-rule="evenodd" clip-rule="evenodd" d="M101.634 90.1085C90.7129 94.1391 77.9986 96.4495 64.4279 96.4495C50.4075 96.4495 37.3012 93.9834 26.1417 89.7021C23.5476 84.9392 21.7684 79.6376 21 74C34.0668 76.7403 48.6367 78.2704 64 78.2704C79.3632 78.2704 93.9332 76.7403 107 74C106.21 79.7985 104.35 85.2415 101.634 90.1085Z"/>
</mask>
<path fill-rule="evenodd" clip-rule="evenodd" d="M101.634 90.1085C90.7129 94.1391 77.9986 96.4495 64.4279 96.4495C50.4075 96.4495 37.3012 93.9834 26.1417 89.7021C23.5476 84.9392 21.7684 79.6376 21 74C34.0668 76.7403 48.6367 78.2704 64 78.2704C79.3632 78.2704 93.9332 76.7403 107 74C106.21 79.7985 104.35 85.2415 101.634 90.1085Z" fill="url(#paint5_radial)"/>
<path d="M101.634 90.1085L102.673 92.9229L103.713 92.5389L104.254 91.5703L101.634 90.1085ZM26.1417 89.7021L23.5072 91.137L24.0356 92.1073L25.0672 92.503L26.1417 89.7021ZM21 74L21.6158 71.0639L17.4531 70.1909L18.0275 74.4052L21 74ZM107 74L109.973 74.4052L110.547 70.1909L106.384 71.0639L107 74ZM100.595 87.294C90.0262 91.1947 77.6654 93.4495 64.4279 93.4495V99.4495C78.3317 99.4495 91.3996 97.0835 102.673 92.9229L100.595 87.294ZM64.4279 93.4495C50.751 93.4495 38.0112 91.0426 27.2163 86.9011L25.0672 92.503C36.5912 96.9242 50.064 99.4495 64.4279 99.4495V93.4495ZM18.0275 74.4052C18.8458 80.4086 20.7412 86.0586 23.5072 91.137L28.7763 88.2671C26.3541 83.8198 24.6911 78.8667 23.9725 73.5948L18.0275 74.4052ZM64 75.2704C48.8316 75.2704 34.4686 73.7593 21.6158 71.0639L20.3842 76.9361C33.665 79.7213 48.4419 81.2704 64 81.2704V75.2704ZM106.384 71.0639C93.5314 73.7593 79.1683 75.2704 64 75.2704V81.2704C79.5581 81.2704 94.335 79.7213 107.616 76.9361L106.384 71.0639ZM104.254 91.5703C107.15 86.3807 109.131 80.5799 109.973 74.4052L104.027 73.5948C103.288 79.0171 101.55 84.1022 99.0145 88.6466L104.254 91.5703Z" fill="#683510" mask="url(#path-7-inside-2)"/>
</g>
</g>
<g id="eyes--left-wink">
<g id="eye-left" filter="url(#filter2_d)">
<path fill-rule="evenodd" clip-rule="evenodd" d="M55.4942 61.2159C56.4564 60.2529 57 59.1594 57 58C57 54.134 50.9558 51 43.5 51C36.0442 51 30 54.134 30 58C30 59.1594 30.5436 60.2529 31.5058 61.2159C33.7522 59.5558 38.2801 59 43.5 59C48.7199 59 53.2478 59.5558 55.4942 61.2159Z" fill="url(#paint6_radial)"/>
</g>
<g id="eye-right" filter="url(#filter3_d)">
<ellipse cx="82.5" cy="58.5" rx="7.5" ry="11.5" fill="url(#paint7_radial)"/>
</g>
</g>
<g id="eyes">
<g id="left-eye" filter="url(#filter4_d)">
<path fill-rule="evenodd" clip-rule="evenodd" d="M53.5808 65.301C55.0916 63.3958 56 60.7775 56 57.5C56 50.0442 51.299 42 45.5 42C39.701 42 35 50.0442 35 57.5C35 60.7775 35.9084 63.3958 37.4192 65.301C38.5309 59.901 41.7286 56 45.5 56C49.2714 56 52.4691 59.901 53.5808 65.301Z" fill="url(#paint8_radial)"/>
</g>
<g id="right-eye" filter="url(#filter5_d)">
<path fill-rule="evenodd" clip-rule="evenodd" d="M90.5808 65.301C92.0916 63.3958 93 60.7775 93 57.5C93 50.0442 88.299 42 82.5 42C76.701 42 72 50.0442 72 57.5C72 60.7775 72.9084 63.3958 74.4192 65.301C75.5309 59.901 78.7286 56 82.5 56C86.2714 56 89.4691 59.901 90.5808 65.301Z" fill="url(#paint9_radial)"/>
</g>
<g id="right-eye-dizzy" filter="url(#filter6_d)">
<path d="M71 46.492C71 44.7309 75.4831 41.3331 79.9009 39.7463C81.8974 39.0293 82.6915 38.9311 85.6675 39.0347C90.2941 39.1961 92.8118 40.3089 96.2219 43.7004C99.5409 47.0014 100.779 49.6588 100.96 53.869C101.075 56.5563 100.976 57.2647 100.197 59.3139C98.6253 63.4476 96.0714 66.2134 92.1302 68.0504C89.4027 69.3218 85.527 69.316 82.7305 68.036C74.1913 64.1272 72.5582 53.7242 79.7208 48.8628C81.2089 47.853 81.7677 47.6831 83.9695 47.5726C87.1028 47.4154 88.8391 48.1448 91.1314 50.5821C93.6369 53.246 93.98 55.83 92.1937 58.5804C90.1385 61.7451 86.3857 62.3066 83.7369 59.8456C81.3987 57.6732 83.8291 54.8061 86.4571 56.6369C87.9425 57.6718 89.2326 56.4962 88.7425 54.5545C88.4157 53.2587 86.0509 51.6379 84.4879 51.6379C82.0168 51.6379 79.2701 54.6427 79.2904 57.3241C79.307 59.5102 81.5016 62.6361 83.8946 63.8814C85.5615 64.7491 88.309 64.8545 90.3383 64.1289C93.7564 62.9063 96.8838 58.3319 96.8838 54.5545C96.8838 49.7851 92.9291 44.9045 87.948 43.5271C86.0716 43.0085 85.4556 42.9827 83.3797 43.3366C80.7585 43.7839 78.2157 44.9176 76.4484 46.4272C73.8131 48.6785 72.7774 49.0125 71.6312 47.9807C71.284 47.6683 71 46.9983 71 46.492Z" fill="url(#paint10_radial)"/>
</g>
<g id="left-eye--dizzy" filter="url(#filter7_d)">
<path d="M57.8159 61.8656C57.7737 63.6263 53.2105 66.9156 48.7559 68.3961C46.7428 69.0651 45.9465 69.1442 42.9739 68.9693C38.3525 68.6972 35.8622 67.5244 32.5343 64.0521C29.2954 60.6725 28.1211 57.9863 28.0412 53.7729C27.9904 51.0837 28.1063 50.3778 28.9345 48.3479C30.6047 44.2531 33.2242 41.5492 37.2083 39.8071C39.9654 38.6014 43.8398 38.7001 46.6048 40.0467C55.048 44.159 56.4314 54.5982 49.1544 59.2865C47.6425 60.2604 47.0798 60.4169 44.8759 60.4746C41.7398 60.5567 40.0214 59.7859 37.7882 57.2943C35.3472 54.5712 35.0662 51.9798 36.9179 49.2729C39.0483 46.1584 42.8135 45.6869 45.4025 48.2107C47.688 50.4385 45.1897 53.2466 42.6062 51.3533C41.1461 50.2831 39.8282 51.4275 40.2716 53.3804C40.5673 54.6836 42.8925 56.3606 44.4551 56.398C46.9255 56.4572 49.7435 53.5191 49.7873 50.838C49.8232 48.6521 47.7041 45.4745 45.3416 44.1723C43.6959 43.2648 40.9517 43.0937 38.9057 43.7705C35.4593 44.9108 32.2231 49.409 32.1326 53.1853C32.0184 57.9533 35.855 62.9272 40.8017 64.4236C42.6651 64.9871 43.2803 65.0275 45.3641 64.7235C47.9952 64.3392 50.5645 63.2667 52.3675 61.7999C55.056 59.6124 56.0994 59.3033 57.2205 60.3622C57.5601 60.6828 57.828 61.3594 57.8159 61.8656Z" fill="url(#paint11_radial)"/>
</g>
</g>
<g id="eyebrows">
<g id="eyebrow-right" filter="url(#filter8_d)">
<path d="M103.323 58.243C102.406 58.1103 101.471 58.0306 100.522 58.0072C97.9262 48.9587 90.0413 42.1465 80.4275 41.131C80.4058 39.7204 80.2598 38.3399 80 37C92.1859 37.0353 102.19 46.3458 103.323 58.243Z" fill="url(#paint12_radial)"/>
</g>
<g id="eyebrow-left" filter="url(#filter9_d)">
<path d="M58.5056 43.2273C57.9984 43.8803 57.42 44.29 57 44.5C56.5474 44.7263 55.7641 45.2113 54.8243 45.8283C51.4591 43.4682 46.7333 42 41.5 42C33.4341 42 26.5738 45.4878 24.0424 50.353C24.0143 50.0712 24 49.7867 24 49.5C24 42.5964 32.2827 37 42.5 37C49.3337 37 55.3021 39.5036 58.5056 43.2273Z" fill="url(#paint13_radial)"/>
</g>
</g>
</g>
<g id="eyes--sleepy">
<g id="Subtract" filter="url(#filter10_d)">
<path d="M56.5409 56.3418C52.5118 60.3973 46.2732 62.9999 39.2705 62.9999C32.2677 62.9999 26.0291 60.3973 22 56.3418C23.3575 64.6554 30.573 71.0002 39.2705 71.0002C47.9679 71.0002 55.1834 64.6554 56.5409 56.3418Z" fill="url(#paint14_radial)"/>
</g>
<g id="Subtract_2" filter="url(#filter11_d)">
<path d="M105.811 56.3418C101.782 60.3973 95.5437 62.9999 88.5409 62.9999C81.5382 62.9999 75.2996 60.3973 71.2704 56.3418C72.628 64.6554 79.8435 71.0002 88.5409 71.0002C97.2383 71.0002 104.454 64.6554 105.811 56.3418Z" fill="url(#paint15_radial)"/>
</g>
</g>
<g id="sleep-group">
<path id="z-small" d="M70.2704 17V16.75C70.2704 16.1977 70.7182 15.75 71.2704 15.75H81.7704C82.3227 15.75 82.7704 16.1977 82.7704 16.75V17.5858C82.7704 17.851 82.6651 18.1054 82.4776 18.2929L74.4776 26.2929C73.8476 26.9229 74.2938 28 75.1847 28H81.7704C82.3227 28 82.7704 28.4477 82.7704 29V29.5C82.7704 30.0523 82.3227 30.5 81.7704 30.5H71.2704C70.7182 30.5 70.2704 30.0523 70.2704 29.5V28.4142C70.2704 28.149 70.3758 27.8946 70.5633 27.7071L78.5633 19.7071C79.1933 19.0771 78.7471 18 77.8562 18H71.2704C70.7182 18 70.2704 17.5523 70.2704 17Z" fill="url(#paint16_linear)" stroke="#3667D7"/>
<path id="z-medium" d="M85.7704 3.50847V2C85.7704 1.44772 86.2182 1 86.7704 1H103.77C104.323 1 104.77 1.44771 104.77 2V4.10172C104.77 4.36252 104.669 4.61299 104.487 4.79974L91.2256 18.4037C90.6081 19.0372 91.057 20.1017 91.9417 20.1017H103.77C104.323 20.1017 104.77 20.5494 104.77 21.1017V23C104.77 23.5523 104.323 24 103.77 24H86.7704C86.2182 24 85.7704 23.5523 85.7704 23V20.5084C85.7704 20.2477 85.8723 19.9972 86.0544 19.8104L99.3152 6.20649C99.9328 5.57294 99.4839 4.50847 98.5992 4.50847H86.7704C86.2182 4.50847 85.7704 4.06076 85.7704 3.50847Z" fill="url(#paint17_linear)" stroke="#3667D7"/>
<path id="z-big" d="M104.77 13.7288V11C104.77 10.4477 105.218 10 105.77 10H128.77C129.323 10 129.77 10.4477 129.77 11V14.329C129.77 14.5857 129.672 14.8325 129.495 15.0184L111.378 34.0564C110.772 34.6932 111.223 35.7458 112.102 35.7458H128.77C129.323 35.7458 129.77 36.1935 129.77 36.7458V40C129.77 40.5523 129.323 41 128.77 41H105.77C105.218 41 104.77 40.5523 104.77 40V36.1455C104.77 35.8889 104.869 35.6421 105.046 35.4562L123.163 16.4182C123.769 15.7814 123.317 14.7288 122.438 14.7288H105.77C105.218 14.7288 104.77 14.2811 104.77 13.7288Z" fill="url(#paint18_linear)" stroke="#3667D7"/>
</g>
</g>
<defs>
<filter id="filter0_d" x="52" y="86" width="24" height="24" filterUnits="userSpaceOnUse" color-interpolation-filters="sRGB">
<feFlood flood-opacity="0" result="BackgroundImageFix"/>
<feColorMatrix in="SourceAlpha" type="matrix" values="0 0 0 0 0 0 0 0 0 0 0 0 0 0 0 0 0 0 127 0"/>
<feOffset dy="1"/>
<feGaussianBlur stdDeviation="1"/>
<feColorMatrix type="matrix" values="0 0 0 0 0.992157 0 0 0 0 0.964706 0 0 0 0 0.333333 0 0 0 1 0"/>
<feBlend mode="normal" in2="BackgroundImageFix" result="effect1_dropShadow"/>
<feBlend mode="normal" in="SourceGraphic" in2="effect1_dropShadow" result="shape"/>
</filter>
<filter id="filter1_d" x="62" y="78" width="21.9512" height="36.2504" filterUnits="userSpaceOnUse" color-interpolation-filters="sRGB">
<feFlood flood-opacity="0" result="BackgroundImageFix"/>
<feColorMatrix in="SourceAlpha" type="matrix" values="0 0 0 0 0 0 0 0 0 0 0 0 0 0 0 0 0 0 127 0"/>
<feOffset dx="2"/>
<feGaussianBlur stdDeviation="1.5"/>
<feColorMatrix type="matrix" values="0 0 0 0 0 0 0 0 0 0 0 0 0 0 0 0 0 0 0.25 0"/>
<feBlend mode="normal" in2="BackgroundImageFix" result="effect1_dropShadow"/>
<feBlend mode="normal" in="SourceGraphic" in2="effect1_dropShadow" result="shape"/>
</filter>
<filter id="filter2_d" x="28" y="50" width="31" height="14.2159" filterUnits="userSpaceOnUse" color-interpolation-filters="sRGB">
<feFlood flood-opacity="0" result="BackgroundImageFix"/>
<feColorMatrix in="SourceAlpha" type="matrix" values="0 0 0 0 0 0 0 0 0 0 0 0 0 0 0 0 0 0 127 0"/>
<feOffset dy="1"/>
<feGaussianBlur stdDeviation="1"/>
<feColorMatrix type="matrix" values="0 0 0 0 0.992157 0 0 0 0 0.964706 0 0 0 0 0.333333 0 0 0 1 0"/>
<feBlend mode="normal" in2="BackgroundImageFix" result="effect1_dropShadow"/>
<feBlend mode="normal" in="SourceGraphic" in2="effect1_dropShadow" result="shape"/>
</filter>
<filter id="filter3_d" x="73" y="46" width="19" height="27" filterUnits="userSpaceOnUse" color-interpolation-filters="sRGB">
<feFlood flood-opacity="0" result="BackgroundImageFix"/>
<feColorMatrix in="SourceAlpha" type="matrix" values="0 0 0 0 0 0 0 0 0 0 0 0 0 0 0 0 0 0 127 0"/>
<feOffset dy="1"/>
<feGaussianBlur stdDeviation="1"/>
<feColorMatrix type="matrix" values="0 0 0 0 0.992157 0 0 0 0 0.964706 0 0 0 0 0.333333 0 0 0 1 0"/>
<feBlend mode="normal" in2="BackgroundImageFix" result="effect1_dropShadow"/>
<feBlend mode="normal" in="SourceGraphic" in2="effect1_dropShadow" result="shape"/>
</filter>
<filter id="filter4_d" x="33" y="41" width="25" height="27.301" filterUnits="userSpaceOnUse" color-interpolation-filters="sRGB">
<feFlood flood-opacity="0" result="BackgroundImageFix"/>
<feColorMatrix in="SourceAlpha" type="matrix" values="0 0 0 0 0 0 0 0 0 0 0 0 0 0 0 0 0 0 127 0"/>
<feOffset dy="1"/>
<feGaussianBlur stdDeviation="1"/>
<feColorMatrix type="matrix" values="0 0 0 0 0.992157 0 0 0 0 0.964706 0 0 0 0 0.333333 0 0 0 1 0"/>
<feBlend mode="normal" in2="BackgroundImageFix" result="effect1_dropShadow"/>
<feBlend mode="normal" in="SourceGraphic" in2="effect1_dropShadow" result="shape"/>
</filter>
<filter id="filter5_d" x="70" y="41" width="25" height="27.301" filterUnits="userSpaceOnUse" color-interpolation-filters="sRGB">
<feFlood flood-opacity="0" result="BackgroundImageFix"/>
<feColorMatrix in="SourceAlpha" type="matrix" values="0 0 0 0 0 0 0 0 0 0 0 0 0 0 0 0 0 0 127 0"/>
<feOffset dy="1"/>
<feGaussianBlur stdDeviation="1"/>
<feColorMatrix type="matrix" values="0 0 0 0 0.992157 0 0 0 0 0.964706 0 0 0 0 0.333333 0 0 0 1 0"/>
<feBlend mode="normal" in2="BackgroundImageFix" result="effect1_dropShadow"/>
<feBlend mode="normal" in="SourceGraphic" in2="effect1_dropShadow" result="shape"/>
</filter>
<filter id="filter6_d" x="69" y="38" width="34" height="34" filterUnits="userSpaceOnUse" color-interpolation-filters="sRGB">
<feFlood flood-opacity="0" result="BackgroundImageFix"/>
<feColorMatrix in="SourceAlpha" type="matrix" values="0 0 0 0 0 0 0 0 0 0 0 0 0 0 0 0 0 0 127 0"/>
<feOffset dy="1"/>
<feGaussianBlur stdDeviation="1"/>
<feColorMatrix type="matrix" values="0 0 0 0 0.992157 0 0 0 0 0.964706 0 0 0 0 0.333333 0 0 0 1 0"/>
<feBlend mode="normal" in2="BackgroundImageFix" result="effect1_dropShadow"/>
<feBlend mode="normal" in="SourceGraphic" in2="effect1_dropShadow" result="shape"/>
</filter>
<filter id="filter7_d" x="25.645" y="37.6453" width="34.7102" height="34.7102" filterUnits="userSpaceOnUse" color-interpolation-filters="sRGB">
<feFlood flood-opacity="0" result="BackgroundImageFix"/>
<feColorMatrix in="SourceAlpha" type="matrix" values="0 0 0 0 0 0 0 0 0 0 0 0 0 0 0 0 0 0 127 0"/>
<feOffset dy="1"/>
<feGaussianBlur stdDeviation="1"/>
<feColorMatrix type="matrix" values="0 0 0 0 0.992157 0 0 0 0 0.964706 0 0 0 0 0.333333 0 0 0 1 0"/>
<feBlend mode="normal" in2="BackgroundImageFix" result="effect1_dropShadow"/>
<feBlend mode="normal" in="SourceGraphic" in2="effect1_dropShadow" result="shape"/>
</filter>
<filter id="filter8_d" x="78" y="36" width="27.3234" height="25.243" filterUnits="userSpaceOnUse" color-interpolation-filters="sRGB">
<feFlood flood-opacity="0" result="BackgroundImageFix"/>
<feColorMatrix in="SourceAlpha" type="matrix" values="0 0 0 0 0 0 0 0 0 0 0 0 0 0 0 0 0 0 127 0"/>
<feOffset dy="1"/>
<feGaussianBlur stdDeviation="1"/>
<feColorMatrix type="matrix" values="0 0 0 0 0.992157 0 0 0 0 0.964706 0 0 0 0 0.333333 0 0 0 1 0"/>
<feBlend mode="normal" in2="BackgroundImageFix" result="effect1_dropShadow"/>
<feBlend mode="normal" in="SourceGraphic" in2="effect1_dropShadow" result="shape"/>
</filter>
<filter id="filter9_d" x="22" y="36" width="38.5056" height="17.353" filterUnits="userSpaceOnUse" color-interpolation-filters="sRGB">
<feFlood flood-opacity="0" result="BackgroundImageFix"/>
<feColorMatrix in="SourceAlpha" type="matrix" values="0 0 0 0 0 0 0 0 0 0 0 0 0 0 0 0 0 0 127 0"/>
<feOffset dy="1"/>
<feGaussianBlur stdDeviation="1"/>
<feColorMatrix type="matrix" values="0 0 0 0 0.992157 0 0 0 0 0.964706 0 0 0 0 0.333333 0 0 0 1 0"/>
<feBlend mode="normal" in2="BackgroundImageFix" result="effect1_dropShadow"/>
<feBlend mode="normal" in="SourceGraphic" in2="effect1_dropShadow" result="shape"/>
</filter>
<filter id="filter10_d" x="20" y="55.3418" width="38.5409" height="18.6584" filterUnits="userSpaceOnUse" color-interpolation-filters="sRGB">
<feFlood flood-opacity="0" result="BackgroundImageFix"/>
<feColorMatrix in="SourceAlpha" type="matrix" values="0 0 0 0 0 0 0 0 0 0 0 0 0 0 0 0 0 0 127 0"/>
<feOffset dy="1"/>
<feGaussianBlur stdDeviation="1"/>
<feColorMatrix type="matrix" values="0 0 0 0 0.992157 0 0 0 0 0.964706 0 0 0 0 0.333333 0 0 0 1 0"/>
<feBlend mode="normal" in2="BackgroundImageFix" result="effect1_dropShadow"/>
<feBlend mode="normal" in="SourceGraphic" in2="effect1_dropShadow" result="shape"/>
</filter>
<filter id="filter11_d" x="69.2704" y="55.3418" width="38.5409" height="18.6584" filterUnits="userSpaceOnUse" color-interpolation-filters="sRGB">
<feFlood flood-opacity="0" result="BackgroundImageFix"/>
<feColorMatrix in="SourceAlpha" type="matrix" values="0 0 0 0 0 0 0 0 0 0 0 0 0 0 0 0 0 0 127 0"/>
<feOffset dy="1"/>
<feGaussianBlur stdDeviation="1"/>
<feColorMatrix type="matrix" values="0 0 0 0 0.992157 0 0 0 0 0.964706 0 0 0 0 0.333333 0 0 0 1 0"/>
<feBlend mode="normal" in2="BackgroundImageFix" result="effect1_dropShadow"/>
<feBlend mode="normal" in="SourceGraphic" in2="effect1_dropShadow" result="shape"/>
</filter>
<radialGradient id="paint0_radial" cx="0" cy="0" r="1" gradientUnits="userSpaceOnUse" gradientTransform="translate(64 18) rotate(90) scale(113)">
<stop offset="0.182837" stop-color="#FFFBBC"/>
<stop offset="0.598325" stop-color="#FFAE36"/>
<stop offset="0.865425" stop-color="#E58425"/>
</radialGradient>
<radialGradient id="paint1_radial" cx="0" cy="0" r="1" gradientUnits="userSpaceOnUse" gradientTransform="translate(64 16) rotate(90) scale(115)">
<stop offset="0.055727" stop-color="#FF992A"/>
<stop offset="1" stop-color="#D66B1F"/>
</radialGradient>
<radialGradient id="paint2_radial" cx="0" cy="0" r="1" gradientUnits="userSpaceOnUse" gradientTransform="translate(64 97) rotate(90) scale(10)">
<stop stop-color="#A05B1A"/>
<stop offset="1" stop-color="#59270C"/>
</radialGradient>
<radialGradient id="paint3_radial" cx="0" cy="0" r="1" gradientUnits="userSpaceOnUse" gradientTransform="translate(70.9756 96.1252) rotate(180) scale(7.97561 15.1252)">
<stop stop-color="#A05B1A"/>
<stop offset="1" stop-color="#59270C"/>
</radialGradient>
<radialGradient id="paint4_radial" cx="0" cy="0" r="1" gradientUnits="userSpaceOnUse" gradientTransform="translate(64 93.3044) rotate(90) scale(19.3044 43)">
<stop stop-color="#C4C8CA"/>
<stop offset="1" stop-color="#F8F8FA"/>
</radialGradient>
<radialGradient id="paint5_radial" cx="0" cy="0" r="1" gradientUnits="userSpaceOnUse" gradientTransform="translate(64 85.2247) rotate(90) scale(11.2247 43)">
<stop stop-color="#C4C8CA"/>
<stop offset="1" stop-color="#F8F8FA"/>
</radialGradient>
<radialGradient id="paint6_radial" cx="0" cy="0" r="1" gradientUnits="userSpaceOnUse" gradientTransform="translate(43.5 56.1079) rotate(90) scale(5.10793 13.5)">
<stop stop-color="#A05B1A"/>
<stop offset="1" stop-color="#59270C"/>
</radialGradient>
<radialGradient id="paint7_radial" cx="0" cy="0" r="1" gradientUnits="userSpaceOnUse" gradientTransform="translate(82.5 58.5) rotate(90) scale(11.5 7.5)">
<stop stop-color="#A05B1A"/>
<stop offset="1" stop-color="#59270C"/>
</radialGradient>
<radialGradient id="paint8_radial" cx="0" cy="0" r="1" gradientUnits="userSpaceOnUse" gradientTransform="translate(45.5 53.6505) rotate(90) scale(11.6505 10.5)">
<stop stop-color="#A05B1A"/>
<stop offset="1" stop-color="#59270C"/>
</radialGradient>
<radialGradient id="paint9_radial" cx="0" cy="0" r="1" gradientUnits="userSpaceOnUse" gradientTransform="translate(82.5 53.6505) rotate(90) scale(11.6505 10.5)">
<stop stop-color="#A05B1A"/>
<stop offset="1" stop-color="#59270C"/>
</radialGradient>
<radialGradient id="paint10_radial" cx="0" cy="0" r="1" gradientUnits="userSpaceOnUse" gradientTransform="translate(86 54) rotate(90) scale(15)">
<stop stop-color="#A05B1A"/>
<stop offset="1" stop-color="#59270C"/>
</radialGradient>
<radialGradient id="paint11_radial" cx="0" cy="0" r="1" gradientUnits="userSpaceOnUse" gradientTransform="translate(43 54.0004) rotate(-88.6271) scale(15)">
<stop stop-color="#A05B1A"/>
<stop offset="1" stop-color="#59270C"/>
</radialGradient>
<radialGradient id="paint12_radial" cx="0" cy="0" r="1" gradientUnits="userSpaceOnUse" gradientTransform="translate(91.6617 47.6215) rotate(90) scale(10.6215 11.6617)">
<stop stop-color="#A05B1A"/>
<stop offset="1" stop-color="#59270C"/>
</radialGradient>
<radialGradient id="paint13_radial" cx="0" cy="0" r="1" gradientUnits="userSpaceOnUse" gradientTransform="translate(40.4362 43.6765) rotate(90) scale(6.67651 16.4362)">
<stop stop-color="#A05B1A"/>
<stop offset="1" stop-color="#59270C"/>
</radialGradient>
<radialGradient id="paint14_radial" cx="0" cy="0" r="1" gradientUnits="userSpaceOnUse" gradientTransform="translate(39.2705 63.671) rotate(90) scale(7.3292 17.2705)">
<stop stop-color="#A05B1A"/>
<stop offset="1" stop-color="#59270C"/>
</radialGradient>
<radialGradient id="paint15_radial" cx="0" cy="0" r="1" gradientUnits="userSpaceOnUse" gradientTransform="translate(88.5409 63.671) rotate(90) scale(7.3292 17.2705)">
<stop stop-color="#A05B1A"/>
<stop offset="1" stop-color="#59270C"/>
</radialGradient>
<linearGradient id="paint16_linear" x1="76.5204" y1="15.75" x2="76.5204" y2="30.5" gradientUnits="userSpaceOnUse">
<stop stop-color="#386AD9"/>
<stop offset="1" stop-color="#0023B5"/>
</linearGradient>
<linearGradient id="paint17_linear" x1="95.2704" y1="1" x2="95.2704" y2="24" gradientUnits="userSpaceOnUse">
<stop stop-color="#386AD9"/>
<stop offset="1" stop-color="#0023B5"/>
</linearGradient>
<linearGradient id="paint18_linear" x1="117.27" y1="10" x2="117.27" y2="41" gradientUnits="userSpaceOnUse">
<stop stop-color="#386AD9"/>
<stop offset="1" stop-color="#0023B5"/>
</linearGradient>
</defs>
</svg>
