<svg width="128" height="128" viewBox="0 0 128 128" fill="none" xmlns="http://www.w3.org/2000/svg">
<g id="smiley-face--total">
<g id="Ellipse 3">
<circle cx="64" cy="64" r="64" fill="url(#paint0_radial)"/>
<circle cx="64" cy="64" r="60.5" stroke="url(#paint1_radial)" stroke-opacity="0.1" stroke-width="7"/>
</g>
<g id="face">
<g id="mouth-wow" filter="url(#filter0_d)">
<circle cx="64" cy="94" r="10" fill="url(#paint2_radial)"/>
</g>
<g id="lips-kiss" filter="url(#filter1_d)">
<path fill-rule="evenodd" clip-rule="evenodd" d="M69.2875 78C67.5732 78.4592 65.5914 78.8342 63.4185 79.1027C65.9287 79.5723 68.0581 80.3292 69.5617 81.2719C72.2694 82.362 73.9512 83.8861 73.9512 85.5727C73.9512 86.8727 72.9521 88.0762 71.2541 89.0587C70.9823 89.2832 70.6803 89.502 70.3504 89.7141C68.842 91.027 66.6521 92.2887 64.0228 93.3262C65.5152 94.0023 66.8386 94.748 67.942 95.5256C68.4731 95.7441 68.9698 95.9758 69.4281 96.2188C72.2139 97.3121 73.9512 98.8585 73.9512 100.573C73.9512 102.259 72.2694 103.783 69.5617 104.874C67.9752 105.868 65.6921 106.656 63 107.118C65.1064 107.401 67.0206 107.786 68.6695 108.25C74.6202 107.316 78.9512 104.456 78.9512 101.073C78.9512 97.8877 75.1129 95.1664 69.6984 94.0788C69.861 93.771 69.9512 93.4306 69.9512 93.0727C69.9512 92.7148 69.861 92.3744 69.6984 92.0666C75.1129 90.979 78.9512 88.2577 78.9512 85.0727C78.9512 81.8077 74.9177 79.03 69.2875 78Z" fill="url(#paint3_radial)"/>
</g>
<g id="mouth">
<g id="bottom-row-teeth">
<mask id="path-5-inside-1" fill="white">
<path fill-rule="evenodd" clip-rule="evenodd" d="M21 71C23.9744 92.822 42.0929 109.609 64 109.609C85.9071 109.609 104.026 92.822 107 71C93.9332 73.7403 79.3632 75.2704 64 75.2704C48.6367 75.2704 34.0668 73.7403 21 71Z"/>
</mask>
<path fill-rule="evenodd" clip-rule="evenodd" d="M21 71C23.9744 92.822 42.0929 109.609 64 109.609C85.9071 109.609 104.026 92.822 107 71C93.9332 73.7403 79.3632 75.2704 64 75.2704C48.6367 75.2704 34.0668 73.7403 21 71Z" fill="url(#paint4_radial)"/>
<path d="M21 71L21.6158 68.0639L17.4531 67.1909L18.0275 71.4052L21 71ZM107 71L109.973 71.4052L110.547 67.1909L106.384 68.0639L107 71ZM64 106.609C43.6912 106.609 26.7578 91.0295 23.9725 70.5948L18.0275 71.4052C21.191 94.6145 40.4946 112.609 64 112.609V106.609ZM104.027 70.5948C101.242 91.0295 84.3088 106.609 64 106.609V112.609C87.5054 112.609 106.809 94.6145 109.973 71.4052L104.027 70.5948ZM106.384 68.0639C93.5314 70.7593 79.1683 72.2704 64 72.2704V78.2704C79.5581 78.2704 94.335 76.7213 107.616 73.9361L106.384 68.0639ZM64 72.2704C48.8316 72.2704 34.4686 70.7593 21.6158 68.0639L20.3842 73.9361C33.665 76.7213 48.4419 78.2704 64 78.2704V72.2704Z" fill="#683510" mask="url(#path-5-inside-1)"/>
</g>
<g id="top-row-teeth">
<mask id="path-7-inside-2" fill="white">
<path fill-rule="evenodd" clip-rule="evenodd" d="M101.634 87.1085C90.7129 91.1391 77.9986 93.4495 64.4279 93.4495C50.4075 93.4495 37.3012 90.9834 26.1417 86.7021C23.5476 81.9392 21.7684 76.6376 21 71C34.0668 73.7403 48.6367 75.2704 64 75.2704C79.3632 75.2704 93.9332 73.7403 107 71C106.21 76.7985 104.35 82.2415 101.634 87.1085Z"/>
</mask>
<path fill-rule="evenodd" clip-rule="evenodd" d="M101.634 87.1085C90.7129 91.1391 77.9986 93.4495 64.4279 93.4495C50.4075 93.4495 37.3012 90.9834 26.1417 86.7021C23.5476 81.9392 21.7684 76.6376 21 71C34.0668 73.7403 48.6367 75.2704 64 75.2704C79.3632 75.2704 93.9332 73.7403 107 71C106.21 76.7985 104.35 82.2415 101.634 87.1085Z" fill="url(#paint5_radial)"/>
<path d="M101.634 87.1085L102.673 89.9229L103.713 89.5389L104.254 88.5703L101.634 87.1085ZM26.1417 86.7021L23.5072 88.137L24.0356 89.1073L25.0672 89.503L26.1417 86.7021ZM21 71L21.6158 68.0639L17.4531 67.1909L18.0275 71.4052L21 71ZM107 71L109.973 71.4052L110.547 67.1909L106.384 68.0639L107 71ZM100.595 84.294C90.0262 88.1947 77.6654 90.4495 64.4279 90.4495V96.4495C78.3317 96.4495 91.3996 94.0835 102.673 89.9229L100.595 84.294ZM64.4279 90.4495C50.751 90.4495 38.0112 88.0426 27.2163 83.9011L25.0672 89.503C36.5912 93.9242 50.064 96.4495 64.4279 96.4495V90.4495ZM18.0275 71.4052C18.8458 77.4086 20.7412 83.0586 23.5072 88.137L28.7763 85.2671C26.3541 80.8198 24.6911 75.8667 23.9725 70.5948L18.0275 71.4052ZM64 72.2704C48.8316 72.2704 34.4686 70.7593 21.6158 68.0639L20.3842 73.9361C33.665 76.7213 48.4419 78.2704 64 78.2704V72.2704ZM106.384 68.0639C93.5314 70.7593 79.1683 72.2704 64 72.2704V78.2704C79.5581 78.2704 94.335 76.7213 107.616 73.9361L106.384 68.0639ZM104.254 88.5703C107.15 83.3807 109.131 77.5799 109.973 71.4052L104.027 70.5948C103.288 76.0171 101.55 81.1022 99.0145 85.6466L104.254 88.5703Z" fill="#683510" mask="url(#path-7-inside-2)"/>
</g>
</g>
<g id="eyes--left-wink">
<g id="eye-left" filter="url(#filter2_d)">
<path fill-rule="evenodd" clip-rule="evenodd" d="M55.4942 58.2159C56.4564 57.2529 57 56.1594 57 55C57 51.134 50.9558 48 43.5 48C36.0442 48 30 51.134 30 55C30 56.1594 30.5436 57.2529 31.5058 58.2159C33.7522 56.5558 38.2801 56 43.5 56C48.7199 56 53.2478 56.5558 55.4942 58.2159Z" fill="url(#paint6_radial)"/>
</g>
<g id="eye-right" filter="url(#filter3_d)">
<ellipse cx="82.5" cy="55.5" rx="7.5" ry="11.5" fill="url(#paint7_radial)"/>
</g>
</g>
<g id="eyes">
<g id="left-eye" filter="url(#filter4_d)">
<path fill-rule="evenodd" clip-rule="evenodd" d="M53.5808 62.301C55.0916 60.3958 56 57.7775 56 54.5C56 47.0442 51.299 39 45.5 39C39.701 39 35 47.0442 35 54.5C35 57.7775 35.9084 60.3958 37.4192 62.301C38.5309 56.901 41.7286 53 45.5 53C49.2714 53 52.4691 56.901 53.5808 62.301Z" fill="url(#paint8_radial)"/>
</g>
<g id="right-eye" filter="url(#filter5_d)">
<path fill-rule="evenodd" clip-rule="evenodd" d="M90.5808 62.301C92.0916 60.3958 93 57.7775 93 54.5C93 47.0442 88.299 39 82.5 39C76.701 39 72 47.0442 72 54.5C72 57.7775 72.9084 60.3958 74.4192 62.301C75.5309 56.901 78.7286 53 82.5 53C86.2714 53 89.4691 56.901 90.5808 62.301Z" fill="url(#paint9_radial)"/>
</g>
<g id="right-eye-dizzy" filter="url(#filter6_d)">
<path d="M71 43.492C71 41.7309 75.4831 38.3331 79.9009 36.7463C81.8974 36.0293 82.6915 35.9311 85.6675 36.0347C90.2941 36.1961 92.8118 37.3089 96.2219 40.7004C99.5409 44.0014 100.779 46.6588 100.96 50.869C101.075 53.5563 100.976 54.2647 100.197 56.3139C98.6253 60.4476 96.0714 63.2134 92.1302 65.0504C89.4027 66.3218 85.527 66.316 82.7305 65.036C74.1913 61.1272 72.5582 50.7242 79.7208 45.8628C81.2089 44.853 81.7677 44.6831 83.9695 44.5726C87.1028 44.4154 88.8391 45.1448 91.1314 47.5821C93.6369 50.246 93.98 52.83 92.1937 55.5804C90.1385 58.7451 86.3857 59.3066 83.7369 56.8456C81.3987 54.6732 83.8291 51.8061 86.4571 53.6369C87.9425 54.6718 89.2326 53.4962 88.7425 51.5545C88.4157 50.2587 86.0509 48.6379 84.4879 48.6379C82.0168 48.6379 79.2701 51.6427 79.2904 54.3241C79.307 56.5102 81.5016 59.6361 83.8946 60.8814C85.5615 61.7491 88.309 61.8545 90.3383 61.1289C93.7564 59.9063 96.8838 55.3319 96.8838 51.5545C96.8838 46.7851 92.9291 41.9045 87.948 40.5271C86.0716 40.0085 85.4556 39.9827 83.3797 40.3366C80.7585 40.7839 78.2157 41.9176 76.4484 43.4272C73.8131 45.6785 72.7774 46.0125 71.6312 44.9807C71.284 44.6683 71 43.9983 71 43.492Z" fill="url(#paint10_radial)"/>
</g>
<g id="left-eye--dizzy" filter="url(#filter7_d)">
<path d="M57.8159 58.8656C57.7737 60.6263 53.2105 63.9156 48.7559 65.3961C46.7428 66.0651 45.9465 66.1442 42.9739 65.9693C38.3525 65.6972 35.8622 64.5244 32.5343 61.0521C29.2954 57.6725 28.1211 54.9863 28.0412 50.7729C27.9904 48.0837 28.1063 47.3778 28.9345 45.3479C30.6047 41.2531 33.2242 38.5492 37.2083 36.8071C39.9654 35.6014 43.8398 35.7001 46.6048 37.0467C55.048 41.159 56.4314 51.5982 49.1544 56.2865C47.6425 57.2604 47.0798 57.4169 44.8759 57.4746C41.7398 57.5567 40.0214 56.7859 37.7882 54.2943C35.3472 51.5712 35.0662 48.9798 36.9179 46.2729C39.0483 43.1584 42.8135 42.6869 45.4025 45.2107C47.688 47.4385 45.1897 50.2466 42.6062 48.3533C41.1461 47.2831 39.8282 48.4275 40.2716 50.3804C40.5673 51.6836 42.8925 53.3606 44.4551 53.398C46.9255 53.4572 49.7435 50.5191 49.7873 47.838C49.8232 45.6521 47.7041 42.4745 45.3416 41.1723C43.6959 40.2648 40.9517 40.0937 38.9057 40.7705C35.4593 41.9108 32.2231 46.409 32.1326 50.1853C32.0184 54.9533 35.855 59.9272 40.8017 61.4236C42.6651 61.9871 43.2803 62.0275 45.3641 61.7235C47.9952 61.3392 50.5645 60.2667 52.3675 58.7999C55.056 56.6124 56.0994 56.3033 57.2205 57.3622C57.5601 57.6828 57.828 58.3594 57.8159 58.8656Z" fill="url(#paint11_radial)"/>
</g>
</g>
</g>
</g>
<defs>
<filter id="filter0_d" x="52" y="83" width="24" height="24" filterUnits="userSpaceOnUse" color-interpolation-filters="sRGB">
<feFlood flood-opacity="0" result="BackgroundImageFix"/>
<feColorMatrix in="SourceAlpha" type="matrix" values="0 0 0 0 0 0 0 0 0 0 0 0 0 0 0 0 0 0 127 0"/>
<feOffset dy="1"/>
<feGaussianBlur stdDeviation="1"/>
<feColorMatrix type="matrix" values="0 0 0 0 0.992157 0 0 0 0 0.964706 0 0 0 0 0.333333 0 0 0 1 0"/>
<feBlend mode="normal" in2="BackgroundImageFix" result="effect1_dropShadow"/>
<feBlend mode="normal" in="SourceGraphic" in2="effect1_dropShadow" result="shape"/>
</filter>
<filter id="filter1_d" x="62" y="75" width="21.9512" height="36.2504" filterUnits="userSpaceOnUse" color-interpolation-filters="sRGB">
<feFlood flood-opacity="0" result="BackgroundImageFix"/>
<feColorMatrix in="SourceAlpha" type="matrix" values="0 0 0 0 0 0 0 0 0 0 0 0 0 0 0 0 0 0 127 0"/>
<feOffset dx="2"/>
<feGaussianBlur stdDeviation="1.5"/>
<feColorMatrix type="matrix" values="0 0 0 0 0 0 0 0 0 0 0 0 0 0 0 0 0 0 0.25 0"/>
<feBlend mode="normal" in2="BackgroundImageFix" result="effect1_dropShadow"/>
<feBlend mode="normal" in="SourceGraphic" in2="effect1_dropShadow" result="shape"/>
</filter>
<filter id="filter2_d" x="28" y="47" width="31" height="14.2159" filterUnits="userSpaceOnUse" color-interpolation-filters="sRGB">
<feFlood flood-opacity="0" result="BackgroundImageFix"/>
<feColorMatrix in="SourceAlpha" type="matrix" values="0 0 0 0 0 0 0 0 0 0 0 0 0 0 0 0 0 0 127 0"/>
<feOffset dy="1"/>
<feGaussianBlur stdDeviation="1"/>
<feColorMatrix type="matrix" values="0 0 0 0 0.992157 0 0 0 0 0.964706 0 0 0 0 0.333333 0 0 0 1 0"/>
<feBlend mode="normal" in2="BackgroundImageFix" result="effect1_dropShadow"/>
<feBlend mode="normal" in="SourceGraphic" in2="effect1_dropShadow" result="shape"/>
</filter>
<filter id="filter3_d" x="73" y="43" width="19" height="27" filterUnits="userSpaceOnUse" color-interpolation-filters="sRGB">
<feFlood flood-opacity="0" result="BackgroundImageFix"/>
<feColorMatrix in="SourceAlpha" type="matrix" values="0 0 0 0 0 0 0 0 0 0 0 0 0 0 0 0 0 0 127 0"/>
<feOffset dy="1"/>
<feGaussianBlur stdDeviation="1"/>
<feColorMatrix type="matrix" values="0 0 0 0 0.992157 0 0 0 0 0.964706 0 0 0 0 0.333333 0 0 0 1 0"/>
<feBlend mode="normal" in2="BackgroundImageFix" result="effect1_dropShadow"/>
<feBlend mode="normal" in="SourceGraphic" in2="effect1_dropShadow" result="shape"/>
</filter>
<filter id="filter4_d" x="33" y="38" width="25" height="27.301" filterUnits="userSpaceOnUse" color-interpolation-filters="sRGB">
<feFlood flood-opacity="0" result="BackgroundImageFix"/>
<feColorMatrix in="SourceAlpha" type="matrix" values="0 0 0 0 0 0 0 0 0 0 0 0 0 0 0 0 0 0 127 0"/>
<feOffset dy="1"/>
<feGaussianBlur stdDeviation="1"/>
<feColorMatrix type="matrix" values="0 0 0 0 0.992157 0 0 0 0 0.964706 0 0 0 0 0.333333 0 0 0 1 0"/>
<feBlend mode="normal" in2="BackgroundImageFix" result="effect1_dropShadow"/>
<feBlend mode="normal" in="SourceGraphic" in2="effect1_dropShadow" result="shape"/>
</filter>
<filter id="filter5_d" x="70" y="38" width="25" height="27.301" filterUnits="userSpaceOnUse" color-interpolation-filters="sRGB">
<feFlood flood-opacity="0" result="BackgroundImageFix"/>
<feColorMatrix in="SourceAlpha" type="matrix" values="0 0 0 0 0 0 0 0 0 0 0 0 0 0 0 0 0 0 127 0"/>
<feOffset dy="1"/>
<feGaussianBlur stdDeviation="1"/>
<feColorMatrix type="matrix" values="0 0 0 0 0.992157 0 0 0 0 0.964706 0 0 0 0 0.333333 0 0 0 1 0"/>
<feBlend mode="normal" in2="BackgroundImageFix" result="effect1_dropShadow"/>
<feBlend mode="normal" in="SourceGraphic" in2="effect1_dropShadow" result="shape"/>
</filter>
<filter id="filter6_d" x="69" y="35" width="34" height="34" filterUnits="userSpaceOnUse" color-interpolation-filters="sRGB">
<feFlood flood-opacity="0" result="BackgroundImageFix"/>
<feColorMatrix in="SourceAlpha" type="matrix" values="0 0 0 0 0 0 0 0 0 0 0 0 0 0 0 0 0 0 127 0"/>
<feOffset dy="1"/>
<feGaussianBlur stdDeviation="1"/>
<feColorMatrix type="matrix" values="0 0 0 0 0.992157 0 0 0 0 0.964706 0 0 0 0 0.333333 0 0 0 1 0"/>
<feBlend mode="normal" in2="BackgroundImageFix" result="effect1_dropShadow"/>
<feBlend mode="normal" in="SourceGraphic" in2="effect1_dropShadow" result="shape"/>
</filter>
<filter id="filter7_d" x="25.645" y="34.6453" width="34.7102" height="34.7102" filterUnits="userSpaceOnUse" color-interpolation-filters="sRGB">
<feFlood flood-opacity="0" result="BackgroundImageFix"/>
<feColorMatrix in="SourceAlpha" type="matrix" values="0 0 0 0 0 0 0 0 0 0 0 0 0 0 0 0 0 0 127 0"/>
<feOffset dy="1"/>
<feGaussianBlur stdDeviation="1"/>
<feColorMatrix type="matrix" values="0 0 0 0 0.992157 0 0 0 0 0.964706 0 0 0 0 0.333333 0 0 0 1 0"/>
<feBlend mode="normal" in2="BackgroundImageFix" result="effect1_dropShadow"/>
<feBlend mode="normal" in="SourceGraphic" in2="effect1_dropShadow" result="shape"/>
</filter>
<radialGradient id="paint0_radial" cx="0" cy="0" r="1" gradientUnits="userSpaceOnUse" gradientTransform="translate(64 15) rotate(90) scale(113)">
<stop offset="0.182837" stop-color="#FFFBBC"/>
<stop offset="0.598325" stop-color="#FFAE36"/>
<stop offset="0.865425" stop-color="#E58425"/>
</radialGradient>
<radialGradient id="paint1_radial" cx="0" cy="0" r="1" gradientUnits="userSpaceOnUse" gradientTransform="translate(64 13) rotate(90) scale(115)">
<stop offset="0.055727" stop-color="#FF992A"/>
<stop offset="1" stop-color="#D66B1F"/>
</radialGradient>
<radialGradient id="paint2_radial" cx="0" cy="0" r="1" gradientUnits="userSpaceOnUse" gradientTransform="translate(64 94) rotate(90) scale(10)">
<stop stop-color="#A05B1A"/>
<stop offset="1" stop-color="#59270C"/>
</radialGradient>
<radialGradient id="paint3_radial" cx="0" cy="0" r="1" gradientUnits="userSpaceOnUse" gradientTransform="translate(70.9756 93.1252) rotate(180) scale(7.97561 15.1252)">
<stop stop-color="#A05B1A"/>
<stop offset="1" stop-color="#59270C"/>
</radialGradient>
<radialGradient id="paint4_radial" cx="0" cy="0" r="1" gradientUnits="userSpaceOnUse" gradientTransform="translate(64 90.3044) rotate(90) scale(19.3044 43)">
<stop stop-color="#C4C8CA"/>
<stop offset="1" stop-color="#F8F8FA"/>
</radialGradient>
<radialGradient id="paint5_radial" cx="0" cy="0" r="1" gradientUnits="userSpaceOnUse" gradientTransform="translate(64 82.2247) rotate(90) scale(11.2247 43)">
<stop stop-color="#C4C8CA"/>
<stop offset="1" stop-color="#F8F8FA"/>
</radialGradient>
<radialGradient id="paint6_radial" cx="0" cy="0" r="1" gradientUnits="userSpaceOnUse" gradientTransform="translate(43.5 53.1079) rotate(90) scale(5.10793 13.5)">
<stop stop-color="#A05B1A"/>
<stop offset="1" stop-color="#59270C"/>
</radialGradient>
<radialGradient id="paint7_radial" cx="0" cy="0" r="1" gradientUnits="userSpaceOnUse" gradientTransform="translate(82.5 55.5) rotate(90) scale(11.5 7.5)">
<stop stop-color="#A05B1A"/>
<stop offset="1" stop-color="#59270C"/>
</radialGradient>
<radialGradient id="paint8_radial" cx="0" cy="0" r="1" gradientUnits="userSpaceOnUse" gradientTransform="translate(45.5 50.6505) rotate(90) scale(11.6505 10.5)">
<stop stop-color="#A05B1A"/>
<stop offset="1" stop-color="#59270C"/>
</radialGradient>
<radialGradient id="paint9_radial" cx="0" cy="0" r="1" gradientUnits="userSpaceOnUse" gradientTransform="translate(82.5 50.6505) rotate(90) scale(11.6505 10.5)">
<stop stop-color="#A05B1A"/>
<stop offset="1" stop-color="#59270C"/>
</radialGradient>
<radialGradient id="paint10_radial" cx="0" cy="0" r="1" gradientUnits="userSpaceOnUse" gradientTransform="translate(86 51) rotate(90) scale(15)">
<stop stop-color="#A05B1A"/>
<stop offset="1" stop-color="#59270C"/>
</radialGradient>
<radialGradient id="paint11_radial" cx="0" cy="0" r="1" gradientUnits="userSpaceOnUse" gradientTransform="translate(43 51.0004) rotate(-88.6271) scale(15)">
<stop stop-color="#A05B1A"/>
<stop offset="1" stop-color="#59270C"/>
</radialGradient>
</defs>
</svg>
