<?xml version="1.0" encoding="UTF-8"?>
<svg width="85px" height="69px" viewBox="0 0 85 69" version="1.1" xmlns="http://www.w3.org/2000/svg" xmlns:xlink="http://www.w3.org/1999/xlink">
    <!-- Generator: Sketch 61.2 (89653) - https://sketch.com -->
    <title>Path</title>
    <desc>Created with Sketch.</desc>
    <g id="Page-1" stroke="none" stroke-width="1" fill="none" fill-rule="evenodd">
        <g id="LANDING-PAGE----Copy-3" transform="translate(-653.000000, -4260.000000)" fill="#182848" fill-rule="nonzero">
            <g id="PAST-WORK" transform="translate(0.000000, 2849.000000)">
                <g id="Group-7" transform="translate(220.000000, 1374.000000)">
                    <g id="twitter" transform="translate(433.000000, 37.000000)">
                        <path d="M84.8335486,8.18712513 C81.6993042,9.55810735 78.3525686,10.492067 74.8287571,10.9185164 C78.4198575,8.76512278 81.1822424,5.37114882 82.489063,1.32164095 C79.1210783,3.27766955 75.3883172,4.7015174 71.4147327,5.49450197 C68.2415316,2.11462552 63.7190117,0 58.6971376,0 C49.0748302,0 41.2728636,7.76420003 41.2728636,17.3293561 C41.2728636,18.7038627 41.432232,20.0255037 41.7226366,21.2907546 C27.2378234,20.6105501 14.3998167,13.6886759 5.80809133,3.22480392 C4.29586267,5.76940329 3.44943961,8.72635464 3.44943961,11.9476342 C3.44943961,17.9743169 6.53056123,23.2714538 11.1982834,26.3834777 C8.34027749,26.291844 5.65226449,25.5094325 3.30777884,24.2124622 L3.30777884,24.4274491 C3.30777884,32.8330856 9.30357068,39.8430692 17.2826132,41.4396114 C15.8199658,41.8308171 14.2758635,42.0422797 12.6928045,42.0422797 C11.5807675,42.0422797 10.5147702,41.9365484 9.44877297,41.7391834 C11.6834715,48.6222894 18.1077872,53.6410007 25.7539269,53.7819757 C19.8041748,58.4306275 12.2642807,61.2007869 4.14357735,61.2007869 C2.7623849,61.2007869 1.38473397,61.1197263 0,60.9646537 C7.75238532,65.8776337 16.8859631,68.75 26.7632599,68.75 C58.8281738,68.75 76.3409858,42.3312785 76.3409858,19.4580792 C76.3409858,18.7214846 76.3409858,17.9778413 76.287863,17.2377224 C79.6912629,14.8094274 82.6625974,11.739696 85,8.25761265 L84.8335486,8.18712513 Z" id="Path"></path>
                    </g>
                </g>
            </g>
        </g>
    </g>
</svg>