<?xml version="1.0" encoding="UTF-8"?>
<svg width="150px" height="22px" viewBox="0 0 150 22" version="1.1" xmlns="http://www.w3.org/2000/svg" xmlns:xlink="http://www.w3.org/1999/xlink">
    <!-- Generator: Sketch 42 (36781) - http://www.bohemiancoding.com/sketch -->
    <title>Group 5</title>
    <desc>Created with Sketch.</desc>
    <defs></defs>
    <g id="Symbols" stroke="none" stroke-width="1" fill="none" fill-rule="evenodd">
        <g id="web/testimonial" transform="translate(-999.000000, -218.000000)" fill="#0A9FD3">
            <g id="Group-51">
                <g transform="translate(307.000000, 70.000000)">
                    <g id="Group-30">
                        <g id="Group-14">
                            <g id="Group-27" transform="translate(0.000000, 139.000000)">
                                <g id="Group-26">
                                    <g id="Group-42">
                                        <g id="Group-5" transform="translate(692.000000, 9.000000)">
                                            <polygon id="Shape" points="11.0000002 0 14.6935202 6.81598821 22 8.40325243 16.9762411 14.2030286 17.7983738 22 10.9999998 18.7684707 4.20162577 22 5.02375882 14.2030286 0 8.40325181 7.30647973 6.815988"></polygon>
                                            <polygon id="Shape" points="43.0000002 0 46.6935202 6.81598821 54 8.40325243 48.9762411 14.2030286 49.7983738 22 42.9999998 18.7684707 36.2016258 22 37.0237588 14.2030286 32 8.40325181 39.3064797 6.815988"></polygon>
                                            <polygon id="Shape" points="75.0000002 0 78.6935202 6.81598821 86 8.40325243 80.9762411 14.2030286 81.7983738 22 74.9999998 18.7684707 68.2016258 22 69.0237588 14.2030286 64 8.40325181 71.3064797 6.815988"></polygon>
                                            <polygon id="Shape" points="107 0 110.69352 6.81598821 118 8.40325243 112.976241 14.2030286 113.798374 22 107 18.7684707 100.201626 22 101.023759 14.2030286 96 8.40325181 103.30648 6.815988"></polygon>
                                            <polygon id="Shape" points="139 0 142.69352 6.81598821 150 8.40325243 144.976241 14.2030286 145.798374 22 139 18.7684707 132.201626 22 133.023759 14.2030286 128 8.40325181 135.30648 6.815988"></polygon>
                                        </g>
                                    </g>
                                </g>
                            </g>
                        </g>
                    </g>
                </g>
            </g>
        </g>
    </g>
</svg>