<svg width="4000" height="2000" viewBox="0 0 4000 2000" fill="none" xmlns="http://www.w3.org/2000/svg">
<path fill-rule="evenodd" clip-rule="evenodd" d="M4000 1999.24V0L0 270.517V2000L4000 1999.24ZM1719.64 831.326C1723.44 838.51 1723.08 847.182 1718.71 854.027L1645.89 968.012C1636.42 982.832 1619.86 991.589 1602.28 991.071L1467.08 987.089C1458.96 986.85 1451.59 982.262 1447.79 975.077L1376.66 840.56C1372.86 833.366 1373.22 824.683 1377.6 817.834L1450.54 703.994C1460 689.223 1476.51 680.492 1494.05 680.986L1629.19 684.795C1637.32 685.024 1644.7 689.614 1648.51 696.808L1719.64 831.326ZM1625.59 644.73C1633.7 645.095 1641.39 641.067 1645.71 634.184L1726.64 505.323C1730.97 498.431 1731.26 489.745 1727.39 482.59L1663.12 363.646C1654.78 348.213 1638.96 338.279 1621.44 337.47L1486.38 331.228C1478.26 330.853 1470.56 334.882 1466.23 341.773L1385.3 470.635C1380.98 477.518 1380.69 486.191 1384.54 493.342L1448.69 612.422C1457.03 627.905 1472.9 637.867 1490.47 638.657L1625.59 644.73ZM1166.27 802.1C1158.15 801.798 1150.82 797.155 1147.08 789.945L1084.78 669.887C1076.67 654.277 1077.37 635.558 1086.61 620.593L1157.66 505.495C1161.92 498.583 1169.58 494.497 1177.7 494.799L1329.77 500.455C1337.9 500.758 1345.24 505.412 1348.97 512.636L1411.1 632.717C1419.16 648.298 1418.46 666.963 1409.27 681.902L1338.4 797.036C1334.13 803.963 1326.47 808.059 1318.34 807.756L1166.27 802.1Z" fill="#F4F9FB"/>
</svg>
