<svg width="357" height="360" viewBox="0 0 357 360" fill="none" xmlns="http://www.w3.org/2000/svg">
<path d="M357 157C357 243.709 232 360 178.5 360C122 360 0 243.709 0 157C0 70.2913 79.9172 0 178.5 0C277.083 0 357 70.2913 357 157Z" fill="url(#paint0_radial_61_672)"/>
<g filter="url(#filter0_d_61_672)">
<path d="M223.8 291.388C223.964 290.512 222.961 289.914 222.225 290.418C211.586 297.704 195.541 302.343 177.591 302.343C159.642 302.343 143.597 297.704 132.958 290.418C132.222 289.914 131.219 290.512 131.384 291.389C135.439 312.988 154.585 329.343 177.592 329.343C200.598 329.343 219.744 312.988 223.8 291.388Z" fill="#1F292A"/>
</g>
<g filter="url(#filter1_d_61_672)">
<ellipse cx="259.497" cy="184" rx="56" ry="74" transform="rotate(30 259.497 184)" fill="url(#paint1_radial_61_672)"/>
</g>
<g filter="url(#filter2_d_61_672)">
<ellipse cx="56" cy="74" rx="56" ry="74" transform="matrix(-0.866025 0.5 0.5 0.866025 108.995 92)" fill="url(#paint2_radial_61_672)"/>
</g>
<defs>
<filter id="filter0_d_61_672" x="130.366" y="290.233" width="94.4517" height="43.1094" filterUnits="userSpaceOnUse" color-interpolation-filters="sRGB">
<feFlood flood-opacity="0" result="BackgroundImageFix"/>
<feColorMatrix in="SourceAlpha" type="matrix" values="0 0 0 0 0 0 0 0 0 0 0 0 0 0 0 0 0 0 127 0" result="hardAlpha"/>
<feOffset dy="3"/>
<feGaussianBlur stdDeviation="0.5"/>
<feComposite in2="hardAlpha" operator="out"/>
<feColorMatrix type="matrix" values="0 0 0 0 0.780392 0 0 0 0 0.858824 0 0 0 0 0.866667 0 0 0 1 0"/>
<feBlend mode="normal" in2="BackgroundImageFix" result="effect1_dropShadow_61_672"/>
<feBlend mode="normal" in="SourceGraphic" in2="effect1_dropShadow_61_672" result="shape"/>
</filter>
<filter id="filter1_d_61_672" x="198.494" y="114.046" width="123.006" height="141.907" filterUnits="userSpaceOnUse" color-interpolation-filters="sRGB">
<feFlood flood-opacity="0" result="BackgroundImageFix"/>
<feColorMatrix in="SourceAlpha" type="matrix" values="0 0 0 0 0 0 0 0 0 0 0 0 0 0 0 0 0 0 127 0" result="hardAlpha"/>
<feOffset dx="1" dy="2"/>
<feComposite in2="hardAlpha" operator="out"/>
<feColorMatrix type="matrix" values="0 0 0 0 0.752941 0 0 0 0 0.823529 0 0 0 0 0.823529 0 0 0 1 0"/>
<feBlend mode="normal" in2="BackgroundImageFix" result="effect1_dropShadow_61_672"/>
<feBlend mode="normal" in="SourceGraphic" in2="effect1_dropShadow_61_672" result="shape"/>
</filter>
<filter id="filter2_d_61_672" x="35.4941" y="114.132" width="123.006" height="141.907" filterUnits="userSpaceOnUse" color-interpolation-filters="sRGB">
<feFlood flood-opacity="0" result="BackgroundImageFix"/>
<feColorMatrix in="SourceAlpha" type="matrix" values="0 0 0 0 0 0 0 0 0 0 0 0 0 0 0 0 0 0 127 0" result="hardAlpha"/>
<feOffset dx="-1" dy="2"/>
<feComposite in2="hardAlpha" operator="out"/>
<feColorMatrix type="matrix" values="0 0 0 0 0.752941 0 0 0 0 0.823529 0 0 0 0 0.823529 0 0 0 1 0"/>
<feBlend mode="normal" in2="BackgroundImageFix" result="effect1_dropShadow_61_672"/>
<feBlend mode="normal" in="SourceGraphic" in2="effect1_dropShadow_61_672" result="shape"/>
</filter>
<radialGradient id="paint0_radial_61_672" cx="0" cy="0" r="1" gradientUnits="userSpaceOnUse" gradientTransform="translate(178.5 135) rotate(90) scale(225 223.125)">
<stop offset="0.0318613" stop-color="#D9EEEF"/>
<stop offset="1" stop-color="#7D8C8D"/>
</radialGradient>
<radialGradient id="paint1_radial_61_672" cx="0" cy="0" r="1" gradientUnits="userSpaceOnUse" gradientTransform="translate(254.497 159) rotate(93.7113) scale(92.6944 70.1471)">
<stop offset="0.0585801" stop-color="#D9D9D9"/>
<stop offset="0.474715" stop-color="#122123"/>
</radialGradient>
<radialGradient id="paint2_radial_61_672" cx="0" cy="0" r="1" gradientUnits="userSpaceOnUse" gradientTransform="translate(51 49) rotate(93.7113) scale(92.6944 70.1471)">
<stop offset="0.0585801" stop-color="#D9D9D9"/>
<stop offset="0.474715" stop-color="#122123"/>
</radialGradient>
</defs>
</svg>
