<svg width="2936" height="1904" viewBox="0 0 2936 1904" fill="none" xmlns="http://www.w3.org/2000/svg">
<rect width="2936" height="1904" fill="#1E1E1E"/>
<g id="background--full">
<g id="moon" filter="url(#filter0_di_0_1)">
<circle cx="1000.5" cy="511.5" r="172.5" fill="#A09A93"/>
</g>
<g id="ufo--full--behind">
<g id="Group 77">
<g id="Group 71">
<path id="Vector 10" d="M709.445 395.868C686.816 395.868 665.689 385.907 655.521 379.247C653.965 378.228 654.716 376.045 656.575 376.045H757.398C759.354 376.045 760.084 378.465 758.402 379.466C746.635 386.463 725.674 396.204 709.445 395.868Z" fill="url(#paint0_radial_0_1)"/>
<g id="Vector 9" filter="url(#filter1_dd_0_1)">
<path d="M707.793 355.067L656.781 373.985C654.811 374.716 655.169 377.598 657.256 377.84C698.92 382.666 717.718 383.765 756.754 377.999C758.775 377.701 759.089 374.932 757.184 374.194L707.793 355.067Z" fill="url(#paint1_linear_0_1)"/>
<path d="M707.793 355.067L656.781 373.985C654.811 374.716 655.169 377.598 657.256 377.84C698.92 382.666 717.718 383.765 756.754 377.999C758.775 377.701 759.089 374.932 757.184 374.194L707.793 355.067Z" stroke="#B63737"/>
</g>
<g id="Ellipse 57" filter="url(#filter2_d_0_1)">
<path d="M729.135 363.161C729.135 368.908 717.222 364.647 706.214 364.647C695.206 364.647 684.29 368.908 684.29 363.161C684.29 357.413 695.704 349.285 706.712 349.285C717.72 349.285 729.135 357.413 729.135 363.161Z" fill="url(#paint2_radial_0_1)"/>
</g>
</g>
<g id="Group 74" filter="url(#filter3_d_0_1)">
<g id="Group 72">
<ellipse id="Ellipse 59" cx="725.39" cy="387.444" rx="2.49141" ry="2.47784" fill="url(#paint3_linear_0_1)"/>
<ellipse id="Ellipse 60" cx="741.833" cy="383.975" rx="1.99313" ry="1.98227" fill="url(#paint4_linear_0_1)"/>
</g>
<g id="Group 73">
<ellipse id="Ellipse 58" cx="3.48797" cy="3.46898" rx="3.48797" ry="3.46898" transform="matrix(-1 0 0 1 710.129 385.958)" fill="url(#paint5_linear_0_1)"/>
<ellipse id="Ellipse 59_2" cx="2.49141" cy="2.47784" rx="2.49141" ry="2.47784" transform="matrix(-1 0 0 1 692.006 384.966)" fill="url(#paint6_linear_0_1)"/>
<ellipse id="Ellipse 60_2" cx="1.99313" cy="1.98227" rx="1.99313" ry="1.98227" transform="matrix(-1 0 0 1 675.064 381.993)" fill="url(#paint7_linear_0_1)"/>
</g>
</g>
</g>
</g>
<path id="Subtract" fill-rule="evenodd" clip-rule="evenodd" d="M2936 1902.5V0L0 198.559V1903.06L2936 1902.5ZM800.048 390.411C800.023 393.789 801.817 396.921 804.746 398.612L859.578 430.269C862.51 431.962 866.126 431.948 869.04 430.231L922.427 398.784C925.648 396.887 927.637 393.442 927.669 389.705L928.21 327.746C928.239 324.364 926.444 321.225 923.512 319.533L868.68 287.875C865.751 286.185 862.141 286.197 859.228 287.908L805.764 319.309C802.533 321.207 800.539 324.662 800.511 328.408L800.048 390.411ZM871.341 512.634C871.316 516.012 873.111 519.145 876.039 520.836L930.871 552.493C933.803 554.186 937.419 554.171 940.333 552.454L993.721 521.007C996.941 519.11 998.93 515.666 998.962 511.928L999.503 449.97C999.532 446.587 997.737 443.449 994.805 441.756L939.973 410.099C937.045 408.408 933.434 408.42 930.521 410.131L877.057 441.533C873.826 443.43 871.832 446.885 871.804 450.632L871.341 512.634ZM941.543 391.041C941.518 394.419 943.313 397.551 946.241 399.242L1001.07 430.899C1004.01 432.592 1007.62 432.578 1010.54 430.861L1063.92 399.414C1067.14 397.517 1069.13 394.072 1069.16 390.335L1069.7 328.376C1069.73 324.994 1067.94 321.856 1065.01 320.163L1010.18 288.505C1007.25 286.815 1003.64 286.827 1000.72 288.538L947.259 319.939C944.028 321.837 942.034 325.292 942.006 329.038L941.543 391.041Z" fill="#F4F9FB"/>
<g id="ufo--full--front">
<g id="Group 77_2">
<g id="Group 71_2">
<path id="Vector 10_2" d="M936.975 496.784C914.346 496.784 893.219 486.822 883.051 480.163C881.496 479.144 882.246 476.961 884.105 476.961H984.928C986.885 476.961 987.615 479.381 985.933 480.381C974.165 487.379 953.204 497.12 936.975 496.784Z" fill="url(#paint8_radial_0_1)"/>
<g id="Vector 9_2" filter="url(#filter4_dd_0_1)">
<path d="M935.323 455.982L884.311 474.9C882.341 475.631 882.699 478.513 884.786 478.755C926.449 483.581 945.248 484.68 984.284 478.914C986.305 478.616 986.619 475.847 984.714 475.109L935.323 455.982Z" fill="url(#paint9_linear_0_1)"/>
<path d="M935.323 455.982L884.311 474.9C882.341 475.631 882.699 478.513 884.786 478.755C926.449 483.581 945.248 484.68 984.284 478.914C986.305 478.616 986.619 475.847 984.714 475.109L935.323 455.982Z" stroke="#B63737"/>
</g>
<g id="Ellipse 57_2" filter="url(#filter5_d_0_1)">
<path d="M956.665 464.076C956.665 469.824 944.751 465.563 933.744 465.563C922.736 465.563 911.819 469.824 911.819 464.076C911.819 458.329 923.234 450.2 934.242 450.2C945.25 450.2 956.665 458.329 956.665 464.076Z" fill="url(#paint10_radial_0_1)"/>
</g>
</g>
<g id="Group 74_2" filter="url(#filter6_d_0_1)">
<g id="Group 72_2">
<ellipse id="Ellipse 59_3" cx="952.92" cy="488.359" rx="2.49141" ry="2.47784" fill="url(#paint11_linear_0_1)"/>
<ellipse id="Ellipse 60_3" cx="969.363" cy="484.89" rx="1.99313" ry="1.98227" fill="url(#paint12_linear_0_1)"/>
</g>
<g id="Group 73_2">
<ellipse id="Ellipse 58_2" cx="3.48797" cy="3.46898" rx="3.48797" ry="3.46898" transform="matrix(-1 0 0 1 937.659 486.873)" fill="url(#paint13_linear_0_1)"/>
<ellipse id="Ellipse 59_4" cx="2.49141" cy="2.47784" rx="2.49141" ry="2.47784" transform="matrix(-1 0 0 1 919.535 485.881)" fill="url(#paint14_linear_0_1)"/>
<ellipse id="Ellipse 60_4" cx="1.99313" cy="1.98227" rx="1.99313" ry="1.98227" transform="matrix(-1 0 0 1 902.594 482.908)" fill="url(#paint15_linear_0_1)"/>
</g>
</g>
</g>
</g>
</g>
<defs>
<filter id="filter0_di_0_1" x="758" y="269" width="485" height="485" filterUnits="userSpaceOnUse" color-interpolation-filters="sRGB">
<feFlood flood-opacity="0" result="BackgroundImageFix"/>
<feColorMatrix in="SourceAlpha" type="matrix" values="0 0 0 0 0 0 0 0 0 0 0 0 0 0 0 0 0 0 127 0" result="hardAlpha"/>
<feOffset/>
<feGaussianBlur stdDeviation="35"/>
<feComposite in2="hardAlpha" operator="out"/>
<feColorMatrix type="matrix" values="0 0 0 0 1 0 0 0 0 1 0 0 0 0 1 0 0 0 1 0"/>
<feBlend mode="normal" in2="BackgroundImageFix" result="effect1_dropShadow_0_1"/>
<feBlend mode="normal" in="SourceGraphic" in2="effect1_dropShadow_0_1" result="shape"/>
<feColorMatrix in="SourceAlpha" type="matrix" values="0 0 0 0 0 0 0 0 0 0 0 0 0 0 0 0 0 0 127 0" result="hardAlpha"/>
<feOffset/>
<feGaussianBlur stdDeviation="25"/>
<feComposite in2="hardAlpha" operator="arithmetic" k2="-1" k3="1"/>
<feColorMatrix type="matrix" values="0 0 0 0 1 0 0 0 0 1 0 0 0 0 1 0 0 0 1 0"/>
<feBlend mode="normal" in2="shape" result="effect2_innerShadow_0_1"/>
</filter>
<filter id="filter1_dd_0_1" x="651.481" y="353.067" width="110.973" height="36.8379" filterUnits="userSpaceOnUse" color-interpolation-filters="sRGB">
<feFlood flood-opacity="0" result="BackgroundImageFix"/>
<feColorMatrix in="SourceAlpha" type="matrix" values="0 0 0 0 0 0 0 0 0 0 0 0 0 0 0 0 0 0 127 0" result="hardAlpha"/>
<feOffset dy="4"/>
<feGaussianBlur stdDeviation="2"/>
<feComposite in2="hardAlpha" operator="out"/>
<feColorMatrix type="matrix" values="0 0 0 0 0 0 0 0 0 0 0 0 0 0 0 0 0 0 0.35 0"/>
<feBlend mode="normal" in2="BackgroundImageFix" result="effect1_dropShadow_0_1"/>
<feColorMatrix in="SourceAlpha" type="matrix" values="0 0 0 0 0 0 0 0 0 0 0 0 0 0 0 0 0 0 127 0" result="hardAlpha"/>
<feOffset dy="-2"/>
<feComposite in2="hardAlpha" operator="out"/>
<feColorMatrix type="matrix" values="0 0 0 0 1 0 0 0 0 1 0 0 0 0 1 0 0 0 0.8 0"/>
<feBlend mode="normal" in2="effect1_dropShadow_0_1" result="effect2_dropShadow_0_1"/>
<feBlend mode="normal" in="SourceGraphic" in2="effect2_dropShadow_0_1" result="shape"/>
</filter>
<filter id="filter2_d_0_1" x="684.29" y="349.285" width="44.8452" height="18.3823" filterUnits="userSpaceOnUse" color-interpolation-filters="sRGB">
<feFlood flood-opacity="0" result="BackgroundImageFix"/>
<feColorMatrix in="SourceAlpha" type="matrix" values="0 0 0 0 0 0 0 0 0 0 0 0 0 0 0 0 0 0 127 0" result="hardAlpha"/>
<feOffset dy="1.5"/>
<feComposite in2="hardAlpha" operator="out"/>
<feColorMatrix type="matrix" values="0 0 0 0 0 0 0 0 0 0 0 0 0 0 0 0 0 0 0.36 0"/>
<feBlend mode="normal" in2="BackgroundImageFix" result="effect1_dropShadow_0_1"/>
<feBlend mode="normal" in="SourceGraphic" in2="effect1_dropShadow_0_1" result="shape"/>
</filter>
<filter id="filter3_d_0_1" x="670.078" y="381.993" width="74.7485" height="12.9028" filterUnits="userSpaceOnUse" color-interpolation-filters="sRGB">
<feFlood flood-opacity="0" result="BackgroundImageFix"/>
<feColorMatrix in="SourceAlpha" type="matrix" values="0 0 0 0 0 0 0 0 0 0 0 0 0 0 0 0 0 0 127 0" result="hardAlpha"/>
<feOffset dy="1"/>
<feGaussianBlur stdDeviation="0.5"/>
<feComposite in2="hardAlpha" operator="out"/>
<feColorMatrix type="matrix" values="0 0 0 0 0 0 0 0 0 0 0 0 0 0 0 0 0 0 1 0"/>
<feBlend mode="normal" in2="BackgroundImageFix" result="effect1_dropShadow_0_1"/>
<feBlend mode="normal" in="SourceGraphic" in2="effect1_dropShadow_0_1" result="shape"/>
</filter>
<filter id="filter4_dd_0_1" x="879.011" y="453.982" width="110.973" height="36.8379" filterUnits="userSpaceOnUse" color-interpolation-filters="sRGB">
<feFlood flood-opacity="0" result="BackgroundImageFix"/>
<feColorMatrix in="SourceAlpha" type="matrix" values="0 0 0 0 0 0 0 0 0 0 0 0 0 0 0 0 0 0 127 0" result="hardAlpha"/>
<feOffset dy="4"/>
<feGaussianBlur stdDeviation="2"/>
<feComposite in2="hardAlpha" operator="out"/>
<feColorMatrix type="matrix" values="0 0 0 0 0 0 0 0 0 0 0 0 0 0 0 0 0 0 0.35 0"/>
<feBlend mode="normal" in2="BackgroundImageFix" result="effect1_dropShadow_0_1"/>
<feColorMatrix in="SourceAlpha" type="matrix" values="0 0 0 0 0 0 0 0 0 0 0 0 0 0 0 0 0 0 127 0" result="hardAlpha"/>
<feOffset dy="-2"/>
<feComposite in2="hardAlpha" operator="out"/>
<feColorMatrix type="matrix" values="0 0 0 0 1 0 0 0 0 1 0 0 0 0 1 0 0 0 0.8 0"/>
<feBlend mode="normal" in2="effect1_dropShadow_0_1" result="effect2_dropShadow_0_1"/>
<feBlend mode="normal" in="SourceGraphic" in2="effect2_dropShadow_0_1" result="shape"/>
</filter>
<filter id="filter5_d_0_1" x="911.819" y="450.2" width="44.8452" height="18.3823" filterUnits="userSpaceOnUse" color-interpolation-filters="sRGB">
<feFlood flood-opacity="0" result="BackgroundImageFix"/>
<feColorMatrix in="SourceAlpha" type="matrix" values="0 0 0 0 0 0 0 0 0 0 0 0 0 0 0 0 0 0 127 0" result="hardAlpha"/>
<feOffset dy="1.5"/>
<feComposite in2="hardAlpha" operator="out"/>
<feColorMatrix type="matrix" values="0 0 0 0 0 0 0 0 0 0 0 0 0 0 0 0 0 0 0.36 0"/>
<feBlend mode="normal" in2="BackgroundImageFix" result="effect1_dropShadow_0_1"/>
<feBlend mode="normal" in="SourceGraphic" in2="effect1_dropShadow_0_1" result="shape"/>
</filter>
<filter id="filter6_d_0_1" x="897.607" y="482.908" width="74.749" height="12.9028" filterUnits="userSpaceOnUse" color-interpolation-filters="sRGB">
<feFlood flood-opacity="0" result="BackgroundImageFix"/>
<feColorMatrix in="SourceAlpha" type="matrix" values="0 0 0 0 0 0 0 0 0 0 0 0 0 0 0 0 0 0 127 0" result="hardAlpha"/>
<feOffset dy="1"/>
<feGaussianBlur stdDeviation="0.5"/>
<feComposite in2="hardAlpha" operator="out"/>
<feColorMatrix type="matrix" values="0 0 0 0 0 0 0 0 0 0 0 0 0 0 0 0 0 0 1 0"/>
<feBlend mode="normal" in2="BackgroundImageFix" result="effect1_dropShadow_0_1"/>
<feBlend mode="normal" in="SourceGraphic" in2="effect1_dropShadow_0_1" result="shape"/>
</filter>
<radialGradient id="paint0_radial_0_1" cx="0" cy="0" r="1" gradientUnits="userSpaceOnUse" gradientTransform="translate(707.452 385.961) rotate(-179.99) scale(25.4124 142.737)">
<stop stop-color="#585959"/>
<stop offset="1" stop-color="#2E2E2E"/>
</radialGradient>
<linearGradient id="paint1_linear_0_1" x1="674.907" y1="368.943" x2="738.687" y2="368.943" gradientUnits="userSpaceOnUse">
<stop stop-color="#5F5F5F"/>
<stop offset="0.519434" stop-color="#E4E4E4"/>
<stop offset="1" stop-color="#626262"/>
</linearGradient>
<radialGradient id="paint2_radial_0_1" cx="0" cy="0" r="1" gradientUnits="userSpaceOnUse" gradientTransform="translate(709.204 358.205) rotate(-88.6759) scale(86.2519 447.557)">
<stop offset="0.0238891" stop-color="#69B75D"/>
<stop offset="0.541074" stop-color="#D6F15B"/>
</radialGradient>
<linearGradient id="paint3_linear_0_1" x1="723.499" y1="384.966" x2="726.165" y2="385.205" gradientUnits="userSpaceOnUse">
<stop stop-color="#D6F15B"/>
<stop offset="1" stop-color="#69B75D"/>
</linearGradient>
<linearGradient id="paint4_linear_0_1" x1="740.32" y1="381.993" x2="742.453" y2="382.183" gradientUnits="userSpaceOnUse">
<stop stop-color="#D6F15B"/>
<stop offset="1" stop-color="#69B75D"/>
</linearGradient>
<linearGradient id="paint5_linear_0_1" x1="0.839697" y1="-2.34494e-06" x2="4.57205" y2="0.333775" gradientUnits="userSpaceOnUse">
<stop stop-color="#D6F15B"/>
<stop offset="1" stop-color="#69B75D"/>
</linearGradient>
<linearGradient id="paint6_linear_0_1" x1="0.599784" y1="-1.67496e-06" x2="3.26575" y2="0.238411" gradientUnits="userSpaceOnUse">
<stop stop-color="#D6F15B"/>
<stop offset="1" stop-color="#69B75D"/>
</linearGradient>
<linearGradient id="paint7_linear_0_1" x1="0.479827" y1="-1.33997e-06" x2="2.6126" y2="0.190728" gradientUnits="userSpaceOnUse">
<stop stop-color="#D6F15B"/>
<stop offset="1" stop-color="#69B75D"/>
</linearGradient>
<radialGradient id="paint8_radial_0_1" cx="0" cy="0" r="1" gradientUnits="userSpaceOnUse" gradientTransform="translate(934.982 486.877) rotate(-179.99) scale(25.4124 142.737)">
<stop stop-color="#585959"/>
<stop offset="1" stop-color="#2E2E2E"/>
</radialGradient>
<linearGradient id="paint9_linear_0_1" x1="902.437" y1="469.858" x2="966.217" y2="469.858" gradientUnits="userSpaceOnUse">
<stop stop-color="#5F5F5F"/>
<stop offset="0.519434" stop-color="#E4E4E4"/>
<stop offset="1" stop-color="#626262"/>
</linearGradient>
<radialGradient id="paint10_radial_0_1" cx="0" cy="0" r="1" gradientUnits="userSpaceOnUse" gradientTransform="translate(936.733 459.12) rotate(-88.6759) scale(86.2519 447.557)">
<stop offset="0.0238891" stop-color="#69B75D"/>
<stop offset="0.541074" stop-color="#D6F15B"/>
</radialGradient>
<linearGradient id="paint11_linear_0_1" x1="951.028" y1="485.881" x2="953.694" y2="486.119" gradientUnits="userSpaceOnUse">
<stop stop-color="#D6F15B"/>
<stop offset="1" stop-color="#69B75D"/>
</linearGradient>
<linearGradient id="paint12_linear_0_1" x1="967.85" y1="482.908" x2="969.983" y2="483.098" gradientUnits="userSpaceOnUse">
<stop stop-color="#D6F15B"/>
<stop offset="1" stop-color="#69B75D"/>
</linearGradient>
<linearGradient id="paint13_linear_0_1" x1="0.839697" y1="-2.34494e-06" x2="4.57205" y2="0.333775" gradientUnits="userSpaceOnUse">
<stop stop-color="#D6F15B"/>
<stop offset="1" stop-color="#69B75D"/>
</linearGradient>
<linearGradient id="paint14_linear_0_1" x1="0.599784" y1="-1.67496e-06" x2="3.26575" y2="0.238411" gradientUnits="userSpaceOnUse">
<stop stop-color="#D6F15B"/>
<stop offset="1" stop-color="#69B75D"/>
</linearGradient>
<linearGradient id="paint15_linear_0_1" x1="0.479827" y1="-1.33997e-06" x2="2.6126" y2="0.190728" gradientUnits="userSpaceOnUse">
<stop stop-color="#D6F15B"/>
<stop offset="1" stop-color="#69B75D"/>
</linearGradient>
</defs>
</svg>
