<svg width="2936" height="1468" viewBox="0 0 2936 1468" fill="none" xmlns="http://www.w3.org/2000/svg">
<path d="M679.44 546.319C641.211 546.319 605.669 528.499 590.728 517.983C589.207 516.913 590 514.694 591.859 514.694H759.73C761.687 514.694 762.445 517.143 760.784 518.179C742.842 529.377 706.897 546.888 679.44 546.319Z" fill="url(#paint0_radial_128_788)"/>
<g filter="url(#filter0_dd_128_788)">
<path d="M676.805 481.225L590.785 513.126C588.815 513.856 589.175 516.74 591.261 516.984C662.79 525.349 692.457 527.323 759.299 517.153C761.319 516.846 761.625 514.072 759.72 513.335L676.805 481.225Z" fill="url(#paint1_linear_128_788)"/>
<path d="M676.805 481.225L590.785 513.126C588.815 513.856 589.175 516.74 591.261 516.984C662.79 525.349 692.457 527.323 759.299 517.153C761.319 516.846 761.625 514.072 759.72 513.335L676.805 481.225Z" stroke="#B63737"/>
</g>
<g filter="url(#filter1_d_128_788)">
<path d="M710.853 494.138C710.853 503.307 691.846 496.509 674.285 496.509C656.723 496.509 639.307 503.307 639.307 494.138C639.307 484.968 657.518 472 675.08 472C692.641 472 710.853 484.968 710.853 494.138Z" fill="url(#paint2_radial_128_788)"/>
</g>
<g filter="url(#filter2_d_128_788)">
<ellipse cx="704.879" cy="532.878" rx="3.97478" ry="3.95314" fill="url(#paint3_linear_128_788)"/>
<ellipse cx="731.112" cy="527.344" rx="3.17983" ry="3.16251" fill="url(#paint4_linear_128_788)"/>
<ellipse cx="5.5647" cy="5.53439" rx="5.5647" ry="5.53439" transform="matrix(-1 0 0 1 680.531 530.506)" fill="url(#paint5_linear_128_788)"/>
<ellipse cx="3.97478" cy="3.95314" rx="3.97478" ry="3.95314" transform="matrix(-1 0 0 1 651.617 528.925)" fill="url(#paint6_linear_128_788)"/>
<ellipse cx="3.17983" cy="3.16251" rx="3.17983" ry="3.16251" transform="matrix(-1 0 0 1 624.588 524.181)" fill="url(#paint7_linear_128_788)"/>
</g>
<path fill-rule="evenodd" clip-rule="evenodd" d="M2936 1467.44V0L0 198.559V1468L2936 1467.44ZM1136.35 673.767C1138.55 677.93 1138.34 682.954 1135.81 686.92L1100.04 742.914C1090.57 757.735 1074.01 766.491 1056.43 765.973L990.012 764.018C985.307 763.879 981.039 761.22 978.838 757.058L937.623 679.117C935.419 674.949 935.628 669.918 938.17 665.95L974.013 610.003C983.476 595.232 999.988 586.5 1017.52 586.995L1083.94 588.867C1088.65 588.999 1092.93 591.659 1095.13 595.827L1136.35 673.767ZM1081.85 565.653C1086.56 565.864 1091.01 563.53 1093.51 559.542L1140.41 484.879C1142.91 480.887 1143.08 475.854 1140.84 471.708L1109.25 413.252C1100.91 397.819 1085.09 387.885 1067.57 387.076L1001.2 384.008C996.489 383.791 992.027 386.125 989.52 390.118L942.629 464.781C940.124 468.769 939.956 473.795 942.188 477.938L973.703 536.435C982.044 551.918 997.907 561.88 1015.48 562.67L1081.85 565.653ZM815.724 656.834C811.018 656.659 806.77 653.969 804.602 649.791L773.996 590.814C765.896 575.204 766.592 556.485 775.83 541.52L810.732 484.979C813.204 480.974 817.641 478.607 822.347 478.782L910.452 482.059C915.164 482.235 919.416 484.931 921.582 489.117L952.112 548.132C960.173 563.712 959.478 582.377 950.283 597.316L915.453 653.9C912.982 657.913 908.541 660.286 903.829 660.111L815.724 656.834Z" fill="#F4F9FB"/>
<path d="M1042.44 707.319C1004.21 707.319 968.669 689.499 953.728 678.983C952.207 677.913 953 675.694 954.859 675.694H1122.73C1124.69 675.694 1125.44 678.143 1123.78 679.179C1105.84 690.377 1069.9 707.888 1042.44 707.319Z" fill="url(#paint8_radial_128_788)"/>
<g filter="url(#filter3_dd_128_788)">
<path d="M1039.8 642.225L953.785 674.126C951.815 674.856 952.175 677.741 954.261 677.985C1025.79 686.349 1055.46 688.323 1122.3 678.154C1124.32 677.846 1124.62 675.073 1122.72 674.335L1039.8 642.225Z" fill="url(#paint9_linear_128_788)"/>
<path d="M1039.8 642.225L953.785 674.126C951.815 674.856 952.175 677.741 954.261 677.985C1025.79 686.349 1055.46 688.323 1122.3 678.154C1124.32 677.846 1124.62 675.073 1122.72 674.335L1039.8 642.225Z" stroke="#B63737"/>
</g>
<g filter="url(#filter4_d_128_788)">
<path d="M1073.85 655.138C1073.85 664.307 1054.85 657.509 1037.28 657.509C1019.72 657.509 1002.31 664.307 1002.31 655.138C1002.31 645.968 1020.52 633 1038.08 633C1055.64 633 1073.85 645.968 1073.85 655.138Z" fill="url(#paint10_radial_128_788)"/>
</g>
<g filter="url(#filter5_d_128_788)">
<ellipse cx="1067.88" cy="693.878" rx="3.97478" ry="3.95314" fill="url(#paint11_linear_128_788)"/>
<ellipse cx="1094.11" cy="688.344" rx="3.17983" ry="3.16251" fill="url(#paint12_linear_128_788)"/>
<ellipse cx="5.5647" cy="5.53439" rx="5.5647" ry="5.53439" transform="matrix(-1 0 0 1 1043.53 691.506)" fill="url(#paint13_linear_128_788)"/>
<ellipse cx="3.97478" cy="3.95314" rx="3.97478" ry="3.95314" transform="matrix(-1 0 0 1 1014.62 689.925)" fill="url(#paint14_linear_128_788)"/>
<ellipse cx="3.17983" cy="3.16251" rx="3.17983" ry="3.16251" transform="matrix(-1 0 0 1 987.588 685.181)" fill="url(#paint15_linear_128_788)"/>
</g>
<defs>
<filter id="filter0_dd_128_788" x="585.486" y="479.225" width="179.508" height="52.8174" filterUnits="userSpaceOnUse" color-interpolation-filters="sRGB">
<feFlood flood-opacity="0" result="BackgroundImageFix"/>
<feColorMatrix in="SourceAlpha" type="matrix" values="0 0 0 0 0 0 0 0 0 0 0 0 0 0 0 0 0 0 127 0" result="hardAlpha"/>
<feOffset dy="4"/>
<feGaussianBlur stdDeviation="2"/>
<feComposite in2="hardAlpha" operator="out"/>
<feColorMatrix type="matrix" values="0 0 0 0 0 0 0 0 0 0 0 0 0 0 0 0 0 0 0.35 0"/>
<feBlend mode="normal" in2="BackgroundImageFix" result="effect1_dropShadow_128_788"/>
<feColorMatrix in="SourceAlpha" type="matrix" values="0 0 0 0 0 0 0 0 0 0 0 0 0 0 0 0 0 0 127 0" result="hardAlpha"/>
<feOffset dy="-2"/>
<feComposite in2="hardAlpha" operator="out"/>
<feColorMatrix type="matrix" values="0 0 0 0 1 0 0 0 0 1 0 0 0 0 1 0 0 0 0.8 0"/>
<feBlend mode="normal" in2="effect1_dropShadow_128_788" result="effect2_dropShadow_128_788"/>
<feBlend mode="normal" in="SourceGraphic" in2="effect2_dropShadow_128_788" result="shape"/>
</filter>
<filter id="filter1_d_128_788" x="639.307" y="472" width="71.5459" height="28.4341" filterUnits="userSpaceOnUse" color-interpolation-filters="sRGB">
<feFlood flood-opacity="0" result="BackgroundImageFix"/>
<feColorMatrix in="SourceAlpha" type="matrix" values="0 0 0 0 0 0 0 0 0 0 0 0 0 0 0 0 0 0 127 0" result="hardAlpha"/>
<feOffset dy="1.5"/>
<feComposite in2="hardAlpha" operator="out"/>
<feColorMatrix type="matrix" values="0 0 0 0 0 0 0 0 0 0 0 0 0 0 0 0 0 0 0.36 0"/>
<feBlend mode="normal" in2="BackgroundImageFix" result="effect1_dropShadow_128_788"/>
<feBlend mode="normal" in="SourceGraphic" in2="effect1_dropShadow_128_788" result="shape"/>
</filter>
<filter id="filter2_d_128_788" x="617.229" y="524.181" width="118.063" height="19.3938" filterUnits="userSpaceOnUse" color-interpolation-filters="sRGB">
<feFlood flood-opacity="0" result="BackgroundImageFix"/>
<feColorMatrix in="SourceAlpha" type="matrix" values="0 0 0 0 0 0 0 0 0 0 0 0 0 0 0 0 0 0 127 0" result="hardAlpha"/>
<feOffset dy="1"/>
<feGaussianBlur stdDeviation="0.5"/>
<feComposite in2="hardAlpha" operator="out"/>
<feColorMatrix type="matrix" values="0 0 0 0 0 0 0 0 0 0 0 0 0 0 0 0 0 0 1 0"/>
<feBlend mode="normal" in2="BackgroundImageFix" result="effect1_dropShadow_128_788"/>
<feBlend mode="normal" in="SourceGraphic" in2="effect1_dropShadow_128_788" result="shape"/>
</filter>
<filter id="filter3_dd_128_788" x="948.486" y="640.225" width="179.508" height="52.8174" filterUnits="userSpaceOnUse" color-interpolation-filters="sRGB">
<feFlood flood-opacity="0" result="BackgroundImageFix"/>
<feColorMatrix in="SourceAlpha" type="matrix" values="0 0 0 0 0 0 0 0 0 0 0 0 0 0 0 0 0 0 127 0" result="hardAlpha"/>
<feOffset dy="4"/>
<feGaussianBlur stdDeviation="2"/>
<feComposite in2="hardAlpha" operator="out"/>
<feColorMatrix type="matrix" values="0 0 0 0 0 0 0 0 0 0 0 0 0 0 0 0 0 0 0.35 0"/>
<feBlend mode="normal" in2="BackgroundImageFix" result="effect1_dropShadow_128_788"/>
<feColorMatrix in="SourceAlpha" type="matrix" values="0 0 0 0 0 0 0 0 0 0 0 0 0 0 0 0 0 0 127 0" result="hardAlpha"/>
<feOffset dy="-2"/>
<feComposite in2="hardAlpha" operator="out"/>
<feColorMatrix type="matrix" values="0 0 0 0 1 0 0 0 0 1 0 0 0 0 1 0 0 0 0.8 0"/>
<feBlend mode="normal" in2="effect1_dropShadow_128_788" result="effect2_dropShadow_128_788"/>
<feBlend mode="normal" in="SourceGraphic" in2="effect2_dropShadow_128_788" result="shape"/>
</filter>
<filter id="filter4_d_128_788" x="1002.31" y="633" width="71.5459" height="28.4338" filterUnits="userSpaceOnUse" color-interpolation-filters="sRGB">
<feFlood flood-opacity="0" result="BackgroundImageFix"/>
<feColorMatrix in="SourceAlpha" type="matrix" values="0 0 0 0 0 0 0 0 0 0 0 0 0 0 0 0 0 0 127 0" result="hardAlpha"/>
<feOffset dy="1.5"/>
<feComposite in2="hardAlpha" operator="out"/>
<feColorMatrix type="matrix" values="0 0 0 0 0 0 0 0 0 0 0 0 0 0 0 0 0 0 0.36 0"/>
<feBlend mode="normal" in2="BackgroundImageFix" result="effect1_dropShadow_128_788"/>
<feBlend mode="normal" in="SourceGraphic" in2="effect1_dropShadow_128_788" result="shape"/>
</filter>
<filter id="filter5_d_128_788" x="980.229" y="685.181" width="118.063" height="19.3938" filterUnits="userSpaceOnUse" color-interpolation-filters="sRGB">
<feFlood flood-opacity="0" result="BackgroundImageFix"/>
<feColorMatrix in="SourceAlpha" type="matrix" values="0 0 0 0 0 0 0 0 0 0 0 0 0 0 0 0 0 0 127 0" result="hardAlpha"/>
<feOffset dy="1"/>
<feGaussianBlur stdDeviation="0.5"/>
<feComposite in2="hardAlpha" operator="out"/>
<feColorMatrix type="matrix" values="0 0 0 0 0 0 0 0 0 0 0 0 0 0 0 0 0 0 1 0"/>
<feBlend mode="normal" in2="BackgroundImageFix" result="effect1_dropShadow_128_788"/>
<feBlend mode="normal" in="SourceGraphic" in2="effect1_dropShadow_128_788" result="shape"/>
</filter>
<radialGradient id="paint0_radial_128_788" cx="0" cy="0" r="1" gradientUnits="userSpaceOnUse" gradientTransform="translate(676.26 530.513) rotate(-179.99) scale(40.5428 227.722)">
<stop stop-color="#585959"/>
<stop offset="1" stop-color="#2E2E2E"/>
</radialGradient>
<linearGradient id="paint1_linear_128_788" x1="624.338" y1="503.363" x2="726.092" y2="503.363" gradientUnits="userSpaceOnUse">
<stop stop-color="#5F5F5F"/>
<stop offset="0.519434" stop-color="#E4E4E4"/>
<stop offset="1" stop-color="#626262"/>
</linearGradient>
<radialGradient id="paint2_radial_128_788" cx="0" cy="0" r="1" gradientUnits="userSpaceOnUse" gradientTransform="translate(679.054 486.231) rotate(-88.6759) scale(137.606 714.03)">
<stop offset="0.0238891" stop-color="#69B75D"/>
<stop offset="0.541074" stop-color="#D6F15B"/>
</radialGradient>
<linearGradient id="paint3_linear_128_788" x1="701.861" y1="528.925" x2="706.114" y2="529.305" gradientUnits="userSpaceOnUse">
<stop stop-color="#D6F15B"/>
<stop offset="1" stop-color="#69B75D"/>
</linearGradient>
<linearGradient id="paint4_linear_128_788" x1="728.698" y1="524.181" x2="732.1" y2="524.486" gradientUnits="userSpaceOnUse">
<stop stop-color="#D6F15B"/>
<stop offset="1" stop-color="#69B75D"/>
</linearGradient>
<linearGradient id="paint5_linear_128_788" x1="1.33965" y1="-3.74112e-06" x2="7.29424" y2="0.532503" gradientUnits="userSpaceOnUse">
<stop stop-color="#D6F15B"/>
<stop offset="1" stop-color="#69B75D"/>
</linearGradient>
<linearGradient id="paint6_linear_128_788" x1="0.956893" y1="-2.67223e-06" x2="5.21017" y2="0.380359" gradientUnits="userSpaceOnUse">
<stop stop-color="#D6F15B"/>
<stop offset="1" stop-color="#69B75D"/>
</linearGradient>
<linearGradient id="paint7_linear_128_788" x1="0.765514" y1="-2.13778e-06" x2="4.16814" y2="0.304287" gradientUnits="userSpaceOnUse">
<stop stop-color="#D6F15B"/>
<stop offset="1" stop-color="#69B75D"/>
</linearGradient>
<radialGradient id="paint8_radial_128_788" cx="0" cy="0" r="1" gradientUnits="userSpaceOnUse" gradientTransform="translate(1039.26 691.513) rotate(-179.99) scale(40.5428 227.722)">
<stop stop-color="#585959"/>
<stop offset="1" stop-color="#2E2E2E"/>
</radialGradient>
<linearGradient id="paint9_linear_128_788" x1="987.338" y1="664.363" x2="1089.09" y2="664.363" gradientUnits="userSpaceOnUse">
<stop stop-color="#5F5F5F"/>
<stop offset="0.519434" stop-color="#E4E4E4"/>
<stop offset="1" stop-color="#626262"/>
</linearGradient>
<radialGradient id="paint10_radial_128_788" cx="0" cy="0" r="1" gradientUnits="userSpaceOnUse" gradientTransform="translate(1042.05 647.231) rotate(-88.6759) scale(137.606 714.03)">
<stop offset="0.0238891" stop-color="#69B75D"/>
<stop offset="0.541074" stop-color="#D6F15B"/>
</radialGradient>
<linearGradient id="paint11_linear_128_788" x1="1064.86" y1="689.925" x2="1069.11" y2="690.305" gradientUnits="userSpaceOnUse">
<stop stop-color="#D6F15B"/>
<stop offset="1" stop-color="#69B75D"/>
</linearGradient>
<linearGradient id="paint12_linear_128_788" x1="1091.7" y1="685.181" x2="1095.1" y2="685.486" gradientUnits="userSpaceOnUse">
<stop stop-color="#D6F15B"/>
<stop offset="1" stop-color="#69B75D"/>
</linearGradient>
<linearGradient id="paint13_linear_128_788" x1="1.33965" y1="-3.74112e-06" x2="7.29424" y2="0.532503" gradientUnits="userSpaceOnUse">
<stop stop-color="#D6F15B"/>
<stop offset="1" stop-color="#69B75D"/>
</linearGradient>
<linearGradient id="paint14_linear_128_788" x1="0.956893" y1="-2.67223e-06" x2="5.21017" y2="0.380359" gradientUnits="userSpaceOnUse">
<stop stop-color="#D6F15B"/>
<stop offset="1" stop-color="#69B75D"/>
</linearGradient>
<linearGradient id="paint15_linear_128_788" x1="0.765514" y1="-2.13778e-06" x2="4.16814" y2="0.304287" gradientUnits="userSpaceOnUse">
<stop stop-color="#D6F15B"/>
<stop offset="1" stop-color="#69B75D"/>
</linearGradient>
</defs>
</svg>
