<svg width="2936" height="1904" viewBox="0 0 2936 1904" fill="none" xmlns="http://www.w3.org/2000/svg">
<g id="background--full">
<g id="moon" filter="url(#filter0_di_128_788)">
<circle cx="1164" cy="721" r="275" fill="#A09A93"/>
</g>
<g id="ufo--full--behind">
<g id="Group 77">
<g id="Group 71">
<path id="Vector 10" d="M699.44 536.319C661.211 536.319 625.669 518.499 610.728 507.983C609.207 506.913 610 504.694 611.859 504.694H779.73C781.687 504.694 782.445 507.143 780.784 508.179C762.842 519.377 726.897 536.888 699.44 536.319Z" fill="url(#paint0_radial_128_788)"/>
<g id="Vector 9" filter="url(#filter1_dd_128_788)">
<path d="M696.805 471.225L610.785 503.126C608.815 503.856 609.175 506.741 611.261 506.985C682.79 515.349 712.457 517.323 779.299 507.154C781.319 506.846 781.625 504.073 779.72 503.335L696.805 471.225Z" fill="url(#paint1_linear_128_788)"/>
<path d="M696.805 471.225L610.785 503.126C608.815 503.856 609.175 506.741 611.261 506.985C682.79 515.349 712.457 517.323 779.299 507.154C781.319 506.846 781.625 504.073 779.72 503.335L696.805 471.225Z" stroke="#B63737"/>
</g>
<g id="Ellipse 57" filter="url(#filter2_d_128_788)">
<path d="M730.853 484.138C730.853 493.307 711.846 486.509 694.285 486.509C676.723 486.509 659.307 493.307 659.307 484.138C659.307 474.968 677.518 462 695.08 462C712.641 462 730.853 474.968 730.853 484.138Z" fill="url(#paint2_radial_128_788)"/>
</g>
</g>
<g id="Group 74" filter="url(#filter3_d_128_788)">
<g id="Group 72">
<ellipse id="Ellipse 59" cx="724.879" cy="522.878" rx="3.97478" ry="3.95314" fill="url(#paint3_linear_128_788)"/>
<ellipse id="Ellipse 60" cx="751.112" cy="517.344" rx="3.17983" ry="3.16251" fill="url(#paint4_linear_128_788)"/>
</g>
<g id="Group 73">
<ellipse id="Ellipse 58" cx="5.5647" cy="5.53439" rx="5.5647" ry="5.53439" transform="matrix(-1 0 0 1 700.531 520.506)" fill="url(#paint5_linear_128_788)"/>
<ellipse id="Ellipse 59_2" cx="3.97478" cy="3.95314" rx="3.97478" ry="3.95314" transform="matrix(-1 0 0 1 671.617 518.925)" fill="url(#paint6_linear_128_788)"/>
<ellipse id="Ellipse 60_2" cx="3.17983" cy="3.16251" rx="3.17983" ry="3.16251" transform="matrix(-1 0 0 1 644.588 514.181)" fill="url(#paint7_linear_128_788)"/>
</g>
</g>
</g>
</g>
<path id="Subtract" fill-rule="evenodd" clip-rule="evenodd" d="M2936 1902.5V0L0 198.559V1903.06L2936 1902.5ZM843.988 527.612C843.948 533.001 846.811 537.999 851.483 540.697L938.961 591.203C943.639 593.904 949.408 593.88 954.057 591.141L1039.23 540.97C1044.37 537.944 1047.54 532.448 1047.59 526.486L1048.46 427.637C1048.5 422.241 1045.64 417.234 1040.96 414.533L953.483 364.028C948.811 361.33 943.051 361.35 938.403 364.079L853.107 414.177C847.952 417.205 844.77 422.716 844.726 428.694L843.988 527.612ZM957.729 722.607C957.689 727.996 960.552 732.994 965.224 735.692L1052.7 786.197C1057.38 788.898 1063.15 788.875 1067.8 786.136L1152.97 735.965C1158.11 732.939 1161.28 727.443 1161.34 721.481L1162.2 622.632C1162.24 617.236 1159.38 612.229 1154.7 609.528L1067.22 559.023C1062.55 556.325 1056.79 556.345 1052.14 559.074L966.848 609.172C961.693 612.2 958.511 617.711 958.467 623.689L957.729 722.607ZM1069.73 528.617C1069.69 534.006 1072.55 539.004 1077.22 541.702L1164.7 592.208C1169.38 594.909 1175.15 594.885 1179.8 592.146L1264.97 541.976C1270.11 538.949 1273.28 533.453 1273.33 527.491L1274.2 428.643C1274.24 423.246 1271.38 418.239 1266.7 415.538L1179.22 365.033C1174.55 362.335 1168.79 362.355 1164.14 365.084L1078.85 415.182C1073.69 418.21 1070.51 423.721 1070.47 429.699L1069.73 528.617Z" fill="#F4F9FB"/>
<g id="ufo--full--front">
<g id="Group 77_2">
<g id="Group 71_2">
<path id="Vector 10_2" d="M1062.44 697.319C1024.21 697.319 988.669 679.499 973.728 668.983C972.207 667.913 973 665.694 974.859 665.694H1142.73C1144.69 665.694 1145.44 668.143 1143.78 669.179C1125.84 680.377 1089.9 697.888 1062.44 697.319Z" fill="url(#paint8_radial_128_788)"/>
<g id="Vector 9_2" filter="url(#filter4_dd_128_788)">
<path d="M1059.8 632.225L973.785 664.126C971.815 664.856 972.175 667.741 974.261 667.985C1045.79 676.349 1075.46 678.323 1142.3 668.154C1144.32 667.846 1144.62 665.073 1142.72 664.335L1059.8 632.225Z" fill="url(#paint9_linear_128_788)"/>
<path d="M1059.8 632.225L973.785 664.126C971.815 664.856 972.175 667.741 974.261 667.985C1045.79 676.349 1075.46 678.323 1142.3 668.154C1144.32 667.846 1144.62 665.073 1142.72 664.335L1059.8 632.225Z" stroke="#B63737"/>
</g>
<g id="Ellipse 57_2" filter="url(#filter5_d_128_788)">
<path d="M1093.85 645.138C1093.85 654.307 1074.85 647.509 1057.28 647.509C1039.72 647.509 1022.31 654.307 1022.31 645.138C1022.31 635.968 1040.52 623 1058.08 623C1075.64 623 1093.85 635.968 1093.85 645.138Z" fill="url(#paint10_radial_128_788)"/>
</g>
</g>
<g id="Group 74_2" filter="url(#filter6_d_128_788)">
<g id="Group 72_2">
<ellipse id="Ellipse 59_3" cx="1087.88" cy="683.878" rx="3.97478" ry="3.95314" fill="url(#paint11_linear_128_788)"/>
<ellipse id="Ellipse 60_3" cx="1114.11" cy="678.344" rx="3.17983" ry="3.16251" fill="url(#paint12_linear_128_788)"/>
</g>
<g id="Group 73_2">
<ellipse id="Ellipse 58_2" cx="5.5647" cy="5.53439" rx="5.5647" ry="5.53439" transform="matrix(-1 0 0 1 1063.53 681.506)" fill="url(#paint13_linear_128_788)"/>
<ellipse id="Ellipse 59_4" cx="3.97478" cy="3.95314" rx="3.97478" ry="3.95314" transform="matrix(-1 0 0 1 1034.62 679.925)" fill="url(#paint14_linear_128_788)"/>
<ellipse id="Ellipse 60_4" cx="3.17983" cy="3.16251" rx="3.17983" ry="3.16251" transform="matrix(-1 0 0 1 1007.59 675.181)" fill="url(#paint15_linear_128_788)"/>
</g>
</g>
</g>
</g>
</g>
<defs>
<filter id="filter0_di_128_788" x="819" y="376" width="690" height="690" filterUnits="userSpaceOnUse" color-interpolation-filters="sRGB">
<feFlood flood-opacity="0" result="BackgroundImageFix"/>
<feColorMatrix in="SourceAlpha" type="matrix" values="0 0 0 0 0 0 0 0 0 0 0 0 0 0 0 0 0 0 127 0" result="hardAlpha"/>
<feOffset/>
<feGaussianBlur stdDeviation="35"/>
<feComposite in2="hardAlpha" operator="out"/>
<feColorMatrix type="matrix" values="0 0 0 0 1 0 0 0 0 1 0 0 0 0 1 0 0 0 1 0"/>
<feBlend mode="normal" in2="BackgroundImageFix" result="effect1_dropShadow_128_788"/>
<feBlend mode="normal" in="SourceGraphic" in2="effect1_dropShadow_128_788" result="shape"/>
<feColorMatrix in="SourceAlpha" type="matrix" values="0 0 0 0 0 0 0 0 0 0 0 0 0 0 0 0 0 0 127 0" result="hardAlpha"/>
<feOffset/>
<feGaussianBlur stdDeviation="25"/>
<feComposite in2="hardAlpha" operator="arithmetic" k2="-1" k3="1"/>
<feColorMatrix type="matrix" values="0 0 0 0 1 0 0 0 0 1 0 0 0 0 1 0 0 0 1 0"/>
<feBlend mode="normal" in2="shape" result="effect2_innerShadow_128_788"/>
</filter>
<filter id="filter1_dd_128_788" x="605.486" y="469.225" width="179.508" height="52.8174" filterUnits="userSpaceOnUse" color-interpolation-filters="sRGB">
<feFlood flood-opacity="0" result="BackgroundImageFix"/>
<feColorMatrix in="SourceAlpha" type="matrix" values="0 0 0 0 0 0 0 0 0 0 0 0 0 0 0 0 0 0 127 0" result="hardAlpha"/>
<feOffset dy="4"/>
<feGaussianBlur stdDeviation="2"/>
<feComposite in2="hardAlpha" operator="out"/>
<feColorMatrix type="matrix" values="0 0 0 0 0 0 0 0 0 0 0 0 0 0 0 0 0 0 0.35 0"/>
<feBlend mode="normal" in2="BackgroundImageFix" result="effect1_dropShadow_128_788"/>
<feColorMatrix in="SourceAlpha" type="matrix" values="0 0 0 0 0 0 0 0 0 0 0 0 0 0 0 0 0 0 127 0" result="hardAlpha"/>
<feOffset dy="-2"/>
<feComposite in2="hardAlpha" operator="out"/>
<feColorMatrix type="matrix" values="0 0 0 0 1 0 0 0 0 1 0 0 0 0 1 0 0 0 0.8 0"/>
<feBlend mode="normal" in2="effect1_dropShadow_128_788" result="effect2_dropShadow_128_788"/>
<feBlend mode="normal" in="SourceGraphic" in2="effect2_dropShadow_128_788" result="shape"/>
</filter>
<filter id="filter2_d_128_788" x="659.307" y="462" width="71.5459" height="28.4338" filterUnits="userSpaceOnUse" color-interpolation-filters="sRGB">
<feFlood flood-opacity="0" result="BackgroundImageFix"/>
<feColorMatrix in="SourceAlpha" type="matrix" values="0 0 0 0 0 0 0 0 0 0 0 0 0 0 0 0 0 0 127 0" result="hardAlpha"/>
<feOffset dy="1.5"/>
<feComposite in2="hardAlpha" operator="out"/>
<feColorMatrix type="matrix" values="0 0 0 0 0 0 0 0 0 0 0 0 0 0 0 0 0 0 0.36 0"/>
<feBlend mode="normal" in2="BackgroundImageFix" result="effect1_dropShadow_128_788"/>
<feBlend mode="normal" in="SourceGraphic" in2="effect1_dropShadow_128_788" result="shape"/>
</filter>
<filter id="filter3_d_128_788" x="637.229" y="514.181" width="118.063" height="19.3938" filterUnits="userSpaceOnUse" color-interpolation-filters="sRGB">
<feFlood flood-opacity="0" result="BackgroundImageFix"/>
<feColorMatrix in="SourceAlpha" type="matrix" values="0 0 0 0 0 0 0 0 0 0 0 0 0 0 0 0 0 0 127 0" result="hardAlpha"/>
<feOffset dy="1"/>
<feGaussianBlur stdDeviation="0.5"/>
<feComposite in2="hardAlpha" operator="out"/>
<feColorMatrix type="matrix" values="0 0 0 0 0 0 0 0 0 0 0 0 0 0 0 0 0 0 1 0"/>
<feBlend mode="normal" in2="BackgroundImageFix" result="effect1_dropShadow_128_788"/>
<feBlend mode="normal" in="SourceGraphic" in2="effect1_dropShadow_128_788" result="shape"/>
</filter>
<filter id="filter4_dd_128_788" x="968.486" y="630.225" width="179.508" height="52.8174" filterUnits="userSpaceOnUse" color-interpolation-filters="sRGB">
<feFlood flood-opacity="0" result="BackgroundImageFix"/>
<feColorMatrix in="SourceAlpha" type="matrix" values="0 0 0 0 0 0 0 0 0 0 0 0 0 0 0 0 0 0 127 0" result="hardAlpha"/>
<feOffset dy="4"/>
<feGaussianBlur stdDeviation="2"/>
<feComposite in2="hardAlpha" operator="out"/>
<feColorMatrix type="matrix" values="0 0 0 0 0 0 0 0 0 0 0 0 0 0 0 0 0 0 0.35 0"/>
<feBlend mode="normal" in2="BackgroundImageFix" result="effect1_dropShadow_128_788"/>
<feColorMatrix in="SourceAlpha" type="matrix" values="0 0 0 0 0 0 0 0 0 0 0 0 0 0 0 0 0 0 127 0" result="hardAlpha"/>
<feOffset dy="-2"/>
<feComposite in2="hardAlpha" operator="out"/>
<feColorMatrix type="matrix" values="0 0 0 0 1 0 0 0 0 1 0 0 0 0 1 0 0 0 0.8 0"/>
<feBlend mode="normal" in2="effect1_dropShadow_128_788" result="effect2_dropShadow_128_788"/>
<feBlend mode="normal" in="SourceGraphic" in2="effect2_dropShadow_128_788" result="shape"/>
</filter>
<filter id="filter5_d_128_788" x="1022.31" y="623" width="71.5459" height="28.4338" filterUnits="userSpaceOnUse" color-interpolation-filters="sRGB">
<feFlood flood-opacity="0" result="BackgroundImageFix"/>
<feColorMatrix in="SourceAlpha" type="matrix" values="0 0 0 0 0 0 0 0 0 0 0 0 0 0 0 0 0 0 127 0" result="hardAlpha"/>
<feOffset dy="1.5"/>
<feComposite in2="hardAlpha" operator="out"/>
<feColorMatrix type="matrix" values="0 0 0 0 0 0 0 0 0 0 0 0 0 0 0 0 0 0 0.36 0"/>
<feBlend mode="normal" in2="BackgroundImageFix" result="effect1_dropShadow_128_788"/>
<feBlend mode="normal" in="SourceGraphic" in2="effect1_dropShadow_128_788" result="shape"/>
</filter>
<filter id="filter6_d_128_788" x="1000.23" y="675.181" width="118.063" height="19.3938" filterUnits="userSpaceOnUse" color-interpolation-filters="sRGB">
<feFlood flood-opacity="0" result="BackgroundImageFix"/>
<feColorMatrix in="SourceAlpha" type="matrix" values="0 0 0 0 0 0 0 0 0 0 0 0 0 0 0 0 0 0 127 0" result="hardAlpha"/>
<feOffset dy="1"/>
<feGaussianBlur stdDeviation="0.5"/>
<feComposite in2="hardAlpha" operator="out"/>
<feColorMatrix type="matrix" values="0 0 0 0 0 0 0 0 0 0 0 0 0 0 0 0 0 0 1 0"/>
<feBlend mode="normal" in2="BackgroundImageFix" result="effect1_dropShadow_128_788"/>
<feBlend mode="normal" in="SourceGraphic" in2="effect1_dropShadow_128_788" result="shape"/>
</filter>
<radialGradient id="paint0_radial_128_788" cx="0" cy="0" r="1" gradientUnits="userSpaceOnUse" gradientTransform="translate(696.26 520.513) rotate(-179.99) scale(40.5428 227.722)">
<stop stop-color="#585959"/>
<stop offset="1" stop-color="#2E2E2E"/>
</radialGradient>
<linearGradient id="paint1_linear_128_788" x1="644.338" y1="493.363" x2="746.092" y2="493.363" gradientUnits="userSpaceOnUse">
<stop stop-color="#5F5F5F"/>
<stop offset="0.519434" stop-color="#E4E4E4"/>
<stop offset="1" stop-color="#626262"/>
</linearGradient>
<radialGradient id="paint2_radial_128_788" cx="0" cy="0" r="1" gradientUnits="userSpaceOnUse" gradientTransform="translate(699.054 476.231) rotate(-88.6759) scale(137.606 714.03)">
<stop offset="0.0238891" stop-color="#69B75D"/>
<stop offset="0.541074" stop-color="#D6F15B"/>
</radialGradient>
<linearGradient id="paint3_linear_128_788" x1="721.861" y1="518.925" x2="726.114" y2="519.305" gradientUnits="userSpaceOnUse">
<stop stop-color="#D6F15B"/>
<stop offset="1" stop-color="#69B75D"/>
</linearGradient>
<linearGradient id="paint4_linear_128_788" x1="748.698" y1="514.181" x2="752.1" y2="514.486" gradientUnits="userSpaceOnUse">
<stop stop-color="#D6F15B"/>
<stop offset="1" stop-color="#69B75D"/>
</linearGradient>
<linearGradient id="paint5_linear_128_788" x1="1.33965" y1="-3.74112e-06" x2="7.29424" y2="0.532503" gradientUnits="userSpaceOnUse">
<stop stop-color="#D6F15B"/>
<stop offset="1" stop-color="#69B75D"/>
</linearGradient>
<linearGradient id="paint6_linear_128_788" x1="0.956893" y1="-2.67223e-06" x2="5.21017" y2="0.380359" gradientUnits="userSpaceOnUse">
<stop stop-color="#D6F15B"/>
<stop offset="1" stop-color="#69B75D"/>
</linearGradient>
<linearGradient id="paint7_linear_128_788" x1="0.765514" y1="-2.13778e-06" x2="4.16814" y2="0.304287" gradientUnits="userSpaceOnUse">
<stop stop-color="#D6F15B"/>
<stop offset="1" stop-color="#69B75D"/>
</linearGradient>
<radialGradient id="paint8_radial_128_788" cx="0" cy="0" r="1" gradientUnits="userSpaceOnUse" gradientTransform="translate(1059.26 681.513) rotate(-179.99) scale(40.5428 227.722)">
<stop stop-color="#585959"/>
<stop offset="1" stop-color="#2E2E2E"/>
</radialGradient>
<linearGradient id="paint9_linear_128_788" x1="1007.34" y1="654.363" x2="1109.09" y2="654.363" gradientUnits="userSpaceOnUse">
<stop stop-color="#5F5F5F"/>
<stop offset="0.519434" stop-color="#E4E4E4"/>
<stop offset="1" stop-color="#626262"/>
</linearGradient>
<radialGradient id="paint10_radial_128_788" cx="0" cy="0" r="1" gradientUnits="userSpaceOnUse" gradientTransform="translate(1062.05 637.231) rotate(-88.6759) scale(137.606 714.03)">
<stop offset="0.0238891" stop-color="#69B75D"/>
<stop offset="0.541074" stop-color="#D6F15B"/>
</radialGradient>
<linearGradient id="paint11_linear_128_788" x1="1084.86" y1="679.925" x2="1089.11" y2="680.305" gradientUnits="userSpaceOnUse">
<stop stop-color="#D6F15B"/>
<stop offset="1" stop-color="#69B75D"/>
</linearGradient>
<linearGradient id="paint12_linear_128_788" x1="1111.7" y1="675.181" x2="1115.1" y2="675.486" gradientUnits="userSpaceOnUse">
<stop stop-color="#D6F15B"/>
<stop offset="1" stop-color="#69B75D"/>
</linearGradient>
<linearGradient id="paint13_linear_128_788" x1="1.33965" y1="-3.74112e-06" x2="7.29424" y2="0.532503" gradientUnits="userSpaceOnUse">
<stop stop-color="#D6F15B"/>
<stop offset="1" stop-color="#69B75D"/>
</linearGradient>
<linearGradient id="paint14_linear_128_788" x1="0.956893" y1="-2.67223e-06" x2="5.21017" y2="0.380359" gradientUnits="userSpaceOnUse">
<stop stop-color="#D6F15B"/>
<stop offset="1" stop-color="#69B75D"/>
</linearGradient>
<linearGradient id="paint15_linear_128_788" x1="0.765514" y1="-2.13778e-06" x2="4.16814" y2="0.304287" gradientUnits="userSpaceOnUse">
<stop stop-color="#D6F15B"/>
<stop offset="1" stop-color="#69B75D"/>
</linearGradient>
</defs>
</svg>
