<svg width="134" height="150" viewBox="0 0 134 150" fill="none" xmlns="http://www.w3.org/2000/svg">
<path d="M2.5 41.9647C2.5 39.3299 3.9154 36.8999 6.20349 35.6021L62.5807 3.62389C65.2226 2.12537 68.4562 2.12537 71.0981 3.62389L127.475 35.6021C129.763 36.8999 131.179 39.3299 131.179 41.9647V108.129C131.179 110.767 129.76 113.2 127.467 114.497L71.0886 146.381C68.4516 147.873 65.2272 147.873 62.5902 146.381L6.21152 114.497C3.91893 113.2 2.5 110.767 2.5 108.129V41.9647Z" fill="#D6F15B" fill-opacity="0.1" stroke="#D6F15B" stroke-width="5"/>
<path d="M66.5 39C46.3338 39 30 55.3681 30 75.5563C30 91.7112 40.4572 105.411 54.9569 110.239C56.7819 110.583 57.451 109.453 57.451 108.481C57.451 107.613 57.4206 105.313 57.4054 102.267C47.2523 104.472 45.111 97.3622 45.111 97.3622C43.4502 93.143 41.0504 92.0158 41.0504 92.0158C37.7441 89.7493 41.3059 89.795 41.3059 89.795C44.9711 90.0509 46.8965 93.5603 46.8965 93.5603C50.151 99.1504 55.4405 97.5358 57.5271 96.6006C57.8556 94.2366 58.7955 92.6251 59.8387 91.7112C51.7327 90.7973 43.213 87.6534 43.213 73.6463C43.213 69.6555 44.6274 66.3959 46.9695 63.837C46.5588 62.9139 45.327 59.1974 47.2888 54.1617C47.2888 54.1617 50.3457 53.1808 57.3263 57.9088C60.2463 57.0954 63.3488 56.6933 66.4513 56.675C69.5538 56.6933 72.6563 57.0954 75.5763 57.9088C82.5113 53.1808 85.5682 54.1617 85.5682 54.1617C87.5301 59.1974 86.2982 62.9139 85.9332 63.837C88.2601 66.3959 89.6745 69.6555 89.6745 73.6463C89.6745 87.69 81.1426 90.7821 73.0213 91.6807C74.2988 92.7774 75.4851 95.0195 75.4851 98.4437C75.4851 103.336 75.4395 107.266 75.4395 108.454C75.4395 109.414 76.0782 110.556 77.9488 110.19C92.5519 105.395 103 91.6868 103 75.5563C103 55.3681 86.6571 39 66.5 39Z" fill="#D6F15B"/>
</svg>
