<?xml version="1.0" encoding="UTF-8"?>
<svg width="86px" height="86px" viewBox="0 0 86 86" version="1.1" xmlns="http://www.w3.org/2000/svg" xmlns:xlink="http://www.w3.org/1999/xlink">
    <!-- Generator: Sketch 61.2 (89653) - https://sketch.com -->
    <title>Shape</title>
    <desc>Created with Sketch.</desc>
    <g id="Page-1" stroke="none" stroke-width="1" fill="none" fill-rule="evenodd">
        <g id="LANDING-PAGE----Copy-3" transform="translate(-450.000000, -4250.000000)" fill="#182848" fill-rule="nonzero">
            <g id="PAST-WORK" transform="translate(0.000000, 2849.000000)">
                <g id="Group-7" transform="translate(220.000000, 1374.000000)">
                    <g id="linkedin" transform="translate(230.000000, 27.000000)">
                        <path d="M73.2684167,73.2863333 L60.53325,73.2863333 L60.53325,53.33075 C60.53325,48.5720833 60.4365,42.4481667 53.8969167,42.4481667 C47.257,42.4481667 46.2429167,47.6260833 46.2429167,52.9795833 L46.2429167,73.2863333 L33.50775,73.2863333 L33.50775,32.25 L45.74125,32.25 L45.74125,37.8435833 L45.9060833,37.8435833 C47.6153333,34.6185833 51.772,31.2144167 57.9819167,31.2144167 C70.8855,31.2144167 73.272,39.7069167 73.272,50.7615 L73.272,73.2863333 L73.2684167,73.2863333 Z M19.12425,26.6349167 C15.0249167,26.6349167 11.7318333,23.31675 11.7318333,19.2353333 C11.7318333,15.1575 15.0285,11.8429167 19.12425,11.8429167 C23.20925,11.8429167 26.52025,15.1575 26.52025,19.2353333 C26.52025,23.31675 23.2056667,26.6349167 19.12425,26.6349167 Z M25.50975,73.2863333 L12.73875,73.2863333 L12.73875,32.25 L25.50975,32.25 L25.50975,73.2863333 Z M79.6395833,0 L6.34608333,0 C2.838,0 0,2.7735 0,6.19558333 L0,79.8044167 C0,83.2300833 2.838,86 6.34608333,86 L79.6288333,86 C83.1333333,86 86,83.2300833 86,79.8044167 L86,6.19558333 C86,2.7735 83.1333333,0 79.6288333,0 L79.6395833,0 Z" id="Shape"></path>
                    </g>
                </g>
            </g>
        </g>
    </g>
</svg>