<svg width="134" height="150" viewBox="0 0 134 150" fill="none" xmlns="http://www.w3.org/2000/svg">
<path d="M2.5 41.9647C2.5 39.3299 3.9154 36.8999 6.20349 35.6021L62.5807 3.62389C65.2226 2.12537 68.4562 2.12537 71.0981 3.62389L127.475 35.6021C129.763 36.8999 131.179 39.3299 131.179 41.9647V108.129C131.179 110.767 129.76 113.2 127.467 114.497L71.0886 146.381C68.4516 147.873 65.2272 147.873 62.5902 146.381L6.21152 114.497C3.91893 113.2 2.5 110.767 2.5 108.129V41.9647Z" fill="#D6F15B" fill-opacity="0.1" stroke="#D6F15B" stroke-width="5"/>
<path d="M91.6371 99.6517H81.2712V83.4087C81.2712 79.5354 81.1925 74.5508 75.8696 74.5508C70.465 74.5508 69.6396 78.7654 69.6396 83.1229V99.6517H59.2738V66.25H69.2312V70.8029H69.3654C70.7567 68.1779 74.14 65.4071 79.1946 65.4071C89.6975 65.4071 91.64 72.3196 91.64 81.3175V99.6517H91.6371ZM47.5662 61.6796C44.2296 61.6796 41.5492 58.9787 41.5492 55.6567C41.5492 52.3375 44.2325 49.6396 47.5662 49.6396C50.8912 49.6396 53.5862 52.3375 53.5862 55.6567C53.5862 58.9787 50.8883 61.6796 47.5662 61.6796ZM52.7637 99.6517H42.3688V66.25H52.7637V99.6517ZM96.8229 40H37.1654C34.31 40 32 42.2575 32 45.0429V104.957C32 107.745 34.31 110 37.1654 110H96.8142C99.6667 110 102 107.745 102 104.957V45.0429C102 42.2575 99.6667 40 96.8142 40H96.8229Z" fill="#D6F15B"/>
</svg>
