<svg width="2431" height="1472" viewBox="0 0 2431 1472" fill="none" xmlns="http://www.w3.org/2000/svg">
<g filter="url(#filter0_d_363_132)">
<ellipse cx="1219.25" cy="735.895" rx="600.779" ry="600.173" transform="rotate(15 1219.25 735.895)" fill="url(#paint0_radial_363_132)"/>
</g>
<g filter="url(#filter1_dd_363_132)">
<path fill-rule="evenodd" clip-rule="evenodd" d="M740.645 366.595C742.11 364.807 743.584 363.028 745.068 361.258C503.763 321.202 332.87 334.3 306.954 407.956C285.846 467.944 364.846 556.899 510.048 652.69C372.511 559.958 298.428 474.27 318.947 415.954C344.272 343.979 508.03 329.83 740.645 366.595ZM1830.03 750.739C1830.06 751.092 1830.08 751.444 1830.11 751.797C1861.7 770.056 1891.18 788.22 1918.35 806.144C1891.29 787.897 1861.77 769.377 1830.03 750.739ZM1827.3 722.924C1827.23 722.301 1827.15 721.677 1827.08 721.053C1892.89 756.499 1952.06 791.919 2003.29 826.457C1951.75 792.455 1892.67 757.675 1827.3 722.924ZM778.032 324.902C779.828 323.071 781.635 321.251 783.453 319.444C422.811 242.48 156.525 248.194 120.649 350.09C95.1982 422.374 190.454 529.563 365.536 644.988C199.696 533.249 110.369 429.996 135.11 359.727C170.324 259.713 427.516 252.362 778.032 324.902ZM1822.44 689.241C1822.58 690.055 1822.71 690.871 1822.85 691.686C1913.77 737.948 1994.85 784.555 2063.62 829.891C1995.33 783.876 1914.06 736.423 1822.44 689.241ZM1816.47 658.446C1816.24 657.379 1816 656.314 1815.76 655.249C1944.78 718.223 2057.71 782.298 2149.24 843.997C2056.99 783.15 1944.39 720.202 1816.47 658.446ZM798.948 304.557C800.971 302.68 803.006 300.816 805.053 298.967C387.711 203.962 75.0974 205.933 34.4341 321.486C6.73271 400.205 110.413 516.935 300.98 642.635C120.473 520.949 23.2456 408.505 50.1745 331.981C90.1251 218.453 392.578 214.562 798.948 304.557ZM755.409 349.226C757.031 347.386 758.663 345.557 760.305 343.739C463.298 287.595 248.935 298.132 218.234 385.383C194.851 451.834 282.366 550.371 443.218 656.479C290.857 553.759 208.79 458.84 231.52 394.243C261.591 308.782 467.862 296.919 755.409 349.226ZM2004.78 1084C2058.65 1073.9 2083.76 1055.64 2090.59 1036.23C2097.42 1016.83 2089.28 986.853 2053.61 945.213C2021.9 908.192 1972.25 866.609 1907.26 822.781C1978.16 869.547 2031.97 913.945 2065.6 953.211C2101.27 994.851 2109.41 1024.82 2102.58 1044.23C2095.75 1063.64 2070.64 1081.9 2016.77 1092C1964.56 1101.79 1892.36 1102.44 1804.65 1093.73C1629.54 1076.34 1397.16 1022.09 1149.34 934.799C901.518 847.505 686.424 744.129 539.045 647.927C532.956 643.952 526.99 639.994 521.147 636.054C523.102 637.344 525.071 638.635 527.052 639.929C674.43 736.131 889.525 839.507 1137.35 926.801C1385.17 1014.1 1617.55 1068.34 1792.66 1085.73C1880.37 1094.44 1952.57 1093.79 2004.78 1084ZM2275.18 1108.51C2266.16 1134.15 2233.77 1156.53 2168.6 1168.74C2105.1 1180.63 2017.6 1181.39 1911.66 1170.87C1700.11 1149.87 1419.58 1084.41 1120.55 979.151C821.516 873.888 561.843 749.19 383.79 633.042C381.39 631.476 379.005 629.912 376.636 628.351C383.694 633.107 390.9 637.884 398.252 642.68C576.305 758.828 835.978 883.525 1135.01 988.788C1434.04 1094.05 1714.57 1159.51 1926.13 1180.51C2032.06 1191.02 2119.56 1190.27 2183.06 1178.37C2248.23 1166.17 2280.62 1143.79 2289.64 1118.15C2298.67 1092.51 2287.45 1054.78 2244.3 1004.44C2203.39 956.718 2138.16 902.979 2052.52 846.53C2131.06 899.455 2191.26 949.804 2229.84 994.805C2272.99 1045.14 2284.21 1082.87 2275.18 1108.51ZM2196.13 1082.05C2188.14 1104.73 2159.22 1125.16 2099.43 1136.36C2041.31 1147.26 1961.1 1147.97 1863.84 1138.31C1669.64 1119.02 1412.05 1058.88 1137.4 962.146C862.76 865.409 624.318 750.829 460.875 644.146C458.674 642.71 456.489 641.275 454.317 639.843C460.796 644.212 467.411 648.6 474.161 653.005C637.604 759.689 876.047 874.269 1150.69 971.005C1425.33 1067.74 1682.93 1127.88 1877.13 1147.17C1974.38 1156.83 2054.6 1156.12 2112.72 1145.22C2172.51 1134.02 2201.43 1113.59 2209.41 1090.91C2217.39 1068.22 2207.64 1034.18 2168.05 987.966C2130.6 944.256 2070.81 894.949 1992.19 843.094C2064.28 891.703 2119.46 937.893 2154.76 979.107C2194.35 1025.32 2204.11 1059.37 2196.13 1082.05ZM2381.17 1148C2371 1176.91 2334.83 1201.44 2263.81 1214.75C2194.46 1227.75 2099.04 1228.56 1983.66 1217.1C1753.22 1194.21 1447.74 1122.88 1122.17 1008.22C796.599 893.553 513.826 757.7 319.878 631.116C317.261 629.408 314.661 627.702 312.078 625.998C319.765 631.181 327.613 636.386 335.619 641.611C529.567 768.195 812.34 904.049 1137.91 1018.71C1463.48 1133.38 1768.96 1204.71 1999.4 1227.59C2114.78 1239.05 2210.2 1238.24 2279.55 1225.25C2350.57 1211.94 2386.74 1187.4 2396.91 1158.5C2407.08 1129.6 2394.25 1087.81 2347.23 1032.92C2302.55 980.773 2231.4 922.146 2138.13 860.632C2223.69 918.317 2289.36 973.252 2331.49 1022.43C2378.51 1077.31 2391.34 1119.1 2381.17 1148Z" fill="url(#paint1_linear_363_132)"/>
</g>
<defs>
<filter id="filter0_d_363_132" x="617.361" y="135.533" width="1203.78" height="1202.72" filterUnits="userSpaceOnUse" color-interpolation-filters="sRGB">
<feFlood flood-opacity="0" result="BackgroundImageFix"/>
<feColorMatrix in="SourceAlpha" type="matrix" values="0 0 0 0 0 0 0 0 0 0 0 0 0 0 0 0 0 0 127 0" result="hardAlpha"/>
<feOffset dy="1"/>
<feGaussianBlur stdDeviation="0.5"/>
<feComposite in2="hardAlpha" operator="out"/>
<feColorMatrix type="matrix" values="0 0 0 0 0 0 0 0 0 0 0 0 0 0 0 0 0 0 1 0"/>
<feBlend mode="normal" in2="BackgroundImageFix" result="effect1_dropShadow_363_132"/>
<feBlend mode="normal" in="SourceGraphic" in2="effect1_dropShadow_363_132" result="shape"/>
</filter>
<filter id="filter1_dd_363_132" x="0" y="210" width="2430.17" height="1064.63" filterUnits="userSpaceOnUse" color-interpolation-filters="sRGB">
<feFlood flood-opacity="0" result="BackgroundImageFix"/>
<feColorMatrix in="SourceAlpha" type="matrix" values="0 0 0 0 0 0 0 0 0 0 0 0 0 0 0 0 0 0 127 0" result="hardAlpha"/>
<feOffset dy="9"/>
<feGaussianBlur stdDeviation="15"/>
<feComposite in2="hardAlpha" operator="out"/>
<feColorMatrix type="matrix" values="0 0 0 0 0.411765 0 0 0 0 0.717647 0 0 0 0 0.364706 0 0 0 1 0"/>
<feBlend mode="normal" in2="BackgroundImageFix" result="effect1_dropShadow_363_132"/>
<feColorMatrix in="SourceAlpha" type="matrix" values="0 0 0 0 0 0 0 0 0 0 0 0 0 0 0 0 0 0 127 0" result="hardAlpha"/>
<feOffset dx="-18" dy="34"/>
<feComposite in2="hardAlpha" operator="out"/>
<feColorMatrix type="matrix" values="0 0 0 0 0 0 0 0 0 0 0 0 0 0 0 0 0 0 1 0"/>
<feBlend mode="normal" in2="effect1_dropShadow_363_132" result="effect2_dropShadow_363_132"/>
<feBlend mode="normal" in="SourceGraphic" in2="effect2_dropShadow_363_132" result="shape"/>
</filter>
<radialGradient id="paint0_radial_363_132" cx="0" cy="0" r="1" gradientUnits="userSpaceOnUse" gradientTransform="translate(1222.28 135.767) rotate(86.0933) scale(1203.1 6746.43)">
<stop stop-color="#D6F15B"/>
<stop offset="1" stop-color="#69B75D"/>
</radialGradient>
<linearGradient id="paint1_linear_363_132" x1="1219.49" y1="252.124" x2="1219.49" y2="1251.47" gradientUnits="userSpaceOnUse">
<stop stop-color="#D6F15B"/>
<stop offset="1" stop-color="#69B75D"/>
</linearGradient>
</defs>
</svg>
