<svg width="701" height="281" viewBox="0 0 701 281" fill="none" xmlns="http://www.w3.org/2000/svg">
<g id="planet--full">
<circle id="Ellipse 81" cx="348.84" cy="140.139" r="140.139" fill="url(#paint0_radial_367_91)"/>
<g id="ring-5">
<path d="M231.836 61.5156C185.301 62.7939 143.423 66.7204 108.674 72.8388C76.8098 78.4493 51.3554 85.8329 33.8721 94.4605C20.4523 101.083 13.1045 107.724 10.0174 113.791C10.0036 113.404 10.0096 113.026 10.0338 112.656C10.2425 109.463 11.8707 105.837 16.0061 101.79C20.1837 97.702 26.564 93.5599 35.3019 89.5576C52.7678 81.5575 78.2144 74.7582 110.069 69.6469C144.786 64.0763 186.629 60.5846 233.134 59.5859C232.696 60.2254 232.263 60.8686 231.836 61.5156Z" fill="url(#paint1_linear_367_91)"/>
<path d="M474.688 76.948C522.608 84.3811 565.305 94.0046 600.128 104.961C630.991 114.672 655.268 125.306 671.48 136.136C687.035 146.528 693.179 155.713 693.57 163.005C694.685 161.027 695.212 159.174 695.325 157.448C695.534 154.256 694.392 150.448 690.818 145.897C687.208 141.3 681.421 136.363 673.279 131.257C657.003 121.052 632.658 110.998 601.74 101.784C566.224 91.1992 522.558 81.8739 473.54 74.6645C473.93 75.4217 474.312 76.1829 474.688 76.948Z" fill="url(#paint2_linear_367_91)"/>
<path d="M2.71234 112.177C2.21478 119.79 6.40023 127.458 14.6606 135.002C18.1848 139.152 23.3015 143.614 30.3515 148.324C46.563 159.154 70.8397 169.788 101.703 179.499C163.317 198.884 249.575 214.097 345.807 220.387C442.04 226.677 529.544 222.822 593.157 211.621C625.021 206.011 650.476 198.627 667.959 189.999C670.063 188.961 672.018 187.922 673.831 186.885C687.892 180.341 697.213 172.916 700.903 164.754C700.897 164.871 700.89 164.988 700.883 165.105C697.797 212.313 538.61 240.342 345.329 227.708C152.047 215.075 -2.1373 166.564 0.94835 119.355C1.11108 116.866 1.70797 114.429 2.72113 112.05C2.71806 112.092 2.71513 112.135 2.71234 112.177Z" fill="url(#paint3_linear_367_91)"/>
</g>
<g id="ring-4">
<path d="M225.203 72.6377C187.405 73.6748 153.263 76.4481 124.424 80.7051C94.947 85.0565 71.3096 90.9163 55.0314 97.8969C46.8838 101.391 40.8657 105.046 36.8943 108.709C32.9476 112.349 31.3605 115.661 31.1677 118.611C31.1613 118.708 31.1564 118.806 31.153 118.905C29.9085 116.712 29.5066 114.814 29.6131 113.184C29.7769 110.679 31.2149 107.7 35.1428 104.314C39.0819 100.918 45.0804 97.5214 53.2273 94.2808C69.4931 87.8108 93.1231 82.4246 122.589 78.4764C152.071 74.526 187.105 72.0519 225.929 71.2988C225.685 71.7436 225.443 72.1899 225.203 72.6377Z" fill="url(#paint4_linear_367_91)"/>
<path d="M480.009 89.2333C517.604 95.2011 551.313 102.431 579.51 110.451C608.17 118.602 630.844 127.489 646.075 136.529C653.698 141.054 659.189 145.461 662.65 149.61C663.87 151.072 664.801 152.455 665.486 153.763C665.346 151.434 664.173 148.61 661.157 145.231C657.693 141.352 652.188 137.203 644.532 132.93C629.247 124.398 606.519 115.981 577.818 108.231C549.929 100.7 516.666 93.8684 479.602 88.1678C479.739 88.5223 479.875 88.8775 480.009 89.2333Z" fill="url(#paint5_linear_367_91)"/>
<path d="M25.6797 120.301C28.9834 127.244 37.3652 134.209 50.0495 140.988C50.7251 141.409 51.4193 141.831 52.1321 142.255C67.3632 151.295 90.0367 160.181 118.697 168.333C175.929 184.61 255.872 197.635 344.916 203.455C433.96 209.275 514.919 206.767 573.782 198.078C603.26 193.727 626.897 187.867 643.175 180.886C651.323 177.393 657.341 173.737 661.313 170.074C662.134 169.316 662.854 168.573 663.48 167.843C668.108 163.874 670.681 159.618 670.976 155.105C671.039 154.142 670.997 153.177 670.853 152.21C672.138 154.988 672.711 157.765 672.53 160.532C670.019 198.945 523.181 220.621 344.557 208.946C169.107 197.478 28.2494 158.099 25.6797 120.301Z" fill="url(#paint6_linear_367_91)"/>
</g>
<g id="ring-3">
<path d="M484.878 104.88C511.121 109.097 534.91 113.871 555.468 119.007C581.302 125.46 601.801 132.426 615.619 139.455C622.546 142.979 627.532 146.389 630.67 149.56C631.9 150.803 632.771 151.93 633.37 152.945C633.46 152.639 633.507 152.356 633.524 152.097C633.613 150.73 632.944 148.561 629.752 145.538C626.607 142.559 621.602 139.34 614.649 136.005C600.786 129.355 580.244 122.741 554.381 116.587C533.986 111.735 510.421 107.202 484.443 103.17C484.591 103.739 484.736 104.309 484.878 104.88Z" fill="url(#paint7_linear_367_91)"/>
<path d="M219.109 85.5781C218.855 86.1979 218.605 86.8199 218.36 87.444C191.726 88.207 167.462 89.8463 146.367 92.2669C119.913 95.3026 98.6817 99.5414 84.0661 104.712C76.7393 107.304 71.3511 110.036 67.8278 112.772C65.0499 114.929 63.7709 116.808 63.2931 118.353C62.2761 116.816 62.0247 115.619 62.0817 114.747C62.1711 113.379 63.1169 111.316 66.6752 108.734C70.1818 106.19 75.5626 103.65 82.8911 101.248C97.5018 96.4595 118.73 92.5751 145.174 89.8407C166.777 87.607 191.709 86.1555 219.109 85.5781Z" fill="url(#paint8_linear_367_91)"/>
<path d="M58.3094 119.208C60.564 123.984 66.5617 128.82 75.7898 133.594C77.6404 134.715 79.6946 135.853 81.9555 137.003C95.7737 144.032 116.272 150.999 142.106 157.452C193.697 170.339 265.634 180.955 345.653 186.185C425.671 191.415 498.378 190.254 551.207 184.192C577.661 181.156 598.892 176.917 613.508 171.747C620.835 169.155 626.223 166.423 629.746 163.687C630.491 163.109 631.128 162.551 631.67 162.014C635.788 159.041 638.059 155.833 638.283 152.408C638.289 152.311 638.294 152.213 638.297 152.115C639.048 153.822 639.378 155.524 639.267 157.216C637.364 186.329 505.769 201.43 345.342 190.944C184.914 180.458 56.4041 148.356 58.307 119.243L58.3094 119.208Z" fill="url(#paint9_linear_367_91)"/>
</g>
<g id="ring-2">
<path d="M487.434 117.79C504.012 120.457 519.28 123.321 532.949 126.319C555.867 131.347 574.129 136.716 586.497 142.09C592.703 144.787 597.214 147.395 600.071 149.819C601.966 151.427 602.862 152.712 603.244 153.675C603.567 153.164 603.677 152.755 603.696 152.464C603.745 151.721 603.302 150.13 600.318 147.71C597.452 145.385 592.929 142.878 586.71 140.282C574.317 135.109 556.033 129.925 533.1 125.056C519.342 122.135 503.968 119.339 487.271 116.731C487.327 117.083 487.381 117.437 487.434 117.79Z" fill="url(#paint10_linear_367_91)"/>
<path d="M214.343 99.1797C214.242 99.5242 214.142 99.8693 214.044 100.215C198.435 100.713 183.964 101.533 170.876 102.654C147.498 104.655 128.693 107.602 115.73 111.32C109.226 113.186 104.414 115.185 101.266 117.216C99.2413 118.523 98.1872 119.65 97.6655 120.543C97.446 120.038 97.397 119.647 97.4149 119.373C97.4635 118.629 98.1094 117.11 101.382 115.099C104.527 113.166 109.338 111.269 115.842 109.505C128.803 105.989 147.606 103.23 170.978 101.387C184.121 100.351 198.658 99.6086 214.343 99.1797Z" fill="url(#paint11_linear_367_91)"/>
<path d="M93.7964 120.271C95.0844 129.569 119.329 139.529 158.605 148.469C161.562 149.169 164.61 149.863 167.745 150.551C213.526 160.593 277.249 169.134 348.038 173.761C418.827 178.388 483.119 178.214 529.818 174.217C532.448 173.992 535.02 173.755 537.532 173.506C578.329 169.813 604.27 163.102 607.109 154.024C607.161 154.424 607.174 154.823 607.148 155.22C605.741 176.752 489.626 186.692 347.799 177.422C205.971 168.152 92.1383 143.182 93.5456 121.65C93.576 121.185 93.6599 120.725 93.7964 120.271Z" fill="url(#paint12_linear_367_91)"/>
</g>
<g id="ring-1">
<path d="M488.772 130.977C495.388 131.989 501.691 133.022 507.648 134.069C527.633 137.583 543.645 141.247 554.562 144.84C560.04 146.643 564.094 148.382 566.702 150.001C567.692 150.616 568.402 151.17 568.888 151.647C569.078 151.453 569.147 151.329 569.169 151.275C569.15 151.205 569.075 151.017 568.796 150.695C568.342 150.169 567.523 149.5 566.208 148.725C563.588 147.182 559.521 145.521 554.033 143.797C543.097 140.36 527.069 136.839 507.073 133.446C501.281 132.464 495.163 131.493 488.747 130.539C488.756 130.685 488.764 130.831 488.772 130.977Z" fill="url(#paint13_linear_367_91)"/>
<path d="M211.165 112.371C211.131 112.551 211.098 112.73 211.064 112.91C204.726 113.051 198.669 113.247 192.92 113.498C172.647 114.38 156.295 115.929 145.003 118.07C139.337 119.145 135.091 120.342 132.295 121.607C130.893 122.242 129.99 122.834 129.462 123.332C129.389 123.401 129.326 123.465 129.272 123.524C129.084 123.354 128.927 123.195 128.799 123.047C128.521 122.725 128.445 122.537 128.426 122.467C128.454 122.4 128.554 122.224 128.872 121.94C129.391 121.478 130.29 120.921 131.695 120.324C134.493 119.136 138.742 118.018 144.408 117.023C155.697 115.039 172.047 113.634 192.315 112.873C198.277 112.649 204.571 112.482 211.165 112.371Z" fill="url(#paint14_linear_367_91)"/>
<path d="M569.18 151.244C569.18 151.244 569.18 151.245 569.179 151.247C569.179 151.249 569.178 151.252 569.177 151.256C569.178 151.248 569.18 151.244 569.18 151.244Z" fill="url(#paint15_linear_367_91)"/>
<path d="M126.38 124.091C130.936 131.275 164.7 139.526 215.008 146.694C251.923 152.152 297.917 156.964 347.902 160.231C407.566 164.131 461.88 165.108 502.061 163.552C544.61 162.131 571.311 157.964 571.737 151.443C571.745 151.33 571.744 151.217 571.736 151.104C572.127 151.751 572.306 152.391 572.265 153.022C571.386 166.466 470.86 170.841 347.734 162.794C225.259 154.788 126.555 137.507 126.38 124.091Z" fill="url(#paint16_linear_367_91)"/>
<path d="M128.42 122.435C128.42 122.435 128.421 122.439 128.421 122.447C128.42 122.439 128.42 122.435 128.42 122.435Z" fill="url(#paint17_linear_367_91)"/>
<path d="M128.416 122.498C128.416 122.498 128.416 122.494 128.419 122.486C128.418 122.494 128.416 122.498 128.416 122.498Z" fill="url(#paint18_linear_367_91)"/>
<path d="M569.174 151.295C569.176 151.302 569.176 151.307 569.176 151.307C569.176 151.307 569.174 151.303 569.174 151.295Z" fill="url(#paint19_linear_367_91)"/>
</g>
</g>
<defs>
<radialGradient id="paint0_radial_367_91" cx="0" cy="0" r="1" gradientUnits="userSpaceOnUse" gradientTransform="translate(349.547 0.0102887) rotate(86.0972) scale(280.919 1573.69)">
<stop stop-color="#D6F15B"/>
<stop offset="1" stop-color="#69B75D"/>
</radialGradient>
<linearGradient id="paint1_linear_367_91" x1="312.164" y1="9.29737" x2="387.779" y2="279.12" gradientUnits="userSpaceOnUse">
<stop stop-color="#D6F15B"/>
<stop offset="1" stop-color="#69B75D"/>
</linearGradient>
<linearGradient id="paint2_linear_367_91" x1="312.164" y1="9.29737" x2="387.779" y2="279.12" gradientUnits="userSpaceOnUse">
<stop stop-color="#D6F15B"/>
<stop offset="1" stop-color="#69B75D"/>
</linearGradient>
<linearGradient id="paint3_linear_367_91" x1="312.164" y1="9.29737" x2="387.779" y2="279.12" gradientUnits="userSpaceOnUse">
<stop stop-color="#D6F15B"/>
<stop offset="1" stop-color="#69B75D"/>
</linearGradient>
<linearGradient id="paint4_linear_367_91" x1="314.21" y1="22.3598" x2="381.198" y2="261.398" gradientUnits="userSpaceOnUse">
<stop stop-color="#D6F15B"/>
<stop offset="1" stop-color="#69B75D"/>
</linearGradient>
<linearGradient id="paint5_linear_367_91" x1="314.21" y1="22.3598" x2="381.198" y2="261.398" gradientUnits="userSpaceOnUse">
<stop stop-color="#D6F15B"/>
<stop offset="1" stop-color="#69B75D"/>
</linearGradient>
<linearGradient id="paint6_linear_367_91" x1="314.21" y1="22.3598" x2="381.198" y2="261.398" gradientUnits="userSpaceOnUse">
<stop stop-color="#D6F15B"/>
<stop offset="1" stop-color="#69B75D"/>
</linearGradient>
<linearGradient id="paint7_linear_367_91" x1="319.14" y1="37.0001" x2="376.955" y2="243.303" gradientUnits="userSpaceOnUse">
<stop stop-color="#D6F15B"/>
<stop offset="1" stop-color="#69B75D"/>
</linearGradient>
<linearGradient id="paint8_linear_367_91" x1="319.14" y1="37.0001" x2="376.955" y2="243.303" gradientUnits="userSpaceOnUse">
<stop stop-color="#D6F15B"/>
<stop offset="1" stop-color="#69B75D"/>
</linearGradient>
<linearGradient id="paint9_linear_367_91" x1="319.14" y1="37.0001" x2="376.955" y2="243.303" gradientUnits="userSpaceOnUse">
<stop stop-color="#D6F15B"/>
<stop offset="1" stop-color="#69B75D"/>
</linearGradient>
<linearGradient id="paint10_linear_367_91" x1="325.66" y1="50.9629" x2="375.305" y2="228.117" gradientUnits="userSpaceOnUse">
<stop stop-color="#D6F15B"/>
<stop offset="1" stop-color="#69B75D"/>
</linearGradient>
<linearGradient id="paint11_linear_367_91" x1="325.66" y1="50.9629" x2="375.305" y2="228.117" gradientUnits="userSpaceOnUse">
<stop stop-color="#D6F15B"/>
<stop offset="1" stop-color="#69B75D"/>
</linearGradient>
<linearGradient id="paint12_linear_367_91" x1="325.66" y1="50.9629" x2="375.305" y2="228.117" gradientUnits="userSpaceOnUse">
<stop stop-color="#D6F15B"/>
<stop offset="1" stop-color="#69B75D"/>
</linearGradient>
<linearGradient id="paint13_linear_367_91" x1="328.556" y1="64.3385" x2="370.291" y2="213.263" gradientUnits="userSpaceOnUse">
<stop stop-color="#D6F15B"/>
<stop offset="1" stop-color="#69B75D"/>
</linearGradient>
<linearGradient id="paint14_linear_367_91" x1="328.556" y1="64.3385" x2="370.291" y2="213.263" gradientUnits="userSpaceOnUse">
<stop stop-color="#D6F15B"/>
<stop offset="1" stop-color="#69B75D"/>
</linearGradient>
<linearGradient id="paint15_linear_367_91" x1="328.556" y1="64.3385" x2="370.291" y2="213.263" gradientUnits="userSpaceOnUse">
<stop stop-color="#D6F15B"/>
<stop offset="1" stop-color="#69B75D"/>
</linearGradient>
<linearGradient id="paint16_linear_367_91" x1="328.556" y1="64.3385" x2="370.291" y2="213.263" gradientUnits="userSpaceOnUse">
<stop stop-color="#D6F15B"/>
<stop offset="1" stop-color="#69B75D"/>
</linearGradient>
<linearGradient id="paint17_linear_367_91" x1="328.556" y1="64.3385" x2="370.291" y2="213.263" gradientUnits="userSpaceOnUse">
<stop stop-color="#D6F15B"/>
<stop offset="1" stop-color="#69B75D"/>
</linearGradient>
<linearGradient id="paint18_linear_367_91" x1="328.556" y1="64.3385" x2="370.291" y2="213.263" gradientUnits="userSpaceOnUse">
<stop stop-color="#D6F15B"/>
<stop offset="1" stop-color="#69B75D"/>
</linearGradient>
<linearGradient id="paint19_linear_367_91" x1="328.556" y1="64.3385" x2="370.291" y2="213.263" gradientUnits="userSpaceOnUse">
<stop stop-color="#D6F15B"/>
<stop offset="1" stop-color="#69B75D"/>
</linearGradient>
</defs>
</svg>
