<svg width="1803" height="761" viewBox="0 0 1803 761" fill="none" xmlns="http://www.w3.org/2000/svg">
<path id="ring" fill-rule="evenodd" clip-rule="evenodd" d="M1788.02 697.238C1781.18 716.644 1756.06 734.906 1702.15 745.005C1649.92 754.79 1577.68 755.447 1489.91 746.735C1314.71 729.342 1082.19 675.097 834.233 587.802C586.274 500.508 371.058 397.131 223.597 300.928C221.614 299.635 219.645 298.343 217.689 297.053C223.535 300.993 229.505 304.951 235.597 308.926C383.058 405.129 598.274 508.506 846.234 595.8C1094.19 683.095 1326.71 737.34 1501.91 754.733C1589.68 763.445 1661.92 762.788 1714.15 753.003C1768.06 742.904 1793.18 724.642 1800.02 705.236C1806.85 685.83 1798.71 655.857 1763.01 614.214C1729.36 574.947 1675.52 530.548 1604.57 483.78C1669.61 527.61 1719.28 569.194 1751.01 606.216C1786.71 647.859 1794.85 677.832 1788.02 697.238ZM1615.67 467.143C1466.24 366.445 1241.94 257.443 982.67 166.168C484.647 -9.16139 46.2041 -52.6847 3.38052 68.9559C-17.7385 128.945 61.305 217.9 206.588 313.691C68.9742 220.959 -5.14939 135.27 15.3807 76.954C58.2043 -44.6866 496.647 -1.16328 994.67 174.166C1247.09 263.029 1466.36 368.696 1615.67 467.143Z" fill="url(#paint0_linear_361_102)"/>
<defs>
<linearGradient id="paint0_linear_361_102" x1="904.458" y1="15.998" x2="904.458" y2="772.833" gradientUnits="userSpaceOnUse">
<stop stop-color="#D6F15B"/>
<stop offset="1" stop-color="#69B75D"/>
</linearGradient>
</defs>
</svg>
