<svg width="134" height="150" viewBox="0 0 134 150" fill="none" xmlns="http://www.w3.org/2000/svg">
<path d="M2.5 41.9647C2.5 39.3299 3.9154 36.8999 6.20349 35.6021L62.5807 3.62389C65.2226 2.12537 68.4562 2.12537 71.0981 3.62389L127.475 35.6021C129.763 36.8999 131.179 39.3299 131.179 41.9647V108.129C131.179 110.767 129.76 113.2 127.467 114.497L71.0886 146.381C68.4516 147.873 65.2272 147.873 62.5902 146.381L6.21152 114.497C3.91892 113.2 2.5 110.767 2.5 108.129V41.9647Z" fill="#D6F15B" fill-opacity="0.1" stroke="#D6F15B" stroke-width="5"/>
<path d="M86.3478 102.726V84.5762H92.3718V108.75H38V84.5762H44.0239V102.726H86.3478Z" fill="#D6F15B"/>
<path d="M50.6747 82.8545L80.2467 89.0349L81.4984 83.0892L51.9264 76.9088L50.6747 82.8545ZM54.5863 68.7726L81.9678 81.5246L84.4712 76.0483L57.0898 63.2181L54.5863 68.7726ZM62.1749 55.3166L85.41 74.6401L89.2434 70.0244L66.0083 50.7009L62.1749 55.3166ZM77.1956 41L72.3452 44.5987L90.3387 68.8509L95.1891 65.2522L77.1956 41ZM50.0488 96.6235H80.2467V90.5996H50.0488V96.6235Z" fill="#D6F15B"/>
</svg>
