<svg width="2958" height="2204" viewBox="0 0 2958 2204" fill="none" xmlns="http://www.w3.org/2000/svg">
<g filter="url(#filter0_di_67_684)">
<path d="M10 10V2193.17L2948 2194V10H10Z" fill="#0A0A0A"/>
<path d="M2932.5 2178.5L25.5 2177.67V25.5H2932.5V2178.5Z" stroke="black" stroke-width="31"/>
</g>
<path d="M309.752 376.007C310.811 376.801 312.21 376.958 313.416 376.418L335.986 366.299C337.193 365.758 338.019 364.602 338.148 363.272L340.124 342.868C340.504 338.95 338.827 335.116 335.706 332.767L319.456 320.534C318.397 319.737 316.996 319.579 315.789 320.12L293.218 330.239C292.012 330.779 291.187 331.933 291.057 333.261L289.054 353.667C288.669 357.596 290.35 361.44 293.483 363.792L309.752 376.007Z" fill="url(#paint0_linear_67_684)"/>
<path d="M344.672 363.14C344.522 364.465 345.087 365.77 346.152 366.557L366.093 381.287C367.159 382.075 368.562 382.221 369.763 381.669L388.205 373.2C391.747 371.573 394.188 368.187 394.637 364.275L396.975 343.911C397.128 342.584 396.563 341.276 395.496 340.489L375.555 325.759C374.49 324.972 373.09 324.825 371.889 325.375L353.432 333.822C349.879 335.449 347.432 338.845 346.986 342.767L344.672 363.14Z" fill="url(#paint1_linear_67_684)"/>
<path d="M326.568 283.084C325.359 283.615 324.525 284.763 324.385 286.09L321.755 310.939C321.614 312.268 322.191 313.57 323.263 314.348L339.729 326.282C342.891 328.575 347.009 329.021 350.579 327.459L369.168 319.328C370.379 318.798 371.215 317.648 371.356 316.32L373.986 291.471C374.126 290.144 373.551 288.843 372.481 288.065L356.026 276.106C352.859 273.804 348.729 273.356 345.152 274.926L326.568 283.084Z" fill="url(#paint2_linear_67_684)"/>
<g filter="url(#filter1_d_67_684)">
<path d="M1126.88 468H1103.05V353.781H1168.52V373.625H1126.88V403.078H1165.62V422.844H1126.88V468ZM1263.56 424.172C1263.56 431.464 1262.57 437.922 1260.59 443.547C1258.66 449.172 1255.83 453.938 1252.08 457.844C1248.38 461.698 1243.9 464.615 1238.64 466.594C1233.43 468.573 1227.54 469.562 1220.98 469.562C1214.84 469.562 1209.18 468.573 1204.03 466.594C1198.92 464.615 1194.47 461.698 1190.67 457.844C1186.92 453.938 1184 449.172 1181.92 443.547C1179.89 437.922 1178.87 431.464 1178.87 424.172C1178.87 414.484 1180.59 406.281 1184.03 399.562C1187.47 392.844 1192.36 387.74 1198.72 384.25C1205.07 380.76 1212.65 379.016 1221.45 379.016C1229.63 379.016 1236.87 380.76 1243.17 384.25C1249.52 387.74 1254.5 392.844 1258.09 399.562C1261.74 406.281 1263.56 414.484 1263.56 424.172ZM1203.17 424.172C1203.17 429.901 1203.79 434.719 1205.04 438.625C1206.29 442.531 1208.25 445.474 1210.9 447.453C1213.56 449.432 1217.02 450.422 1221.29 450.422C1225.51 450.422 1228.92 449.432 1231.53 447.453C1234.18 445.474 1236.11 442.531 1237.31 438.625C1238.56 434.719 1239.18 429.901 1239.18 424.172C1239.18 418.391 1238.56 413.599 1237.31 409.797C1236.11 405.943 1234.18 403.052 1231.53 401.125C1228.87 399.198 1225.41 398.234 1221.14 398.234C1214.84 398.234 1210.25 400.396 1207.39 404.719C1204.58 409.042 1203.17 415.526 1203.17 424.172ZM1357.82 424.172C1357.82 431.464 1356.83 437.922 1354.85 443.547C1352.93 449.172 1350.09 453.938 1346.34 457.844C1342.64 461.698 1338.16 464.615 1332.9 466.594C1327.69 468.573 1321.81 469.562 1315.24 469.562C1309.1 469.562 1303.45 468.573 1298.29 466.594C1293.19 464.615 1288.73 461.698 1284.93 457.844C1281.18 453.938 1278.26 449.172 1276.18 443.547C1274.15 437.922 1273.13 431.464 1273.13 424.172C1273.13 414.484 1274.85 406.281 1278.29 399.562C1281.73 392.844 1286.62 387.74 1292.98 384.25C1299.33 380.76 1306.91 379.016 1315.71 379.016C1323.89 379.016 1331.13 380.76 1337.43 384.25C1343.79 387.74 1348.76 392.844 1352.35 399.562C1356 406.281 1357.82 414.484 1357.82 424.172ZM1297.43 424.172C1297.43 429.901 1298.06 434.719 1299.31 438.625C1300.56 442.531 1302.51 445.474 1305.17 447.453C1307.82 449.432 1311.29 450.422 1315.56 450.422C1319.78 450.422 1323.19 449.432 1325.79 447.453C1328.45 445.474 1330.37 442.531 1331.57 438.625C1332.82 434.719 1333.45 429.901 1333.45 424.172C1333.45 418.391 1332.82 413.599 1331.57 409.797C1330.37 405.943 1328.45 403.052 1325.79 401.125C1323.13 399.198 1319.67 398.234 1315.4 398.234C1309.1 398.234 1304.51 400.396 1301.65 404.719C1298.84 409.042 1297.43 415.526 1297.43 424.172ZM1409.51 450.578C1412.11 450.578 1414.64 450.318 1417.08 449.797C1419.58 449.276 1422.06 448.625 1424.51 447.844V465.578C1421.95 466.724 1418.78 467.661 1414.97 468.391C1411.22 469.172 1407.11 469.562 1402.63 469.562C1397.42 469.562 1392.74 468.729 1388.57 467.062C1384.45 465.344 1381.2 462.401 1378.8 458.234C1376.46 454.016 1375.29 448.156 1375.29 440.656V398.547H1363.88V388.469L1377.01 380.5L1383.88 362.062H1399.12V380.656H1423.57V398.547H1399.12V440.656C1399.12 443.99 1400.05 446.49 1401.93 448.156C1403.86 449.771 1406.38 450.578 1409.51 450.578ZM1473.46 379.016C1481.53 379.016 1488.48 380.578 1494.32 383.703C1500.15 386.776 1504.65 391.255 1507.83 397.141C1511.01 403.026 1512.6 410.214 1512.6 418.703V430.266H1456.27C1456.53 436.984 1458.53 442.271 1462.28 446.125C1466.09 449.927 1471.35 451.828 1478.07 451.828C1483.64 451.828 1488.74 451.255 1493.38 450.109C1498.01 448.964 1502.78 447.245 1507.67 444.953V463.391C1503.35 465.526 1498.82 467.089 1494.08 468.078C1489.39 469.068 1483.69 469.562 1476.97 469.562C1468.22 469.562 1460.46 467.948 1453.69 464.719C1446.97 461.49 1441.69 456.568 1437.83 449.953C1434.03 443.339 1432.13 435.005 1432.13 424.953C1432.13 414.745 1433.85 406.255 1437.28 399.484C1440.77 392.661 1445.62 387.557 1451.82 384.172C1458.01 380.734 1465.23 379.016 1473.46 379.016ZM1473.61 395.969C1468.98 395.969 1465.12 397.453 1462.05 400.422C1459.03 403.391 1457.28 408.052 1456.82 414.406H1490.25C1490.2 410.865 1489.55 407.714 1488.3 404.953C1487.1 402.193 1485.28 400.005 1482.83 398.391C1480.44 396.776 1477.36 395.969 1473.61 395.969ZM1575.92 379.016C1577.12 379.016 1578.5 379.094 1580.06 379.25C1581.68 379.354 1582.98 379.51 1583.97 379.719L1582.17 402.062C1581.39 401.802 1580.27 401.62 1578.81 401.516C1577.41 401.359 1576.18 401.281 1575.14 401.281C1572.07 401.281 1569.07 401.672 1566.16 402.453C1563.29 403.234 1560.71 404.51 1558.42 406.281C1556.13 408 1554.31 410.292 1552.95 413.156C1551.65 415.969 1551 419.432 1551 423.547V468H1527.17V380.656H1545.22L1548.73 395.344H1549.91C1551.62 392.375 1553.76 389.667 1556.31 387.219C1558.92 384.719 1561.86 382.74 1565.14 381.281C1568.47 379.771 1572.07 379.016 1575.92 379.016Z" fill="url(#paint3_linear_67_684)"/>
</g>
<rect x="616" y="1837" width="1488" height="2" fill="#EBFF27"/>
<g filter="url(#filter2_di_67_684)">
<circle cx="1294" cy="1215" r="275" fill="#A09A93"/>
</g>
<path d="M882.5 1994.97C882.5 1992.33 883.915 1989.9 886.203 1988.6L942.581 1956.62C945.223 1955.13 948.456 1955.13 951.098 1956.62L1007.48 1988.6C1009.76 1989.9 1011.18 1992.33 1011.18 1994.97V2061.13C1011.18 2063.77 1009.76 2066.2 1007.47 2067.5L951.089 2099.38C948.452 2100.87 945.227 2100.87 942.59 2099.38L886.212 2067.5C883.919 2066.2 882.5 2063.77 882.5 2061.13V1994.97Z" fill="#D6F15B" fill-opacity="0.1" stroke="#D6F15B" stroke-width="5"/>
<path d="M1089.5 1994.97C1089.5 1992.33 1090.92 1989.9 1093.2 1988.6L1149.58 1956.62C1152.22 1955.13 1155.46 1955.13 1158.1 1956.62L1214.48 1988.6C1216.76 1989.9 1218.18 1992.33 1218.18 1994.97V2061.13C1218.18 2063.77 1216.76 2066.2 1214.47 2067.5L1158.09 2099.38C1155.45 2100.87 1152.23 2100.87 1149.59 2099.38L1093.21 2067.5C1090.92 2066.2 1089.5 2063.77 1089.5 2061.13V1994.97Z" fill="#D6F15B" fill-opacity="0.1" stroke="#D6F15B" stroke-width="5"/>
<path d="M1296.5 1994.97C1296.5 1992.33 1297.92 1989.9 1300.2 1988.6L1356.58 1956.62C1359.22 1955.13 1362.46 1955.13 1365.1 1956.62L1421.48 1988.6C1423.76 1989.9 1425.18 1992.33 1425.18 1994.97V2061.13C1425.18 2063.77 1423.76 2066.2 1421.47 2067.5L1365.09 2099.38C1362.45 2100.87 1359.23 2100.87 1356.59 2099.38L1300.21 2067.5C1297.92 2066.2 1296.5 2063.77 1296.5 2061.13V1994.97Z" fill="#D6F15B" fill-opacity="0.1" stroke="#D6F15B" stroke-width="5"/>
<path d="M1503.5 1994.97C1503.5 1992.33 1504.92 1989.9 1507.2 1988.6L1563.58 1956.62C1566.22 1955.13 1569.46 1955.13 1572.1 1956.62L1628.48 1988.6C1630.76 1989.9 1632.18 1992.33 1632.18 1994.97V2061.13C1632.18 2063.77 1630.76 2066.2 1628.47 2067.5L1572.09 2099.38C1569.45 2100.87 1566.23 2100.87 1563.59 2099.38L1507.21 2067.5C1504.92 2066.2 1503.5 2063.77 1503.5 2061.13V1994.97Z" fill="#D6F15B" fill-opacity="0.1" stroke="#D6F15B" stroke-width="5"/>
<path d="M1710.5 1994.97C1710.5 1992.33 1711.92 1989.9 1714.2 1988.6L1770.58 1956.62C1773.22 1955.13 1776.46 1955.13 1779.1 1956.62L1835.48 1988.6C1837.76 1989.9 1839.18 1992.33 1839.18 1994.97V2061.13C1839.18 2063.77 1837.76 2066.2 1835.47 2067.5L1779.09 2099.38C1776.45 2100.87 1773.23 2100.87 1770.59 2099.38L1714.21 2067.5C1711.92 2066.2 1710.5 2063.77 1710.5 2061.13V1994.97Z" fill="#D6F15B" fill-opacity="0.1" stroke="#D6F15B" stroke-width="5"/>
<g filter="url(#filter3_f_67_684)">
<path d="M1884.92 1105.33C1921.61 1105.33 1951.36 1075.59 1951.36 1038.9C1951.36 1002.21 1921.61 972.465 1884.92 972.465C1848.23 972.465 1818.49 1002.21 1818.49 1038.9C1818.49 1075.59 1848.23 1105.33 1884.92 1105.33Z" fill="url(#paint4_radial_67_684)"/>
</g>
<path d="M1961.52 1115.52L1885.97 1047.99L1833.74 1135.75L1874.61 1043.04L1775 1020.48L1875.81 1030.7L1866.48 929L1887.91 1028.03L1981.75 987.735L1894.19 1038.72L1961.52 1115.52Z" fill="url(#paint5_radial_67_684)"/>
<path d="M1907.1 1113.89L1881.66 1045.05L1818.46 1083.49L1876.07 1038.02L1819.98 989.797L1881.02 1030.54L1909.56 962.292L1889.68 1032.93L1963.4 1038.98L1890.07 1041.9L1907.1 1113.89Z" fill="url(#paint6_radial_67_684)"/>
<defs>
<filter id="filter0_di_67_684" x="0" y="0" width="2958" height="2204" filterUnits="userSpaceOnUse" color-interpolation-filters="sRGB">
<feFlood flood-opacity="0" result="BackgroundImageFix"/>
<feColorMatrix in="SourceAlpha" type="matrix" values="0 0 0 0 0 0 0 0 0 0 0 0 0 0 0 0 0 0 127 0" result="hardAlpha"/>
<feOffset/>
<feGaussianBlur stdDeviation="5"/>
<feComposite in2="hardAlpha" operator="out"/>
<feColorMatrix type="matrix" values="0 0 0 0 1 0 0 0 0 1 0 0 0 0 1 0 0 0 1 0"/>
<feBlend mode="normal" in2="BackgroundImageFix" result="effect1_dropShadow_67_684"/>
<feBlend mode="normal" in="SourceGraphic" in2="effect1_dropShadow_67_684" result="shape"/>
<feColorMatrix in="SourceAlpha" type="matrix" values="0 0 0 0 0 0 0 0 0 0 0 0 0 0 0 0 0 0 127 0" result="hardAlpha"/>
<feOffset dy="8"/>
<feGaussianBlur stdDeviation="2"/>
<feComposite in2="hardAlpha" operator="arithmetic" k2="-1" k3="1"/>
<feColorMatrix type="matrix" values="0 0 0 0 0.904167 0 0 0 0 0.863981 0 0 0 0 0.821285 0 0 0 1 0"/>
<feBlend mode="normal" in2="shape" result="effect2_innerShadow_67_684"/>
</filter>
<filter id="filter1_d_67_684" x="1102.05" y="353.781" width="482.922" height="117.781" filterUnits="userSpaceOnUse" color-interpolation-filters="sRGB">
<feFlood flood-opacity="0" result="BackgroundImageFix"/>
<feColorMatrix in="SourceAlpha" type="matrix" values="0 0 0 0 0 0 0 0 0 0 0 0 0 0 0 0 0 0 127 0" result="hardAlpha"/>
<feOffset dy="1"/>
<feGaussianBlur stdDeviation="0.5"/>
<feComposite in2="hardAlpha" operator="out"/>
<feColorMatrix type="matrix" values="0 0 0 0 0 0 0 0 0 0 0 0 0 0 0 0 0 0 1 0"/>
<feBlend mode="normal" in2="BackgroundImageFix" result="effect1_dropShadow_67_684"/>
<feBlend mode="normal" in="SourceGraphic" in2="effect1_dropShadow_67_684" result="shape"/>
</filter>
<filter id="filter2_di_67_684" x="949" y="870" width="690" height="690" filterUnits="userSpaceOnUse" color-interpolation-filters="sRGB">
<feFlood flood-opacity="0" result="BackgroundImageFix"/>
<feColorMatrix in="SourceAlpha" type="matrix" values="0 0 0 0 0 0 0 0 0 0 0 0 0 0 0 0 0 0 127 0" result="hardAlpha"/>
<feOffset/>
<feGaussianBlur stdDeviation="35"/>
<feComposite in2="hardAlpha" operator="out"/>
<feColorMatrix type="matrix" values="0 0 0 0 1 0 0 0 0 1 0 0 0 0 1 0 0 0 1 0"/>
<feBlend mode="normal" in2="BackgroundImageFix" result="effect1_dropShadow_67_684"/>
<feBlend mode="normal" in="SourceGraphic" in2="effect1_dropShadow_67_684" result="shape"/>
<feColorMatrix in="SourceAlpha" type="matrix" values="0 0 0 0 0 0 0 0 0 0 0 0 0 0 0 0 0 0 127 0" result="hardAlpha"/>
<feOffset/>
<feGaussianBlur stdDeviation="25"/>
<feComposite in2="hardAlpha" operator="arithmetic" k2="-1" k3="1"/>
<feColorMatrix type="matrix" values="0 0 0 0 1 0 0 0 0 1 0 0 0 0 1 0 0 0 1 0"/>
<feBlend mode="normal" in2="shape" result="effect2_innerShadow_67_684"/>
</filter>
<filter id="filter3_f_67_684" x="1799.62" y="953.598" width="170.604" height="170.604" filterUnits="userSpaceOnUse" color-interpolation-filters="sRGB">
<feFlood flood-opacity="0" result="BackgroundImageFix"/>
<feBlend mode="normal" in="SourceGraphic" in2="BackgroundImageFix" result="shape"/>
<feGaussianBlur stdDeviation="9.43338" result="effect1_foregroundBlur_67_684"/>
</filter>
<linearGradient id="paint0_linear_67_684" x1="197.265" y1="240.402" x2="316.523" y2="156.754" gradientUnits="userSpaceOnUse">
<stop offset="0.213137" stop-color="#D6F15B"/>
<stop offset="1" stop-color="#69B75D"/>
</linearGradient>
<linearGradient id="paint1_linear_67_684" x1="197.265" y1="240.402" x2="316.523" y2="156.754" gradientUnits="userSpaceOnUse">
<stop offset="0.213137" stop-color="#D6F15B"/>
<stop offset="1" stop-color="#69B75D"/>
</linearGradient>
<linearGradient id="paint2_linear_67_684" x1="197.265" y1="240.402" x2="316.523" y2="156.754" gradientUnits="userSpaceOnUse">
<stop offset="0.213137" stop-color="#D6F15B"/>
<stop offset="1" stop-color="#69B75D"/>
</linearGradient>
<linearGradient id="paint3_linear_67_684" x1="825.5" y1="251" x2="1428.78" y2="525.379" gradientUnits="userSpaceOnUse">
<stop stop-color="#D6F15B"/>
<stop offset="1" stop-color="#69B75D"/>
</linearGradient>
<radialGradient id="paint4_radial_67_684" cx="0" cy="0" r="1" gradientUnits="userSpaceOnUse" gradientTransform="translate(1884.92 1038.9) scale(89.0736 89.0736)">
<stop stop-color="#9FFDFF"/>
<stop offset="0.58026" stop-color="#42DFE2" stop-opacity="0"/>
<stop offset="0.72293" stop-color="#2CD8DC" stop-opacity="0.26471"/>
<stop offset="0.8751" stop-color="#13D0D4" stop-opacity="0.12157"/>
<stop offset="1" stop-color="#00CACF" stop-opacity="0"/>
</radialGradient>
<radialGradient id="paint5_radial_67_684" cx="0" cy="0" r="1" gradientUnits="userSpaceOnUse" gradientTransform="translate(1878.46 1032.45) scale(103.551 103.551)">
<stop stop-color="white"/>
<stop offset="0.5" stop-color="#4FE3E7" stop-opacity="0.49804"/>
<stop offset="1" stop-color="#00CACF" stop-opacity="0"/>
</radialGradient>
<radialGradient id="paint6_radial_67_684" cx="0" cy="0" r="1" gradientUnits="userSpaceOnUse" gradientTransform="translate(1882.13 1032.55) rotate(27.9304) scale(74.9994 74.9994)">
<stop stop-color="white"/>
<stop offset="0.5" stop-color="#4FE3E7" stop-opacity="0.49804"/>
<stop offset="1" stop-color="#00CACF" stop-opacity="0"/>
</radialGradient>
</defs>
</svg>
