<svg width="134" height="150" viewBox="0 0 134 150" fill="none" xmlns="http://www.w3.org/2000/svg">
<path d="M2.5 41.9647C2.5 39.3299 3.9154 36.8999 6.20349 35.6021L62.5807 3.62389C65.2226 2.12537 68.4562 2.12537 71.0981 3.62389L127.475 35.6021C129.763 36.8999 131.179 39.3299 131.179 41.9647V108.129C131.179 110.767 129.76 113.2 127.467 114.497L71.0886 146.381C68.4516 147.873 65.2272 147.873 62.5902 146.381L6.21152 114.497C3.91893 113.2 2.5 110.767 2.5 108.129V41.9647Z" fill="#D6F15B" fill-opacity="0.1" stroke="#D6F15B" stroke-width="5"/>
<path d="M102.859 52.935C100.204 54.0963 97.3692 54.8874 94.3844 55.2486C97.4262 53.4246 99.7661 50.5497 100.873 47.1195C98.0202 48.7764 94.8583 49.9825 91.4925 50.6542C88.8046 47.7912 84.9738 46 80.7199 46C72.5693 46 65.9605 52.5767 65.9605 60.679C65.9605 61.8433 66.0955 62.9628 66.3415 64.0345C54.072 63.4583 43.1975 57.5951 35.9198 48.7316C34.6388 50.887 33.9219 53.3917 33.9219 56.1203C33.9219 61.2253 36.5318 65.7123 40.4856 68.3484C38.0647 68.2707 35.7878 67.608 33.8019 66.5094V66.6915C33.8019 73.8116 38.8807 79.7494 45.6394 81.1018C44.4004 81.4332 43.0925 81.6123 41.7516 81.6123C40.8096 81.6123 39.9066 81.5227 39.0037 81.3555C40.8966 87.1859 46.3384 91.4371 52.8151 91.5565C47.7753 95.4942 41.3886 97.8407 34.5099 97.8407C33.3399 97.8407 32.173 97.772 31 97.6407C37.5667 101.802 45.3034 104.235 53.6701 104.235C80.8309 104.235 95.6653 81.8571 95.6653 62.4821C95.6653 61.8582 95.6653 61.2283 95.6203 60.6014C98.5032 58.5445 101.02 55.9442 103 52.9947L102.859 52.935Z" fill="#D6F15B"/>
</svg>
