<svg width="268" height="129" viewBox="0 0 268 129" fill="none" xmlns="http://www.w3.org/2000/svg">
<g id="ufo-alien--full">
<g id="ufo--full">
<g id="ship--glow" filter="url(#filter0_d_326_317)">
<path fill-rule="evenodd" clip-rule="evenodd" d="M179.903 38.0172C179.903 38.3465 179.889 38.6742 179.859 39H88.948C88.9184 38.6742 88.9035 38.3465 88.9035 38.0172C88.9035 25.8574 109.275 16 134.403 16C159.532 16 179.903 25.8574 179.903 38.0172ZM83.953 41.957C82.8212 41.957 81.6976 42.1492 80.6301 42.5253L15.8537 65.3469C14.534 65.8118 14.8145 67.643 16.2131 67.7994L16.8915 67.8752C16.7034 68.2514 16.7569 68.7379 17.1617 69.0536C34.3108 82.4249 84.1514 114.422 138.027 114.422C176.701 115.193 228.108 83.595 249.933 69.1349C250.319 68.8787 250.435 68.4646 250.346 68.0972C250.759 68.0365 251.174 67.9754 251.589 67.9139C252.942 67.714 253.187 65.949 251.911 65.4796L189.645 42.572C188.54 42.1652 187.371 41.957 186.193 41.957H83.953Z" fill="#232323"/>
</g>
<path id="Vector 10" d="M137.193 114.422C82.8101 114.422 32.5003 82.4292 15.1855 69.0563C14.4405 68.4808 14.8745 67.3271 15.816 67.3271H249.586C250.576 67.3271 250.983 68.5942 250.155 69.1373C228.121 83.5986 176.231 115.193 137.193 114.422Z" fill="url(#paint0_radial_326_317)"/>
<g id="light-circles" filter="url(#filter1_dd_326_317)">
<ellipse id="Ellipse 59" cx="173.823" cy="88.5318" rx="5.02823" ry="5.06177" transform="rotate(-90 173.823 88.5318)" fill="url(#paint1_linear_326_317)"/>
<ellipse id="Ellipse 61" cx="93.2508" cy="88.5318" rx="5.02823" ry="5.06177" transform="rotate(-90 93.2508 88.5318)" fill="url(#paint2_linear_326_317)"/>
<ellipse id="Ellipse 60" cx="214.886" cy="81.5013" rx="4.02258" ry="4.04941" transform="rotate(-90 214.886 81.5013)" fill="url(#paint3_linear_326_317)"/>
<ellipse id="Ellipse 58" cx="7.03952" cy="7.08647" rx="7.03952" ry="7.08647" transform="matrix(-4.40029e-08 1 1 4.34218e-08 126.452 85.6138)" fill="url(#paint4_linear_326_317)"/>
<ellipse id="Ellipse 60_2" cx="4.02258" cy="4.04941" rx="4.02258" ry="4.04941" transform="matrix(1.20044e-08 -1 -1 -1.18459e-08 56.0989 85.6138)" fill="url(#paint5_linear_326_317)"/>
</g>
<g id="ship--bottom">
<g id="bottom-hole--grey" filter="url(#filter2_d_326_317)">
<ellipse cx="25.1071" cy="3.00007" rx="25.1071" ry="3.00007" transform="matrix(0.999856 0.0169648 -0.0193645 0.999812 108.16 108.575)" fill="#D9D9D9"/>
</g>
<ellipse id="bottom-hole--black" cx="24.0387" cy="3.00007" rx="24.0387" ry="3.00007" transform="matrix(0.999856 0.0169648 -0.0193645 0.999812 109.209 109.593)" fill="url(#paint6_radial_326_317)"/>
</g>
<g id="Subtract" filter="url(#filter3_d_326_317)">
<path d="M82.575 41.957C81.4531 41.957 80.3392 42.1458 79.2799 42.5155L13.8617 65.3469C12.5296 65.8118 12.8127 67.643 14.2246 67.7994C116.739 79.1493 156.235 81.9068 251.831 67.9139C253.197 67.714 253.444 65.949 252.156 65.4796L189.272 42.5616C188.174 42.1616 187.015 41.957 185.847 41.957H82.575Z" fill="url(#paint7_linear_326_317)"/>
</g>
<path id="Subtract_2" d="M13.1667 66.0591C116.074 77.1317 157.034 79.8053 252.886 66.2859C253.218 66.9848 252.814 67.9398 251.831 68.0837C156.235 82.0765 116.739 79.319 14.2246 67.9691C13.1583 67.8511 12.7359 66.7777 13.1667 66.0591Z" fill="white" fill-opacity="0.5"/>
<g id="glass-top">
<g id="glass-top--coupling">
<path id="Union" opacity="0.4" d="M87.4157 40.3955L83.6944 41.6494H184.616L180.895 40.3955H87.4157Z" fill="url(#paint8_radial_326_317)" fill-opacity="0.6"/>
<path id="Union_2" d="M87.5652 40.3961L88.9049 38.585H179.556L180.895 40.3961H87.5652Z" fill="url(#paint9_radial_326_317)"/>
</g>
</g>
<g id="ship--top">
<g id="Subtract_3" filter="url(#filter4_d_326_317)">
<path fill-rule="evenodd" clip-rule="evenodd" d="M43.2796 54.8984C116.599 62.6474 156.701 64.3065 225.443 55.6155L248.69 64.3633C254.067 66.052 253.382 66.1398 250.352 66.5278C249.771 66.6023 249.104 66.6877 248.376 66.7977C155.791 80.7906 117.54 78.0331 18.254 66.6831C13.6791 66.1602 12.3891 65.8897 13.6793 65.4248L43.2796 54.8984Z" fill="url(#paint10_linear_326_317)"/>
</g>
<g id="ship-lines" opacity="0.2">
<path id="Vector 12" d="M47.0536 68.7551L58.7434 57.6553" stroke="black"/>
<path id="Vector 13" d="M218.842 69.7073L207.152 58.6074" stroke="black"/>
<path id="Vector 14" d="M132.973 75.1207L132.948 62.2537" stroke="black"/>
</g>
</g>
<g id="alien--full">
<path id="head" d="M141.478 28.2466C141.478 32.2488 135.738 37.6164 133.281 37.6164C130.687 37.6164 125.085 32.2488 125.085 28.2466C125.085 24.2444 128.754 21 133.281 21C137.808 21 141.478 24.2444 141.478 28.2466Z" fill="url(#paint11_radial_326_317)"/>
<g id="mouth" filter="url(#filter5_d_326_317)">
<path d="M134.051 36.0443C134.824 35.7321 134.072 34.9552 133.239 34.9552V34.9552V34.9552C132.406 34.9552 131.654 35.7321 132.427 36.0443C132.678 36.1456 132.952 36.2014 133.239 36.2014C133.526 36.2014 133.8 36.1456 134.051 36.0443Z" fill="#1F292A"/>
</g>
<g id="eye--right" filter="url(#filter6_d_326_317)">
<ellipse cx="2.57483" cy="3.41122" rx="2.57483" ry="3.41122" transform="matrix(0.864907 0.501932 -0.498071 0.867136 136.472 25.2432)" fill="url(#paint12_radial_326_317)"/>
</g>
<g id="eye--left" filter="url(#filter7_d_326_317)">
<ellipse cx="2.57483" cy="3.41122" rx="2.57483" ry="3.41122" transform="matrix(-0.864907 0.501932 0.498071 0.867136 130.089 25.2471)" fill="url(#paint13_radial_326_317)"/>
</g>
</g>
<path id="Subtract_4" d="M176.958 39C176.986 38.6883 177 38.3749 177 38.0599C177 26.4288 157.972 17 134.5 17C111.028 17 92 26.4288 92 38.0599C92 38.3749 92.014 38.6883 92.0416 39H176.958Z" fill="url(#paint14_radial_326_317)"/>
</g>
</g>
<defs>
<filter id="filter0_d_326_317" x="0" y="0" width="267.747" height="128.436" filterUnits="userSpaceOnUse" color-interpolation-filters="sRGB">
<feFlood flood-opacity="0" result="BackgroundImageFix"/>
<feColorMatrix in="SourceAlpha" type="matrix" values="0 0 0 0 0 0 0 0 0 0 0 0 0 0 0 0 0 0 127 0" result="hardAlpha"/>
<feOffset dy="-1"/>
<feGaussianBlur stdDeviation="7.5"/>
<feComposite in2="hardAlpha" operator="out"/>
<feColorMatrix type="matrix" values="0 0 0 0 0.839216 0 0 0 0 0.945098 0 0 0 0 0.360784 0 0 0 1 0"/>
<feBlend mode="normal" in2="BackgroundImageFix" result="effect1_dropShadow_326_317"/>
<feBlend mode="normal" in="SourceGraphic" in2="effect1_dropShadow_326_317" result="shape"/>
</filter>
<filter id="filter1_dd_326_317" x="39.0001" y="69.4785" width="188.935" height="40.2144" filterUnits="userSpaceOnUse" color-interpolation-filters="sRGB">
<feFlood flood-opacity="0" result="BackgroundImageFix"/>
<feColorMatrix in="SourceAlpha" type="matrix" values="0 0 0 0 0 0 0 0 0 0 0 0 0 0 0 0 0 0 127 0" result="hardAlpha"/>
<feOffset dy="1"/>
<feGaussianBlur stdDeviation="4.5"/>
<feComposite in2="hardAlpha" operator="out"/>
<feColorMatrix type="matrix" values="0 0 0 0 0 0 0 0 0 0 0 0 0 0 0 0 0 0 0.95 0"/>
<feBlend mode="normal" in2="BackgroundImageFix" result="effect1_dropShadow_326_317"/>
<feColorMatrix in="SourceAlpha" type="matrix" values="0 0 0 0 0 0 0 0 0 0 0 0 0 0 0 0 0 0 127 0" result="hardAlpha"/>
<feOffset/>
<feGaussianBlur stdDeviation="0.5"/>
<feComposite in2="hardAlpha" operator="out"/>
<feColorMatrix type="matrix" values="0 0 0 0 1 0 0 0 0 1 0 0 0 0 1 0 0 0 0.95 0"/>
<feBlend mode="normal" in2="effect1_dropShadow_326_317" result="effect2_dropShadow_326_317"/>
<feBlend mode="normal" in="SourceGraphic" in2="effect2_dropShadow_326_317" result="shape"/>
</filter>
<filter id="filter2_d_326_317" x="106.102" y="105.97" width="54.2071" height="10.0601" filterUnits="userSpaceOnUse" color-interpolation-filters="sRGB">
<feFlood flood-opacity="0" result="BackgroundImageFix"/>
<feColorMatrix in="SourceAlpha" type="matrix" values="0 0 0 0 0 0 0 0 0 0 0 0 0 0 0 0 0 0 127 0" result="hardAlpha"/>
<feOffset dy="-1"/>
<feGaussianBlur stdDeviation="1"/>
<feComposite in2="hardAlpha" operator="out"/>
<feColorMatrix type="matrix" values="0 0 0 0 0 0 0 0 0 0 0 0 0 0 0 0 0 0 0.25 0"/>
<feBlend mode="normal" in2="BackgroundImageFix" result="effect1_dropShadow_326_317"/>
<feBlend mode="normal" in="SourceGraphic" in2="effect1_dropShadow_326_317" result="shape"/>
</filter>
<filter id="filter3_d_326_317" x="9" y="41.957" width="248" height="43.4336" filterUnits="userSpaceOnUse" color-interpolation-filters="sRGB">
<feFlood flood-opacity="0" result="BackgroundImageFix"/>
<feColorMatrix in="SourceAlpha" type="matrix" values="0 0 0 0 0 0 0 0 0 0 0 0 0 0 0 0 0 0 127 0" result="hardAlpha"/>
<feOffset dy="4"/>
<feGaussianBlur stdDeviation="2"/>
<feComposite in2="hardAlpha" operator="out"/>
<feColorMatrix type="matrix" values="0 0 0 0 0 0 0 0 0 0 0 0 0 0 0 0 0 0 0.25 0"/>
<feBlend mode="normal" in2="BackgroundImageFix" result="effect1_dropShadow_326_317"/>
<feBlend mode="normal" in="SourceGraphic" in2="effect1_dropShadow_326_317" result="shape"/>
</filter>
<filter id="filter4_d_326_317" x="11.2059" y="54.8984" width="243.479" height="25.376" filterUnits="userSpaceOnUse" color-interpolation-filters="sRGB">
<feFlood flood-opacity="0" result="BackgroundImageFix"/>
<feColorMatrix in="SourceAlpha" type="matrix" values="0 0 0 0 0 0 0 0 0 0 0 0 0 0 0 0 0 0 127 0" result="hardAlpha"/>
<feOffset dy="2"/>
<feGaussianBlur stdDeviation="1"/>
<feComposite in2="hardAlpha" operator="out"/>
<feColorMatrix type="matrix" values="0 0 0 0 0 0 0 0 0 0 0 0 0 0 0 0 0 0 0.25 0"/>
<feBlend mode="normal" in2="BackgroundImageFix" result="effect1_dropShadow_326_317"/>
<feBlend mode="normal" in="SourceGraphic" in2="effect1_dropShadow_326_317" result="shape"/>
</filter>
<filter id="filter5_d_326_317" x="131.104" y="34.9551" width="4.26981" height="5.24658" filterUnits="userSpaceOnUse" color-interpolation-filters="sRGB">
<feFlood flood-opacity="0" result="BackgroundImageFix"/>
<feColorMatrix in="SourceAlpha" type="matrix" values="0 0 0 0 0 0 0 0 0 0 0 0 0 0 0 0 0 0 127 0" result="hardAlpha"/>
<feOffset dy="3"/>
<feGaussianBlur stdDeviation="0.5"/>
<feComposite in2="hardAlpha" operator="out"/>
<feColorMatrix type="matrix" values="0 0 0 0 0.780392 0 0 0 0 0.858824 0 0 0 0 0.866667 0 0 0 1 0"/>
<feBlend mode="normal" in2="BackgroundImageFix" result="effect1_dropShadow_326_317"/>
<feBlend mode="normal" in="SourceGraphic" in2="effect1_dropShadow_326_317" result="shape"/>
</filter>
<filter id="filter6_d_326_317" x="133.449" y="25.5146" width="7.60248" height="8.45752" filterUnits="userSpaceOnUse" color-interpolation-filters="sRGB">
<feFlood flood-opacity="0" result="BackgroundImageFix"/>
<feColorMatrix in="SourceAlpha" type="matrix" values="0 0 0 0 0 0 0 0 0 0 0 0 0 0 0 0 0 0 127 0" result="hardAlpha"/>
<feOffset dx="0.25" dy="0.25"/>
<feGaussianBlur stdDeviation="0.5"/>
<feComposite in2="hardAlpha" operator="out"/>
<feColorMatrix type="matrix" values="0 0 0 0 0.752941 0 0 0 0 0.823529 0 0 0 0 0.823529 0 0 0 1 0"/>
<feBlend mode="normal" in2="BackgroundImageFix" result="effect1_dropShadow_326_317"/>
<feBlend mode="normal" in="SourceGraphic" in2="effect1_dropShadow_326_317" result="shape"/>
</filter>
<filter id="filter7_d_326_317" x="125.51" y="25.5186" width="7.60248" height="8.45752" filterUnits="userSpaceOnUse" color-interpolation-filters="sRGB">
<feFlood flood-opacity="0" result="BackgroundImageFix"/>
<feColorMatrix in="SourceAlpha" type="matrix" values="0 0 0 0 0 0 0 0 0 0 0 0 0 0 0 0 0 0 127 0" result="hardAlpha"/>
<feOffset dx="-0.25" dy="0.25"/>
<feGaussianBlur stdDeviation="0.5"/>
<feComposite in2="hardAlpha" operator="out"/>
<feColorMatrix type="matrix" values="0 0 0 0 0.752941 0 0 0 0 0.823529 0 0 0 0 0.823529 0 0 0 1 0"/>
<feBlend mode="normal" in2="BackgroundImageFix" result="effect1_dropShadow_326_317"/>
<feBlend mode="normal" in="SourceGraphic" in2="effect1_dropShadow_326_317" result="shape"/>
</filter>
<radialGradient id="paint0_radial_326_317" cx="0" cy="0" r="1" gradientUnits="userSpaceOnUse" gradientTransform="translate(132.947 87.4655) rotate(-179.991) scale(54.1355 289.895)">
<stop stop-color="#585959"/>
<stop offset="1" stop-color="#2E2E2E"/>
</radialGradient>
<linearGradient id="paint1_linear_326_317" x1="170.005" y1="83.4701" x2="175.387" y2="83.9455" gradientUnits="userSpaceOnUse">
<stop stop-color="#D6F15B"/>
<stop offset="1" stop-color="#69B75D"/>
</linearGradient>
<linearGradient id="paint2_linear_326_317" x1="89.4331" y1="83.4701" x2="94.8146" y2="83.9455" gradientUnits="userSpaceOnUse">
<stop stop-color="#D6F15B"/>
<stop offset="1" stop-color="#69B75D"/>
</linearGradient>
<linearGradient id="paint3_linear_326_317" x1="211.832" y1="77.4519" x2="216.137" y2="77.8323" gradientUnits="userSpaceOnUse">
<stop stop-color="#D6F15B"/>
<stop offset="1" stop-color="#69B75D"/>
</linearGradient>
<linearGradient id="paint4_linear_326_317" x1="1.6947" y1="-4.79028e-06" x2="9.22888" y2="0.665653" gradientUnits="userSpaceOnUse">
<stop stop-color="#D6F15B"/>
<stop offset="1" stop-color="#69B75D"/>
</linearGradient>
<linearGradient id="paint5_linear_326_317" x1="0.9684" y1="-2.7373e-06" x2="5.27364" y2="0.380373" gradientUnits="userSpaceOnUse">
<stop stop-color="#D6F15B"/>
<stop offset="1" stop-color="#69B75D"/>
</linearGradient>
<radialGradient id="paint6_radial_326_317" cx="0" cy="0" r="1" gradientUnits="userSpaceOnUse" gradientTransform="translate(24.0387 3.00007) rotate(90) scale(6.10728 48.9359)">
<stop stop-color="#121212"/>
<stop offset="1" stop-color="#343434"/>
</radialGradient>
<linearGradient id="paint7_linear_326_317" x1="64.4884" y1="51.0868" x2="202.017" y2="51.0868" gradientUnits="userSpaceOnUse">
<stop stop-color="#5F5F5F"/>
<stop offset="0.519434" stop-color="#E4E4E4"/>
<stop offset="1" stop-color="#626262"/>
</linearGradient>
<radialGradient id="paint8_radial_326_317" cx="0" cy="0" r="1" gradientUnits="userSpaceOnUse" gradientTransform="translate(139.762 41.058) rotate(-54.9943) scale(7.8189 825.211)">
<stop offset="0.0238891" stop-color="#69B75D"/>
<stop offset="0.541074" stop-color="#D6F15B"/>
</radialGradient>
<radialGradient id="paint9_radial_326_317" cx="0" cy="0" r="1" gradientUnits="userSpaceOnUse" gradientTransform="translate(139.415 39.5419) rotate(-65.849) scale(10.1382 850.134)">
<stop offset="0.0238891" stop-color="#69B75D"/>
<stop offset="0.541074" stop-color="#464D2B"/>
</radialGradient>
<linearGradient id="paint10_linear_326_317" x1="64.5825" y1="49.8957" x2="201.812" y2="49.8957" gradientUnits="userSpaceOnUse">
<stop stop-color="#E4E4E4"/>
<stop offset="0.494792" stop-color="#605D5D"/>
<stop offset="1" stop-color="#E4E4E4"/>
</linearGradient>
<radialGradient id="paint11_radial_326_317" cx="0" cy="0" r="1" gradientUnits="userSpaceOnUse" gradientTransform="translate(133.281 27.2312) rotate(90) scale(10.3853 10.2458)">
<stop offset="0.0318613" stop-color="#D9EEEF"/>
<stop offset="1" stop-color="#7D8C8D"/>
</radialGradient>
<radialGradient id="paint12_radial_326_317" cx="0" cy="0" r="1" gradientUnits="userSpaceOnUse" gradientTransform="translate(2.34493 2.25878) rotate(93.7018) scale(4.27294 3.22533)">
<stop offset="0.0585801" stop-color="#D9D9D9"/>
<stop offset="0.474715" stop-color="#122123"/>
</radialGradient>
<radialGradient id="paint13_radial_326_317" cx="0" cy="0" r="1" gradientUnits="userSpaceOnUse" gradientTransform="translate(2.34493 2.25878) rotate(93.7018) scale(4.27294 3.22533)">
<stop offset="0.0585801" stop-color="#D9D9D9"/>
<stop offset="0.474715" stop-color="#122123"/>
</radialGradient>
<radialGradient id="paint14_radial_326_317" cx="0" cy="0" r="1" gradientUnits="userSpaceOnUse" gradientTransform="translate(139.005 28.6243) rotate(-88.0776) scale(112.432 846.657)">
<stop offset="0.0238891" stop-color="#74B75D" stop-opacity="0.3"/>
<stop offset="0.541074" stop-color="#D6F15B"/>
<stop offset="0.895721" stop-color="#D6F15B"/>
</radialGradient>
</defs>
</svg>
