<svg width="332" height="209" viewBox="0 0 332 209" fill="none" xmlns="http://www.w3.org/2000/svg">
<g id="ufo-alien--full">
<g id="ufo--full">
<g id="ship--glow" filter="url(#filter0_d_264_219)">
<path fill-rule="evenodd" clip-rule="evenodd" d="M124.677 75.6175C125.794 75.2007 126.978 74.9873 128.17 74.9873H205.97C207.211 74.9873 208.442 75.2184 209.598 75.6688L257.121 94.1732C258.104 94.5561 257.916 95.9957 256.873 96.1588C256.418 96.23 255.964 96.3007 255.512 96.3708C255.636 96.7489 255.539 97.1957 255.141 97.474C238.071 109.407 198.895 134.716 169.357 134.093C128.216 134.093 90.1281 108.468 76.5794 97.3905C76.17 97.0558 76.1365 96.545 76.3558 96.1688C76.0648 96.1344 75.7731 96.0999 75.4808 96.0653C74.4029 95.9378 74.1868 94.4442 75.2038 94.065L124.677 75.6175Z" fill="url(#paint0_linear_264_219)"/>
</g>
<g id="alien--full">
<path id="head" d="M176.312 64.5178C176.312 68.879 170.025 74.7281 167.334 74.7281C164.492 74.7281 158.356 68.879 158.356 64.5178C158.356 60.1565 162.376 56.6211 167.334 56.6211C172.292 56.6211 176.312 60.1565 176.312 64.5178Z" fill="url(#paint1_radial_264_219)"/>
<g id="mouth" filter="url(#filter1_d_264_219)">
<path d="M168.227 72.9946C169.046 72.6433 168.239 71.8177 167.348 71.828C167.328 71.8282 167.308 71.8283 167.288 71.8283C167.268 71.8283 167.248 71.8282 167.228 71.828C166.336 71.8177 165.529 72.6433 166.349 72.9946C166.637 73.118 166.954 73.1864 167.288 73.1864C167.621 73.1864 167.939 73.118 168.227 72.9946Z" fill="#1F292A"/>
</g>
<g id="eye--right" filter="url(#filter2_d_264_219)">
<ellipse cx="171.407" cy="65.8763" rx="2.81664" ry="3.72199" transform="rotate(30 171.407 65.8763)" fill="url(#paint2_radial_264_219)"/>
</g>
<g id="eye--left" filter="url(#filter3_d_264_219)">
<ellipse cx="2.81664" cy="3.72199" rx="2.81664" ry="3.72199" transform="matrix(-0.866025 0.5 0.5 0.866025 163.838 61.249)" fill="url(#paint3_radial_264_219)"/>
</g>
</g>
<path id="Vector 10" d="M169.357 134.093C128.216 134.093 90.128 108.468 76.5793 97.3903C75.8631 96.8046 76.2975 95.6802 77.2227 95.6802H254.553C255.527 95.6802 255.939 96.9158 255.141 97.4738C238.071 109.407 198.895 134.716 169.357 134.093Z" fill="url(#paint4_radial_264_219)"/>
<g id="ship--bottom">
<ellipse id="Ellipse 67" cx="166.116" cy="130.343" rx="25.3498" ry="3.6214" fill="#D9D9D9"/>
<ellipse id="bottom-hole--black" cx="166.244" cy="131.377" rx="23.9271" ry="3.6214" fill="url(#paint5_radial_264_219)"/>
</g>
<g id="Subtract" filter="url(#filter4_d_264_219)">
<path d="M128.17 74.9873C126.978 74.9873 125.794 75.2007 124.677 75.6175L75.2038 94.065C74.1868 94.4442 74.4029 95.9378 75.4808 96.0653C153.742 105.323 183.894 107.572 256.873 96.1588C257.916 95.9957 258.104 94.5561 257.121 94.1732L209.598 75.6688C208.442 75.2184 207.211 74.9873 205.97 74.9873H128.17Z" fill="url(#paint6_linear_264_219)"/>
</g>
<path id="Subtract_2" d="M74.6731 94.6455C153.234 103.677 184.504 105.857 257.679 94.8305C257.932 95.4006 257.624 96.1795 256.873 96.2969C183.894 107.71 153.742 105.461 75.4808 96.2034C74.6668 96.1071 74.3442 95.2317 74.6731 94.6455Z" fill="white" fill-opacity="0.5"/>
<g id="light-circles" filter="url(#filter5_dd_264_219)">
<circle id="Ellipse 59" cx="195.567" cy="112.974" r="4.10123" transform="rotate(-90 195.567 112.974)" fill="url(#paint7_linear_264_219)"/>
<circle id="Ellipse 61" cx="136.766" cy="112.974" r="4.10123" transform="rotate(-90 136.766 112.974)" fill="url(#paint8_linear_264_219)"/>
<circle id="Ellipse 60" cx="223.976" cy="107.24" r="3.28098" transform="rotate(-90 223.976 107.24)" fill="url(#paint9_linear_264_219)"/>
<circle id="Ellipse 58" cx="5.74172" cy="5.74172" r="5.74172" transform="matrix(-4.37114e-08 1 1 4.37114e-08 160.425 110.594)" fill="url(#paint10_linear_264_219)"/>
<circle id="Ellipse 60_2" cx="3.28098" cy="3.28098" r="3.28098" transform="matrix(1.19249e-08 -1 -1 -1.19249e-08 111.525 110.594)" fill="url(#paint11_linear_264_219)"/>
</g>
<g id="glass-top">
<g id="Group 94">
<g id="Union" opacity="0.4" filter="url(#filter6_di_264_219)">
<path d="M126.427 74.9873L123.193 76.1513H210.883L207.65 74.9873H126.427Z" fill="url(#paint12_radial_264_219)"/>
</g>
<path id="Union_2" d="M126.557 74.988L127.721 73.3066H206.486L207.65 74.988H126.557Z" fill="url(#paint13_radial_264_219)"/>
</g>
<path id="Subtract_3" d="M206.447 73.435C206.473 73.1455 206.486 72.8544 206.486 72.5618C206.486 61.7581 188.853 53 167.103 53C145.352 53 127.72 61.7581 127.72 72.5618C127.72 72.8544 127.733 73.1455 127.759 73.435H206.447Z" fill="url(#paint14_radial_264_219)"/>
</g>
<g id="ship--top">
<g id="Subtract_4" filter="url(#filter7_d_264_219)">
<path fill-rule="evenodd" clip-rule="evenodd" d="M97.6245 85.5576C153.56 91.8706 184.173 93.2136 236.687 86.1116L254.475 93.2634C258.58 94.6408 258.058 94.7123 255.744 95.0288C255.301 95.0895 254.791 95.1593 254.236 95.249C183.555 106.662 154.353 104.413 78.5569 95.1555C75.0644 94.729 74.0796 94.5084 75.0645 94.1292L97.6245 85.5576Z" fill="url(#paint15_linear_264_219)"/>
</g>
<g id="ship-lines" opacity="0.2">
<path id="Vector 12" d="M100.543 96.8455L109.467 87.792" stroke="black"/>
<path id="Vector 13" d="M231.689 97.6219L222.765 88.5684" stroke="black"/>
<path id="Vector 14" d="M166.135 102.037L166.116 91.5425" stroke="black"/>
</g>
</g>
</g>
</g>
<defs>
<filter id="filter0_d_264_219" x="0.545898" y="0.987305" width="331.22" height="207.117" filterUnits="userSpaceOnUse" color-interpolation-filters="sRGB">
<feFlood flood-opacity="0" result="BackgroundImageFix"/>
<feColorMatrix in="SourceAlpha" type="matrix" values="0 0 0 0 0 0 0 0 0 0 0 0 0 0 0 0 0 0 127 0" result="hardAlpha"/>
<feOffset/>
<feGaussianBlur stdDeviation="37"/>
<feComposite in2="hardAlpha" operator="out"/>
<feColorMatrix type="matrix" values="0 0 0 0 0.839216 0 0 0 0 0.945098 0 0 0 0 0.360784 0 0 0 1 0"/>
<feBlend mode="normal" in2="BackgroundImageFix" result="effect1_dropShadow_264_219"/>
<feBlend mode="normal" in="SourceGraphic" in2="effect1_dropShadow_264_219" result="shape"/>
</filter>
<filter id="filter1_d_264_219" x="165.009" y="71.8281" width="4.55811" height="5.3584" filterUnits="userSpaceOnUse" color-interpolation-filters="sRGB">
<feFlood flood-opacity="0" result="BackgroundImageFix"/>
<feColorMatrix in="SourceAlpha" type="matrix" values="0 0 0 0 0 0 0 0 0 0 0 0 0 0 0 0 0 0 127 0" result="hardAlpha"/>
<feOffset dy="3"/>
<feGaussianBlur stdDeviation="0.5"/>
<feComposite in2="hardAlpha" operator="out"/>
<feColorMatrix type="matrix" values="0 0 0 0 0.780392 0 0 0 0 0.858824 0 0 0 0 0.866667 0 0 0 1 0"/>
<feBlend mode="normal" in2="BackgroundImageFix" result="effect1_dropShadow_264_219"/>
<feBlend mode="normal" in="SourceGraphic" in2="effect1_dropShadow_264_219" result="shape"/>
</filter>
<filter id="filter2_d_264_219" x="168.339" y="62.3579" width="7.13672" height="9.03662" filterUnits="userSpaceOnUse" color-interpolation-filters="sRGB">
<feFlood flood-opacity="0" result="BackgroundImageFix"/>
<feColorMatrix in="SourceAlpha" type="matrix" values="0 0 0 0 0 0 0 0 0 0 0 0 0 0 0 0 0 0 127 0" result="hardAlpha"/>
<feOffset dx="1" dy="2"/>
<feComposite in2="hardAlpha" operator="out"/>
<feColorMatrix type="matrix" values="0 0 0 0 0.752941 0 0 0 0 0.823529 0 0 0 0 0.823529 0 0 0 1 0"/>
<feBlend mode="normal" in2="BackgroundImageFix" result="effect1_dropShadow_264_219"/>
<feBlend mode="normal" in="SourceGraphic" in2="effect1_dropShadow_264_219" result="shape"/>
</filter>
<filter id="filter3_d_264_219" x="159.191" y="62.3623" width="7.13672" height="9.03662" filterUnits="userSpaceOnUse" color-interpolation-filters="sRGB">
<feFlood flood-opacity="0" result="BackgroundImageFix"/>
<feColorMatrix in="SourceAlpha" type="matrix" values="0 0 0 0 0 0 0 0 0 0 0 0 0 0 0 0 0 0 127 0" result="hardAlpha"/>
<feOffset dx="-1" dy="2"/>
<feComposite in2="hardAlpha" operator="out"/>
<feColorMatrix type="matrix" values="0 0 0 0 0.752941 0 0 0 0 0.823529 0 0 0 0 0.823529 0 0 0 1 0"/>
<feBlend mode="normal" in2="BackgroundImageFix" result="effect1_dropShadow_264_219"/>
<feBlend mode="normal" in="SourceGraphic" in2="effect1_dropShadow_264_219" result="shape"/>
</filter>
<filter id="filter4_d_264_219" x="70.5459" y="74.9873" width="191.22" height="36.9009" filterUnits="userSpaceOnUse" color-interpolation-filters="sRGB">
<feFlood flood-opacity="0" result="BackgroundImageFix"/>
<feColorMatrix in="SourceAlpha" type="matrix" values="0 0 0 0 0 0 0 0 0 0 0 0 0 0 0 0 0 0 127 0" result="hardAlpha"/>
<feOffset dy="4"/>
<feGaussianBlur stdDeviation="2"/>
<feComposite in2="hardAlpha" operator="out"/>
<feColorMatrix type="matrix" values="0 0 0 0 0 0 0 0 0 0 0 0 0 0 0 0 0 0 0.25 0"/>
<feBlend mode="normal" in2="BackgroundImageFix" result="effect1_dropShadow_264_219"/>
<feBlend mode="normal" in="SourceGraphic" in2="effect1_dropShadow_264_219" result="shape"/>
</filter>
<filter id="filter5_dd_264_219" x="95.9634" y="95.9585" width="140.293" height="36.1191" filterUnits="userSpaceOnUse" color-interpolation-filters="sRGB">
<feFlood flood-opacity="0" result="BackgroundImageFix"/>
<feColorMatrix in="SourceAlpha" type="matrix" values="0 0 0 0 0 0 0 0 0 0 0 0 0 0 0 0 0 0 127 0" result="hardAlpha"/>
<feOffset dy="1"/>
<feGaussianBlur stdDeviation="4.5"/>
<feComposite in2="hardAlpha" operator="out"/>
<feColorMatrix type="matrix" values="0 0 0 0 0 0 0 0 0 0 0 0 0 0 0 0 0 0 0.95 0"/>
<feBlend mode="normal" in2="BackgroundImageFix" result="effect1_dropShadow_264_219"/>
<feColorMatrix in="SourceAlpha" type="matrix" values="0 0 0 0 0 0 0 0 0 0 0 0 0 0 0 0 0 0 127 0" result="hardAlpha"/>
<feOffset/>
<feGaussianBlur stdDeviation="0.5"/>
<feComposite in2="hardAlpha" operator="out"/>
<feColorMatrix type="matrix" values="0 0 0 0 1 0 0 0 0 1 0 0 0 0 1 0 0 0 0.95 0"/>
<feBlend mode="normal" in2="effect1_dropShadow_264_219" result="effect2_dropShadow_264_219"/>
<feBlend mode="normal" in="SourceGraphic" in2="effect2_dropShadow_264_219" result="shape"/>
</filter>
<filter id="filter6_di_264_219" x="117.193" y="70.9873" width="99.6895" height="13.1641" filterUnits="userSpaceOnUse" color-interpolation-filters="sRGB">
<feFlood flood-opacity="0" result="BackgroundImageFix"/>
<feColorMatrix in="SourceAlpha" type="matrix" values="0 0 0 0 0 0 0 0 0 0 0 0 0 0 0 0 0 0 127 0" result="hardAlpha"/>
<feOffset dy="2"/>
<feGaussianBlur stdDeviation="3"/>
<feComposite in2="hardAlpha" operator="out"/>
<feColorMatrix type="matrix" values="0 0 0 0 1 0 0 0 0 1 0 0 0 0 1 0 0 0 0.95 0"/>
<feBlend mode="normal" in2="BackgroundImageFix" result="effect1_dropShadow_264_219"/>
<feBlend mode="normal" in="SourceGraphic" in2="effect1_dropShadow_264_219" result="shape"/>
<feColorMatrix in="SourceAlpha" type="matrix" values="0 0 0 0 0 0 0 0 0 0 0 0 0 0 0 0 0 0 127 0" result="hardAlpha"/>
<feOffset dy="-3"/>
<feGaussianBlur stdDeviation="2"/>
<feComposite in2="hardAlpha" operator="arithmetic" k2="-1" k3="1"/>
<feColorMatrix type="matrix" values="0 0 0 0 0 0 0 0 0 0 0 0 0 0 0 0 0 0 0.75 0"/>
<feBlend mode="normal" in2="shape" result="effect2_innerShadow_264_219"/>
</filter>
<filter id="filter7_d_264_219" x="72.7031" y="85.5576" width="186.822" height="21.4209" filterUnits="userSpaceOnUse" color-interpolation-filters="sRGB">
<feFlood flood-opacity="0" result="BackgroundImageFix"/>
<feColorMatrix in="SourceAlpha" type="matrix" values="0 0 0 0 0 0 0 0 0 0 0 0 0 0 0 0 0 0 127 0" result="hardAlpha"/>
<feOffset dy="2"/>
<feGaussianBlur stdDeviation="1"/>
<feComposite in2="hardAlpha" operator="out"/>
<feColorMatrix type="matrix" values="0 0 0 0 0 0 0 0 0 0 0 0 0 0 0 0 0 0 0.25 0"/>
<feBlend mode="normal" in2="BackgroundImageFix" result="effect1_dropShadow_264_219"/>
<feBlend mode="normal" in="SourceGraphic" in2="effect1_dropShadow_264_219" result="shape"/>
</filter>
<linearGradient id="paint0_linear_264_219" x1="113.853" y1="82.4338" x2="218.844" y2="82.4338" gradientUnits="userSpaceOnUse">
<stop stop-color="#5F5F5F"/>
<stop offset="0.519434" stop-color="#E4E4E4"/>
<stop offset="1" stop-color="#626262"/>
</linearGradient>
<radialGradient id="paint1_radial_264_219" cx="0" cy="0" r="1" gradientUnits="userSpaceOnUse" gradientTransform="translate(167.334 63.4112) rotate(90) scale(11.3169 11.2226)">
<stop offset="0.0318613" stop-color="#D9EEEF"/>
<stop offset="1" stop-color="#7D8C8D"/>
</radialGradient>
<radialGradient id="paint2_radial_264_219" cx="0" cy="0" r="1" gradientUnits="userSpaceOnUse" gradientTransform="translate(171.156 64.6189) rotate(93.7113) scale(4.66227 3.5282)">
<stop offset="0.0585801" stop-color="#D9D9D9"/>
<stop offset="0.474715" stop-color="#122123"/>
</radialGradient>
<radialGradient id="paint3_radial_264_219" cx="0" cy="0" r="1" gradientUnits="userSpaceOnUse" gradientTransform="translate(2.56516 2.46456) rotate(93.7113) scale(4.66227 3.5282)">
<stop offset="0.0585801" stop-color="#D9D9D9"/>
<stop offset="0.474715" stop-color="#122123"/>
</radialGradient>
<radialGradient id="paint4_radial_264_219" cx="0" cy="0" r="1" gradientUnits="userSpaceOnUse" gradientTransform="translate(166.115 112.106) rotate(-179.99) scale(41.3279 236.45)">
<stop stop-color="#585959"/>
<stop offset="1" stop-color="#2E2E2E"/>
</radialGradient>
<radialGradient id="paint5_radial_264_219" cx="0" cy="0" r="1" gradientUnits="userSpaceOnUse" gradientTransform="translate(166.244 131.377) rotate(90) scale(7.37213 48.7087)">
<stop stop-color="#121212"/>
<stop offset="1" stop-color="#343434"/>
</radialGradient>
<linearGradient id="paint6_linear_264_219" x1="113.853" y1="82.4339" x2="218.844" y2="82.4339" gradientUnits="userSpaceOnUse">
<stop stop-color="#5F5F5F"/>
<stop offset="0.519434" stop-color="#E4E4E4"/>
<stop offset="1" stop-color="#626262"/>
</linearGradient>
<linearGradient id="paint7_linear_264_219" x1="192.453" y1="108.873" x2="196.842" y2="109.263" gradientUnits="userSpaceOnUse">
<stop stop-color="#D6F15B"/>
<stop offset="1" stop-color="#69B75D"/>
</linearGradient>
<linearGradient id="paint8_linear_264_219" x1="133.652" y1="108.873" x2="138.041" y2="109.263" gradientUnits="userSpaceOnUse">
<stop stop-color="#D6F15B"/>
<stop offset="1" stop-color="#69B75D"/>
</linearGradient>
<linearGradient id="paint9_linear_264_219" x1="221.485" y1="103.959" x2="224.996" y2="104.271" gradientUnits="userSpaceOnUse">
<stop stop-color="#D6F15B"/>
<stop offset="1" stop-color="#69B75D"/>
</linearGradient>
<linearGradient id="paint10_linear_264_219" x1="1.38227" y1="-3.88126e-06" x2="7.52681" y2="0.546498" gradientUnits="userSpaceOnUse">
<stop stop-color="#D6F15B"/>
<stop offset="1" stop-color="#69B75D"/>
</linearGradient>
<linearGradient id="paint11_linear_264_219" x1="0.789866" y1="-2.21786e-06" x2="4.30103" y2="0.312284" gradientUnits="userSpaceOnUse">
<stop stop-color="#D6F15B"/>
<stop offset="1" stop-color="#69B75D"/>
</linearGradient>
<radialGradient id="paint12_radial_264_219" cx="0" cy="0" r="1" gradientUnits="userSpaceOnUse" gradientTransform="translate(171.91 75.6023) rotate(-56.7547) scale(7.10892 732.104)">
<stop offset="0.0238891" stop-color="#69B75D"/>
<stop offset="0.541074" stop-color="#D6F15B"/>
</radialGradient>
<radialGradient id="paint13_radial_264_219" cx="0" cy="0" r="1" gradientUnits="userSpaceOnUse" gradientTransform="translate(171.609 74.195) rotate(-67.2332) scale(9.31345 746.457)">
<stop offset="0.0238891" stop-color="#69B75D"/>
<stop offset="0.541074" stop-color="#464D2B"/>
</radialGradient>
<radialGradient id="paint14_radial_264_219" cx="0" cy="0" r="1" gradientUnits="userSpaceOnUse" gradientTransform="translate(171.278 63.7974) rotate(-88.0822) scale(104.433 784.558)">
<stop offset="0.0238891" stop-color="#69B75D" stop-opacity="0.3"/>
<stop offset="0.541074" stop-color="#D6F15B"/>
</radialGradient>
<linearGradient id="paint15_linear_264_219" x1="113.925" y1="81.4805" x2="218.688" y2="81.4805" gradientUnits="userSpaceOnUse">
<stop stop-color="#E4E4E4"/>
<stop offset="0.494792" stop-color="#605D5D"/>
<stop offset="1" stop-color="#E4E4E4"/>
</linearGradient>
</defs>
</svg>
