<svg width="183" height="76" viewBox="0 0 183 76" fill="none" xmlns="http://www.w3.org/2000/svg">
<g id="Group 77">
<g id="Group 77_2">
<g id="Group 71">
<path id="Vector 10" d="M95.915 75.2797C57.8911 75.2797 22.5405 57.457 7.68254 46.9415C6.16691 45.8688 6.96132 43.6545 8.81813 43.6545H175.762C177.716 43.6545 178.475 46.0987 176.82 47.1375C158.977 58.3355 123.224 75.8486 95.915 75.2797Z" fill="url(#paint0_radial_61_641)"/>
<g id="Vector 9" filter="url(#filter0_dd_61_641)">
<path d="M93.2941 10.186L7.73858 42.0881C5.77281 42.8211 6.1332 45.7004 8.21683 45.9454C79.3562 54.3102 108.861 56.2838 175.339 46.1144C177.356 45.8059 177.662 43.0374 175.762 42.2973L93.2941 10.186Z" fill="url(#paint1_linear_61_641)"/>
<path d="M93.2941 10.186L7.73858 42.0881C5.77281 42.8211 6.1332 45.7004 8.21683 45.9454C79.3562 54.3102 108.861 56.2838 175.339 46.1144C177.356 45.8059 177.662 43.0374 175.762 42.2973L93.2941 10.186Z" stroke="#B63737"/>
</g>
<g id="Ellipse 57" filter="url(#filter1_d_61_641)">
<path d="M127.156 23.0983C127.156 32.268 108.254 25.4702 90.7876 25.4702C73.3216 25.4702 56 32.268 56 23.0983C56 13.9286 74.1122 0.960693 91.5782 0.960693C109.044 0.960693 127.156 13.9286 127.156 23.0983Z" fill="url(#paint2_radial_61_641)"/>
</g>
</g>
<g id="Group 74" filter="url(#filter2_d_61_641)">
<g id="Group 72">
<circle id="Ellipse 59" cx="121.215" cy="61.8389" r="3.95314" fill="url(#paint3_linear_61_641)"/>
<circle id="Ellipse 60" cx="147.306" cy="56.3046" r="3.16251" fill="url(#paint4_linear_61_641)"/>
</g>
<g id="Group 73">
<circle id="Ellipse 58" cx="5.53439" cy="5.53439" r="5.53439" transform="matrix(-1 0 0 1 97 59.467)" fill="url(#paint5_linear_61_641)"/>
<circle id="Ellipse 59_2" cx="3.95314" cy="3.95314" r="3.95314" transform="matrix(-1 0 0 1 68.2432 57.8857)" fill="url(#paint6_linear_61_641)"/>
<circle id="Ellipse 60_2" cx="3.16251" cy="3.16251" r="3.16251" transform="matrix(-1 0 0 1 41.3618 53.1421)" fill="url(#paint7_linear_61_641)"/>
</g>
</g>
</g>
</g>
<defs>
<filter id="filter0_dd_61_641" x="2.44287" y="8.18604" width="178.589" height="52.8174" filterUnits="userSpaceOnUse" color-interpolation-filters="sRGB">
<feFlood flood-opacity="0" result="BackgroundImageFix"/>
<feColorMatrix in="SourceAlpha" type="matrix" values="0 0 0 0 0 0 0 0 0 0 0 0 0 0 0 0 0 0 127 0" result="hardAlpha"/>
<feOffset dy="4"/>
<feGaussianBlur stdDeviation="2"/>
<feComposite in2="hardAlpha" operator="out"/>
<feColorMatrix type="matrix" values="0 0 0 0 0 0 0 0 0 0 0 0 0 0 0 0 0 0 0.35 0"/>
<feBlend mode="normal" in2="BackgroundImageFix" result="effect1_dropShadow_61_641"/>
<feColorMatrix in="SourceAlpha" type="matrix" values="0 0 0 0 0 0 0 0 0 0 0 0 0 0 0 0 0 0 127 0" result="hardAlpha"/>
<feOffset dy="-2"/>
<feComposite in2="hardAlpha" operator="out"/>
<feColorMatrix type="matrix" values="0 0 0 0 1 0 0 0 0 1 0 0 0 0 1 0 0 0 0.8 0"/>
<feBlend mode="normal" in2="effect1_dropShadow_61_641" result="effect2_dropShadow_61_641"/>
<feBlend mode="normal" in="SourceGraphic" in2="effect2_dropShadow_61_641" result="shape"/>
</filter>
<filter id="filter1_d_61_641" x="56" y="0.960693" width="71.1567" height="28.4338" filterUnits="userSpaceOnUse" color-interpolation-filters="sRGB">
<feFlood flood-opacity="0" result="BackgroundImageFix"/>
<feColorMatrix in="SourceAlpha" type="matrix" values="0 0 0 0 0 0 0 0 0 0 0 0 0 0 0 0 0 0 127 0" result="hardAlpha"/>
<feOffset dy="1.5"/>
<feComposite in2="hardAlpha" operator="out"/>
<feColorMatrix type="matrix" values="0 0 0 0 0 0 0 0 0 0 0 0 0 0 0 0 0 0 0.36 0"/>
<feBlend mode="normal" in2="BackgroundImageFix" result="effect1_dropShadow_61_641"/>
<feBlend mode="normal" in="SourceGraphic" in2="effect1_dropShadow_61_641" result="shape"/>
</filter>
<filter id="filter2_d_61_641" x="34.0366" y="53.1421" width="117.432" height="19.3938" filterUnits="userSpaceOnUse" color-interpolation-filters="sRGB">
<feFlood flood-opacity="0" result="BackgroundImageFix"/>
<feColorMatrix in="SourceAlpha" type="matrix" values="0 0 0 0 0 0 0 0 0 0 0 0 0 0 0 0 0 0 127 0" result="hardAlpha"/>
<feOffset dy="1"/>
<feGaussianBlur stdDeviation="0.5"/>
<feComposite in2="hardAlpha" operator="out"/>
<feColorMatrix type="matrix" values="0 0 0 0 0 0 0 0 0 0 0 0 0 0 0 0 0 0 1 0"/>
<feBlend mode="normal" in2="BackgroundImageFix" result="effect1_dropShadow_61_641"/>
<feBlend mode="normal" in="SourceGraphic" in2="effect1_dropShadow_61_641" result="shape"/>
</filter>
<radialGradient id="paint0_radial_61_641" cx="0" cy="0" r="1" gradientUnits="userSpaceOnUse" gradientTransform="translate(92.7525 59.4739) rotate(-179.99) scale(40.322 227.722)">
<stop stop-color="#585959"/>
<stop offset="1" stop-color="#2E2E2E"/>
</radialGradient>
<linearGradient id="paint1_linear_61_641" x1="41.1126" y1="32.3236" x2="142.313" y2="32.3236" gradientUnits="userSpaceOnUse">
<stop stop-color="#5F5F5F"/>
<stop offset="0.519434" stop-color="#E4E4E4"/>
<stop offset="1" stop-color="#626262"/>
</linearGradient>
<radialGradient id="paint2_radial_61_641" cx="0" cy="0" r="1" gradientUnits="userSpaceOnUse" gradientTransform="translate(95.5314 15.1919) rotate(-88.6831) scale(137.606 710.144)">
<stop offset="0.0238891" stop-color="#69B75D"/>
<stop offset="0.541074" stop-color="#D6F15B"/>
</radialGradient>
<linearGradient id="paint3_linear_61_641" x1="118.213" y1="57.8857" x2="122.444" y2="58.262" gradientUnits="userSpaceOnUse">
<stop stop-color="#D6F15B"/>
<stop offset="1" stop-color="#69B75D"/>
</linearGradient>
<linearGradient id="paint4_linear_61_641" x1="144.904" y1="53.1421" x2="148.289" y2="53.4431" gradientUnits="userSpaceOnUse">
<stop stop-color="#D6F15B"/>
<stop offset="1" stop-color="#69B75D"/>
</linearGradient>
<linearGradient id="paint5_linear_61_641" x1="1.33235" y1="-3.74112e-06" x2="7.25503" y2="0.526765" gradientUnits="userSpaceOnUse">
<stop stop-color="#D6F15B"/>
<stop offset="1" stop-color="#69B75D"/>
</linearGradient>
<linearGradient id="paint6_linear_61_641" x1="0.951682" y1="-2.67223e-06" x2="5.18216" y2="0.37626" gradientUnits="userSpaceOnUse">
<stop stop-color="#D6F15B"/>
<stop offset="1" stop-color="#69B75D"/>
</linearGradient>
<linearGradient id="paint7_linear_61_641" x1="0.761345" y1="-2.13778e-06" x2="4.14573" y2="0.301008" gradientUnits="userSpaceOnUse">
<stop stop-color="#D6F15B"/>
<stop offset="1" stop-color="#69B75D"/>
</linearGradient>
</defs>
</svg>
