<?xml version="1.0" encoding="UTF-8"?>
<svg width="33px" height="30px" viewBox="0 0 33 30" version="1.1" xmlns="http://www.w3.org/2000/svg" xmlns:xlink="http://www.w3.org/1999/xlink">
    <!-- Generator: Sketch 42 (36781) - http://www.bohemiancoding.com/sketch -->
    <title>Fill 1523</title>
    <desc>Created with Sketch.</desc>
    <defs></defs>
    <g id="Symbols" stroke="none" stroke-width="1" fill="none" fill-rule="evenodd">
        <g id="web/footer" transform="translate(-1230.000000, -479.000000)" fill="#FFFFFF">
            <g id="Group-50">
                <g transform="translate(176.000000, 479.000000)">
                    <path d="M1087,4.20472689 C1085.78679,4.77195378 1084.48305,5.15625 1083.11164,5.3292542 C1084.51039,4.44485294 1085.58242,3.04522059 1086.08841,1.37804622 C1084.75913,2.21092437 1083.30435,2.79753151 1081.78862,3.11045168 C1080.5539,1.72358193 1078.79437,0.857142857 1076.8475,0.857142857 C1073.11017,0.857142857 1070.07961,4.0529937 1070.07961,7.99758403 C1070.07961,8.55630252 1070.13832,9.10084034 1070.2535,9.62505252 C1064.62801,9.32773109 1059.63938,6.4845063 1056.30003,2.16507353 C1055.71651,3.22058824 1055.38352,4.4467437 1055.38352,5.75514706 C1055.38352,8.23203782 1056.57835,10.4172794 1058.3948,11.6963761 C1057.32053,11.6623424 1056.26776,11.3565126 1055.32839,10.8044118 L1055.32839,10.8951681 C1055.32839,14.3543067 1057.66114,17.2391282 1060.75892,17.8952206 C1060.1884,18.0597164 1059.59188,18.1457458 1058.97384,18.1457458 C1058.53822,18.1457458 1058.11469,18.1022584 1057.69968,18.0200105 C1058.56197,20.856145 1061.06189,22.9199055 1064.02388,22.9780462 C1061.70592,24.8933824 1058.7874,26.0358718 1055.61612,26.0358718 C1055.07024,26.0358718 1054.52974,26.0004202 1054,25.9332983 C1056.99739,27.9597164 1060.555,29.1428571 1064.37749,29.1428571 C1076.82912,29.1428571 1083.63869,18.2629727 1083.63869,8.82857143 C1083.63869,8.51896008 1083.63242,8.21171218 1083.61763,7.90493697 C1084.94557,6.89290966 1086.09021,5.63981092 1087,4.20472689" id="Fill-1523"></path>
                </g>
            </g>
        </g>
    </g>
</svg>